<?xml version="1.0" standalone="no"?>
<!DOCTYPE svg PUBLIC "-//W3C//DTD SVG 20010904//EN"
 "http://www.w3.org/TR/2001/REC-SVG-20010904/DTD/svg10.dtd">
<svg version="1.0" xmlns="http://www.w3.org/2000/svg"
 width="16.000000pt" height="16.000000pt" viewBox="0 0 16.000000 16.000000"
 preserveAspectRatio="xMidYMid meet">
<metadata>
Created by potrace 1.11, written by Peter Selinger 2001-2013
</metadata>
<g transform="translate(0.000000,16.000000) scale(0.002286,-0.002286)"
fill="#000000" stroke="none">
<path d="M3265 6904 c-268 -27 -401 -48 -586 -94 -1310 -325 -2304 -1391
-2538 -2720 -38 -215 -46 -320 -46 -590 0 -270 8 -375 46 -590 249 -1413 1356
-2520 2769 -2769 215 -38 320 -46 590 -46 270 0 375 8 590 46 1413 249 2520
1356 2769 2769 38 215 46 320 46 590 0 270 -8 375 -46 590 -234 1329 -1230
2396 -2538 2720 -274 68 -454 90 -766 94 -137 2 -268 2 -290 0z m380 -876
c100 -28 189 -81 265 -157 75 -75 120 -148 156 -253 21 -60 26 -92 26 -183 1
-184 -53 -316 -182 -445 -76 -76 -161 -130 -243 -154 l-42 -12 -3 -312 -2
-312 375 0 376 0 -3 -72 -3 -73 -372 -3 -373 -2 0 -1311 0 -1311 43 7 c478 76
856 318 1109 711 114 178 208 447 225 646 l6 67 -91 3 -90 3 143 243 c78 134
146 244 149 245 4 1 71 -108 151 -243 l144 -245 -79 -3 -79 -3 -5 -32 c-3 -18
-10 -72 -16 -122 -29 -216 -122 -476 -241 -667 -249 -402 -642 -691 -1089
-802 -153 -38 -255 -50 -430 -50 -175 0 -277 12 -430 50 -567 141 -1033 560
-1240 1115 -51 136 -100 354 -100 445 0 21 -4 44 -8 51 -5 7 -38 13 -84 15
l-77 3 144 245 c80 135 147 244 151 243 3 -1 71 -111 149 -245 l143 -243 -89
-3 -89 -3 0 -30 c0 -49 20 -168 41 -249 72 -269 210 -508 405 -704 242 -242
528 -383 892 -441 l42 -7 0 1311 0 1311 -372 2 -373 3 -3 73 -3 72 376 0 375
0 -2 312 -3 312 -42 12 c-127 37 -288 170 -349 289 -59 113 -77 187 -76 310 0
91 5 123 26 183 36 105 81 178 156 252 164 165 390 223 615 158z"/>
<path d="M3397 5750 c-97 -25 -175 -87 -219 -177 -28 -58 -33 -77 -33 -143 0
-66 5 -85 33 -142 58 -118 161 -183 292 -183 131 0 234 65 292 183 28 57 33
76 33 142 0 66 -5 85 -33 143 -36 73 -89 123 -164 157 -54 24 -148 33 -201 20z"/>
</g>
</svg>
