<?xml version="1.0" standalone="no"?>
<!DOCTYPE svg PUBLIC "-//W3C//DTD SVG 20010904//EN"
 "http://www.w3.org/TR/2001/REC-SVG-20010904/DTD/svg10.dtd">
<svg version="1.0" xmlns="http://www.w3.org/2000/svg"
 width="700.000000pt" height="700.000000pt" viewBox="0 0 700.000000 700.000000"
 preserveAspectRatio="xMidYMid meet">
<metadata>
Created by potrace 1.11, written by Peter Selinger 2001-2013
</metadata>
<g transform="translate(0.000000,700.000000) scale(0.100000,-0.100000)"
fill="#000000" stroke="none">
<path d="M3478 6866 c-1 -2 -66 -6 -143 -10 -77 -3 -151 -8 -164 -11 -14 -2
-50 -7 -81 -9 -31 -3 -88 -10 -126 -16 -38 -7 -82 -14 -99 -17 -71 -11 -329
-78 -435 -113 -349 -116 -624 -256 -940 -481 -252 -179 -571 -504 -751 -764
-18 -27 -36 -52 -39 -55 -8 -7 -101 -153 -140 -221 -49 -81 -152 -291 -200
-403 -39 -94 -134 -366 -144 -418 -3 -12 -9 -38 -15 -55 -5 -18 -7 -33 -3 -32
4 0 25 22 47 49 22 27 117 124 210 217 481 475 1033 813 1680 1028 244 81 572
160 780 189 11 2 45 7 75 11 30 4 64 9 75 11 11 2 44 6 75 9 30 3 71 7 90 10
200 26 875 26 1045 0 31 -5 98 -13 169 -20 22 -3 50 -6 61 -9 11 -2 40 -7 65
-11 54 -9 48 -8 190 -40 144 -32 155 -36 144 -44 -13 -9 -200 -242 -265 -331
-312 -422 -497 -801 -554 -1135 -14 -86 -22 -315 -11 -334 2 -3 7 -25 11 -48
15 -107 85 -265 158 -363 186 -250 557 -471 1032 -615 110 -33 321 -90 370
-99 11 -2 79 -15 150 -29 141 -28 288 -52 375 -62 30 -3 71 -8 90 -10 19 -2
60 -7 90 -10 30 -3 71 -8 90 -10 19 -3 78 -7 130 -10 52 -3 116 -8 142 -10 39
-4 49 -2 57 13 11 21 65 279 76 362 4 30 9 63 11 73 19 102 27 560 12 717 -13
138 -18 185 -23 206 -3 12 -7 39 -10 60 -16 108 -81 384 -110 464 -7 19 -18
53 -24 75 -7 22 -16 49 -21 60 -4 11 -27 70 -50 130 -81 207 -246 508 -380
691 -86 116 -94 127 -125 163 -16 20 -41 49 -55 66 -80 96 -269 282 -385 380
-44 37 -90 75 -102 86 -41 34 -277 195 -343 234 -36 21 -81 48 -100 60 -65 39
-304 152 -420 198 -182 72 -486 158 -640 180 -19 3 -71 10 -115 16 -44 7 -93
14 -110 16 -16 3 -102 7 -190 11 -88 3 -165 7 -172 9 -6 2 -13 2 -15 1z"/>
<path d="M3517 5463 c-1 0 -54 -4 -117 -8 -63 -3 -126 -8 -140 -10 -14 -2 -54
-7 -90 -10 -36 -4 -72 -9 -80 -10 -8 -1 -40 -6 -70 -9 -30 -4 -77 -11 -105
-16 -27 -5 -61 -12 -75 -14 -263 -48 -615 -147 -785 -221 -16 -7 -70 -29 -120
-50 -113 -47 -325 -153 -412 -205 -36 -22 -67 -40 -70 -40 -9 0 -238 -154
-318 -214 -367 -274 -711 -638 -975 -1030 l-53 -79 6 -161 c4 -89 8 -170 11
-181 2 -11 7 -56 11 -100 4 -44 8 -82 10 -85 1 -3 6 -25 9 -50 15 -107 64
-329 76 -343 4 -5 22 18 40 50 18 32 42 73 52 92 80 142 277 431 387 566 127
158 168 203 321 356 152 152 232 223 370 327 52 40 100 76 105 80 6 4 42 29
80 54 399 260 848 436 1235 483 30 4 66 9 80 11 22 3 267 7 313 5 14 -1 8 -19
-37 -108 -84 -169 -216 -493 -200 -493 3 0 0 -8 -5 -18 -6 -11 -12 -30 -15
-43 -2 -13 -9 -44 -15 -69 -28 -125 -42 -242 -43 -363 -1 -95 10 -246 18 -259
3 -4 6 -20 8 -35 9 -71 52 -203 101 -308 111 -242 295 -457 590 -688 203 -159
581 -360 945 -502 360 -140 940 -302 1255 -351 22 -3 42 -7 45 -9 5 -3 253
-45 265 -45 9 0 180 234 229 315 28 44 52 82 55 85 14 13 156 289 204 397 31
71 34 83 19 84 -9 1 -28 2 -42 3 -14 2 -74 6 -135 10 -60 4 -123 9 -140 11
-16 2 -59 7 -95 10 -36 3 -94 10 -130 15 -36 5 -87 12 -115 15 -27 4 -57 8
-65 10 -8 3 -33 7 -55 10 -32 5 -212 39 -310 59 -24 5 -186 45 -200 50 -5 1
-23 6 -40 10 -16 4 -51 14 -76 22 -25 8 -54 16 -65 18 -76 16 -347 123 -499
197 -233 113 -412 236 -564 389 -113 113 -192 220 -255 346 -59 117 -82 183
-111 319 -20 95 -23 133 -20 280 2 94 6 184 9 200 3 17 13 66 22 110 25 132
110 370 194 540 86 178 142 275 254 444 42 63 74 117 71 119 -2 3 -15 6 -27 7
-13 2 -45 6 -73 9 -95 11 -241 18 -443 19 -112 1 -204 1 -205 0z"/>
<path d="M2715 4364 c-33 -8 -71 -16 -85 -19 -31 -6 -164 -46 -247 -74 -162
-55 -419 -179 -583 -283 -547 -344 -1056 -930 -1409 -1624 l-51 -100 50 -113
c119 -270 265 -512 445 -736 115 -144 128 -158 277 -307 541 -540 1236 -881
1983 -973 250 -30 630 -24 865 15 30 5 77 12 104 15 27 3 53 8 57 10 4 3 24 7
45 11 22 3 100 21 174 41 507 130 981 374 1363 701 136 116 220 199 210 205
-7 4 -110 25 -213 42 -19 3 -53 10 -75 15 -22 5 -53 11 -70 14 -141 25 -557
140 -790 218 -473 158 -829 327 -1170 554 -243 162 -418 321 -598 543 -166
205 -292 494 -338 776 -21 130 -19 359 5 530 18 127 71 323 130 479 14 37 26
70 26 72 0 7 -43 2 -105 -12z"/>
</g>
</svg>
