<svg xmlns="http://www.w3.org/2000/svg" viewBox="0 0 91 150"><defs><style>.cls-1{fill:#e8c8ba;}.cls-2{fill:#eed4cb;}.cls-3{fill:#c96;}.cls-4{fill:#eabe71;}.cls-5{fill:#88a3aa;}.cls-6{fill:#6f8084;}.cls-7{fill:#42210b;}.cls-8{fill:#5b6f72;}.cls-9{fill:#879ca0;}.cls-10{fill:#e5b361;}.cls-11{fill:#c68b55;}.cls-12{fill:#dbbcb2;}.cls-13{fill:#1f78a0;stroke:#42210b;stroke-miterlimit:10;}.cls-14{fill:#d8b4a7;}</style></defs><title>Helge Kopf</title><g id="Haut"><path class="cls-1" d="M8.3,69.45a8.75,8.75,0,0,0-2.65.48,5.76,5.76,0,0,0-2.33,2c-.66,1.6.2,5.2.59,6.89a20.89,20.89,0,0,0,2.33,6A8.4,8.4,0,0,0,9.17,87a5.17,5.17,0,0,0,1.28,0L11,77.5V69.81A22.73,22.73,0,0,0,8.3,69.45Z"/><path class="cls-1" d="M80.76,69.7a8.87,8.87,0,0,1,2.59.78,5.79,5.79,0,0,1,2.1,2.22c.47,1.66-.79,5.15-1.37,6.77a20.9,20.9,0,0,1-3,5.68A8.39,8.39,0,0,1,77.93,87a5.54,5.54,0,0,1-1.32-.15l.5-9.5L78,69.73A23.8,23.8,0,0,1,80.76,69.7Z"/><path class="cls-2" d="M9.25,68.25a90.37,90.37,0,0,0,2.83,26.38l43.67-4.38L76,93.17s2.38-12.39,3-16.55c.47-3.08,1.52-12.37,1.52-12.37l.25-7.84S69.32,45.93,45,45c-10.87-.42-35.12,8-35.12,8S9.44,64.16,9.25,68.25Z"/></g><g id="Augenbrauen"><path class="cls-3" d="M16.12,58.67s15.35,3.08,20,1.66c.56-.17,1.15-1.29,1.38-1.83a6.42,6.42,0,0,0-.36-3.67A4.51,4.51,0,0,0,35.67,53c-2.19-1-9.78-.46-9.78-.46l-10.55.87L14.07,58.5Z"/><path class="cls-3" d="M53.67,61.25c-.93-.35-1.71-2.52-1.92-3.5-.25-1.17-.43-3.91.42-4.75,1.52-1.52,8.58-.75,8.58-.75l7.42-.67L73.08,56s-4.25,2.5-4.92,2.5a58.35,58.35,0,0,0-8.92,1.42C57.84,60.38,55.05,61.77,53.67,61.25Z"/></g><g id="Bart_Haaere" data-name="Bart+Haaere"><path class="cls-4" d="M36.75,45.5s-6.93,5.38-9.5,6.75a106.6,106.6,0,0,1-10,3.75s-2.23,4.51-3,6c-1.23,2.39-5,9.5-5,9.5s-3-7-3-9.5A76.34,76.34,0,0,1,7,52.39s10.55-3.73,14-4.72C24.79,46.56,36.75,45.5,36.75,45.5Z"/><path class="cls-4" d="M65.95,48.66c.5.88,2.81,7.83,4.64,10.17,1.49,1.9,9.27,11,9.27,11l2-12.81s-6-3.93-8.12-5.09A68.17,68.17,0,0,0,65.95,48.66Z"/><path class="cls-4" d="M39.13,83.38A12.53,12.53,0,0,0,31.93,82c-5.46.27-16.56,4.92-18.93,9.85-3.57,7.45-1.25,31.39,2.75,32.95,0,0,.16-3.14,1.25-3.27,0,0,4.5,13.34,7,13.21l1.13-3.87s7.13,13.31,11.63,13.19l1-2.57c0,3.25,7,5.63,7,5.63s8.75-2.25,9.73-5.55c.15-.5,1.43,1.57,1.94,1.67,1.25.25,7.51-11.12,7.51-11.12l1.2,3A43.44,43.44,0,0,0,77,107.63C77.22,104,78.48,96.34,77,93c-1.87-4.25-7.12-7.25-13.75-9.37-2.66-.85-8-2.26-10.81-1.31A18.59,18.59,0,0,0,49.49,84,11.41,11.41,0,0,1,45,85.5C43.22,85.64,40.76,84.09,39.13,83.38Z"/></g><g id="Schnurrbart"><path class="cls-3" d="M45,95.25c-4.06.17-12.13,4.3-17.25,4.13-7.12-.25-13.68-3.52-13.68-5.41,0-7.84,13.73-12.13,18.43-12.37,1.56-.08,12,2.85,12,2.85s7.68-2.8,10-2.86c6.27-.14,20.28,3.46,21.5,9.61.45,2.23-4.35,5.53-6.44,6.43-3,1.29-9.77.71-13,.38C53.56,97.7,48,95.13,45,95.25Z"/></g><g id="Mütze_Mund" data-name="Mütze+Mund"><path class="cls-5" d="M85.56,39.73S70.13,3.38,47.63,2.38C21,1.19,5.63,38.5,5.63,38.5l40.5,2.75Z"/><path class="cls-6" d="M6.36,58.84C5.34,59.32,4,57,4,55.38V52L2,48.66S1.44,43.57,2,42c.46-1.3,2.58-2.61,3.63-3.5,4.25-3.62,22.13-10.26,38.85-10.25C56.13,28.25,87.88,39,89,42.13a29.71,29.71,0,0,1-1.5,7.63c-1,2.08-4.12,9.51-5.72,7.88C75.87,51.63,55,45,45.38,45c-11.13,0-35.26,6-37.76,9.26C6.93,55.16,6.36,58.84,6.36,58.84Z"/><path class="cls-7" d="M54.13,97.49l-.59.43a18.53,18.53,0,0,1-1.65,1,7.1,7.1,0,0,1-1.22.45c-.46.15-.93.21-1.43.32a27,27,0,0,1-3.11.3,39.12,39.12,0,0,1-5.81-.22c-.79-.08-1.44-.21-1.9-.28s-.72-.14-.72-.14l.73-.06c.46,0,1.12-.09,1.91-.11,1.58-.08,3.67-.11,5.75-.18,1,0,2.08-.07,3-.14.48,0,1-.07,1.37-.13a9.91,9.91,0,0,0,1.23-.23c.33-.12.68-.26,1-.39l.75-.35Z"/></g><g id="Schatten"><path class="cls-8" d="M31.86,30.67S18.27,33.72,14,35.58c-3,1.3-11,6.88-11,6.88a53.52,53.52,0,0,0,.77,5.35c.2.7,1,2,1.15,2.69A22.49,22.49,0,0,1,5,54s3.38-2.5,4.17-3.25c1.66-1.57,5.23-2.38,7.33-3.25s8.1-3.92,8.1-3.92-10.75,2-14.3,1.41c-.88-.14-3.16-.53-3.27-1.41-.33-2.47,5.64-5,7.8-6.24C18.79,35,31.86,30.67,31.86,30.67Z"/><path class="cls-8" d="M68,35s17.11,5.32,19.22,7.92c1.38,1.7-1.66,5.66-2.72,7.58-.53,1-1.6,3.11-2.62,3.5s-3.21-.37-4.17-.83c-2.18-1.06-5.13-4.73-7.37-5.67-1.88-.79-6.22-.61-8.12-1.33a20.21,20.21,0,0,1-3.46-2.59,42.42,42.42,0,0,1,6.58-1.24c2.44,0,7.1,1.72,9.5,2.17,1.75.32,5.37,1.59,7,1,.62-.22,2.36-1.59,1.79-1.92C77.71,40,68,35,68,35Z"/><path class="cls-9" d="M42.83,3.17s-14.68,8.11-19,11.92A60.93,60.93,0,0,0,13.34,28.25c-.61,1.17-3.52,5.81-2.34,5.22,5.33-2.67,18-5.93,23.73-6.47C38.48,26.64,42.83,3.17,42.83,3.17Z"/><path class="cls-9" d="M65.95,29.83c3.63,2.4,10.66,3,14.8,5.83,3.56,2.44-7.83-13.2-10.42-16.67-.55-.74-2.33-2.83-2.33-2.83s1.63,6.47,1.17,8.58C68.85,26.22,64.69,29,65.95,29.83Z"/><path class="cls-10" d="M31.93,47.5a52.24,52.24,0,0,1-6,4.08C23.48,52.64,15.67,54,15.67,54s6-3,8.13-3.83S31.93,47.5,31.93,47.5Z"/><path class="cls-10" d="M14.89,56.69,9.5,66.22s-.57-4,0-5.22C10.25,59.45,14.89,56.69,14.89,56.69Z"/><path class="cls-10" d="M68.17,51.58a52.2,52.2,0,0,0,2.88,5.57c1.62,2.21,7.78,7.72,7.78,7.72s2-3.55,1.17-4.17C75.48,57.5,68.17,51.58,68.17,51.58Z"/><path class="cls-11" d="M54.5,54a11.45,11.45,0,0,0,0,3,4.07,4.07,0,0,0,1.58,1.9c1.23.47,3.93-.45,5.21-.77s4.65-1.63,4.65-1.63-5.27.44-6.95,0A26.51,26.51,0,0,1,54.5,54Z"/><path class="cls-11" d="M21.42,58.23s9.61,2.52,12.38.67A5,5,0,0,0,35.4,57a4.27,4.27,0,0,0-.52-1.84s-2,.7-3,1.08C29.44,57.23,21.42,58.23,21.42,58.23Z"/><path class="cls-1" d="M11.75,70.17a120.59,120.59,0,0,0,0,13.58c.07.76.16,4.44.88,4.69,1.22.42,4.6-3,4.84-4.27.15-.77-1.43-1.9-1.8-2.59C14.17,78.79,11.75,70.17,11.75,70.17Z"/><path class="cls-1" d="M76,67.22s.18,9.36-.8,12.28c-.32.95-2,2.35-2.2,3.33s.08,3.2.94,3.33S75.63,83.88,76,83c1.12-2.91,2.47-9.26,1.92-12.33A15.69,15.69,0,0,0,76,67.22Z"/><path class="cls-1" d="M39.59,72.13s.47,4.75.87,6.28c.26,1,.66,3.23,1.52,3.77s2.55.19,3.4.17A11.8,11.8,0,0,0,47,82a18.21,18.21,0,0,1-3.71-2.08C41.82,78.34,39.59,72.13,39.59,72.13Z"/><path class="cls-1" d="M52.77,70.56a41,41,0,0,0-1.26,6.08,30.17,30.17,0,0,0,.57,4A25.27,25.27,0,0,0,54,76.7c.6-2.61,0-10.7,0-10.7S53,69.41,52.77,70.56Z"/><path class="cls-1" d="M21.25,63.48a5.23,5.23,0,0,1,1-1.32c1.07-.54,3.6-.22,4.8-.16,1.47.08,5.91,0,5.91,0l-7,1.75Z"/><path class="cls-1" d="M57.18,61.41s1.51-.36,2-.41A24.71,24.71,0,0,1,62,61c1.51.08,6,.62,6,.62a25.46,25.46,0,0,1-4.5,1.2C61.88,62.85,57.18,61.41,57.18,61.41Z"/><path class="cls-1" d="M37,73.67s.58,6.12,0,7.65c-.25.66-4.66-.13-4.5-.95C32.83,78.63,37,73.67,37,73.67Z"/><path class="cls-10" d="M14.89,99.38s-2.2,11.41-1.55,15.17c.23,1.35,1,5,2.33,4.95s.48-5,1.8-4.95c2.91.06,3.53,11.11,3.53,11.11s.52-11.24-1.67-14c-.61-.76-3.08-.55-3.67-1.33C14,108.14,14.89,99.38,14.89,99.38Z"/><path class="cls-10" d="M28.46,122.75c.81-2.9,3.16-11.62,3.16-11.62s.34,9.16.39,12.21c0,2.42-.19,7.26,0,9.67.12,1.47.94,5.83.94,5.83s-5.6-7.89-5.94-11C26.86,126.52,28.1,124,28.46,122.75Z"/><path class="cls-10" d="M48.84,141s3.57-3.37,4.23-4.83c1.16-2.57,1.3-8.37,1.43-11.19a84.64,84.64,0,0,0-.37-11.31c-.15-1.15-1.06-4.5-1.06-4.5s-.54,10.14-.9,13.5c-.3,2.76-1.15,8.27-1.66,11C50.15,135.51,48.84,141,48.84,141Z"/><path class="cls-10" d="M40.17,112.52s-3,9.34-2.47,12.46c.35,1.9,4.13,6.52,4.13,6.52S40,124.43,39.77,122,40.17,112.52,40.17,112.52Z"/><path class="cls-10" d="M73.21,101.5s.69,10.62-.24,14-7,12.33-7,12.33,2.76-9.36,3.63-12.5C70.53,111.89,73.21,101.5,73.21,101.5Z"/><path class="cls-11" d="M27,84.34s-6.23,3.48-8.12,4.92a4.23,4.23,0,0,0-1.76,3.25c.08,1.26,2.92,3.19,4.12,3.58,1.78.58,7.13.16,7.13.16S21.89,93.77,21.5,92C20.95,89.48,27,84.34,27,84.34Z"/><path class="cls-11" d="M65.5,94.63s4.07.24,4.61-.79.46-3.67-.53-4.5C68,88,59.94,86.17,59.94,86.17s4.79,3.9,5.56,5.55A9,9,0,0,1,65.5,94.63Z"/><path class="cls-10" d="M43,102h7s-2.4,2.67-3.5,2.67S43,102,43,102Z"/><path class="cls-12" d="M80.58,71.5s2.45,0,2.92.63c.61.75.23,2.93,0,3.87-.31,1.27-1.18,5.08-2.42,4.64s1-3.4,1-4.57A24.32,24.32,0,0,0,80.58,71.5Z"/><path class="cls-12" d="M7.89,70.94C7,70.43,5.45,71.48,5,72.4s.21,4.77.65,5.85S6.52,81.41,7.5,81c1.16-.48,0-5,0-5S9,71.57,7.89,70.94Z"/></g><g id="Augen_Nase" data-name="Augen+Nase"><path class="cls-13" d="M27.09,63.56s-.42,1.32-.43,1.5a3.57,3.57,0,0,0,.21,1.22,4.19,4.19,0,0,0,2.63.94,3.85,3.85,0,0,0,2.4-2,12.84,12.84,0,0,0-.37-2.66"/><path class="cls-7" d="M21,63.5a16.81,16.81,0,0,1,1.94-.29c.58-.06,1.25-.1,2-.14.35,0,.74,0,1-.07l1.14-.2c1.51-.27,3-.53,4.17-.68s1.94-.19,1.94-.19-.72.32-1.82.69c-.55.18-1.2.39-1.91.59s-1.47.41-2.22.56L26.1,64a11.66,11.66,0,0,1-1.18,0,18.42,18.42,0,0,1-2-.15A12.72,12.72,0,0,1,21,63.5Z"/><path class="cls-13" d="M63.5,62.56s.42,1.32.43,1.5a3.57,3.57,0,0,1-.21,1.22,4.19,4.19,0,0,1-2.62.94,3.85,3.85,0,0,1-2.4-2,12.84,12.84,0,0,1,.37-2.66"/><path class="cls-7" d="M68,62.5a22.33,22.33,0,0,1-2.68.55c-.46.06-.92.1-1.37.14a5.69,5.69,0,0,1-.72,0,3.82,3.82,0,0,1-.71-.08c-.23,0-.45-.08-.7-.13l-.65-.17c-.44-.11-.87-.24-1.3-.36-.87-.26-1.72-.55-2.57-.88l.14,0c-.33.15-.67.28-1,.41.27-.25.54-.5.82-.73l0,0h.1c.91.09,1.8.22,2.69.39.44.08.89.17,1.33.27l1.29.28a3.22,3.22,0,0,0,.63.09c.21,0,.41.06.63.06.44,0,.89,0,1.33,0A22.79,22.79,0,0,1,68,62.5Z"/><path class="cls-7" d="M37.33,64.88s.16.7.37,1.94c.11.62.24,1.38.36,2.25s.3,1.85.35,2.93.21,2.25.19,3.5,0,2.54.06,3.87a18.26,18.26,0,0,0,.17,2,3.82,3.82,0,0,0,.23.89.37.37,0,0,0,.08.14s.06.08,0,0l.11.08a3.61,3.61,0,0,0,.42.29,8.05,8.05,0,0,0,1.84.59,14.83,14.83,0,0,0,2.06.26,12.21,12.21,0,0,0,4.08-.46,5.09,5.09,0,0,0,1.74-.77c.08-.09.24-.17.28-.26a1.53,1.53,0,0,0,.22-.4,3.59,3.59,0,0,0,.24-.86,22.1,22.1,0,0,0,.11-3.79,12.85,12.85,0,0,1,.19-3.54c.49-2.1,1-3.84,1.26-5.06l.5-1.92-.31,2c-.22,1.24-.49,3-.9,5.13a12.29,12.29,0,0,0,0,3.39,18,18,0,0,1,0,4,4.28,4.28,0,0,1-.3,1.1,2.45,2.45,0,0,1-.27.5,2.4,2.4,0,0,1-.45.47,5.89,5.89,0,0,1-2.05,1,13,13,0,0,1-4.4.56,15.87,15.87,0,0,1-2.2-.32,8,8,0,0,1-2.19-.78,4.25,4.25,0,0,1-.44-.32l-.11-.08a1,1,0,0,1-.16-.2,1.17,1.17,0,0,1-.18-.32,4.56,4.56,0,0,1-.28-1.13,19.11,19.11,0,0,1-.15-2.1c0-1.36,0-2.67.08-3.91s0-2.38,0-3.45-.11-2.05-.16-2.93-.12-1.63-.18-2.26Z"/><path class="cls-14" d="M25.88,73.67l.1,0a1.24,1.24,0,0,0,.28-.13c.21-.13.5-.32.86-.56l1.21-.84a12.31,12.31,0,0,0,1.26-1c.43-.41.8-.8,1.18-1.18s.71-.74,1-1.07a5.42,5.42,0,0,0,.35-.45,4,4,0,0,0,.24-.38l.16-.37s0,.14,0,.42a2.19,2.19,0,0,1-.08.48,2.92,2.92,0,0,1-.21.6,7,7,0,0,1-.79,1.34c-.18.22-.34.46-.54.68s-.4.44-.6.65a7.07,7.07,0,0,1-1.51,1,9.34,9.34,0,0,1-1.41.6,5.12,5.12,0,0,1-1.09.25.91.91,0,0,1-.3,0Z"/><path class="cls-14" d="M56.08,64.88a12.38,12.38,0,0,1,.92,1c.26.32.56.68.86,1.08.15.18.32.35.47.54l.09.11.16.12.33.24c.22.16.42.36.64.49s.42.29.62.43l1.1.83a12.91,12.91,0,0,1,1,.91A8.14,8.14,0,0,1,61,70.25a9.44,9.44,0,0,1-1.31-.6c-.23-.13-.48-.25-.72-.4s-.45-.31-.67-.47L58,68.53l-.16-.13a.94.94,0,0,1-.17-.2c-.18-.23-.34-.48-.49-.71a13.29,13.29,0,0,1-.62-1.29A8.37,8.37,0,0,1,56.08,64.88Z"/></g><g id="LinienMütze"><path class="cls-6" d="M42.83,3.17,38.27,6.94c-1.38,1.12-3,2.46-4.66,3.88-.86.7-1.69,1.48-2.58,2.23s-1.72,1.57-2.58,2.37a13.6,13.6,0,0,0-1.21,1.24,13.19,13.19,0,0,0-1.1,1.28c-.31.49-.65,1-.93,1.46l-.78,1.45c-1,2-1.9,3.82-2.63,5.44l-2.45,5.39s.67-2.28,1.94-5.61c.65-1.66,1.4-3.6,2.36-5.63l.78-1.55c.27-.52.6-1,.9-1.49A13.68,13.68,0,0,1,26.5,16a14,14,0,0,1,1.25-1.31c.89-.8,1.74-1.65,2.65-2.38s1.78-1.5,2.66-2.18c1.75-1.38,3.43-2.6,4.87-3.65s2.68-1.86,3.54-2.44S42.83,3.17,42.83,3.17Z"/><path class="cls-6" d="M44.5,27s0-.37-.1-1-.13-1.58-.19-2.7C44.08,21,44,18.06,44,15.08s.08-6,.2-8.19c.05-1.12.14-2,.19-2.7s.1-1,.1-1,0,.37.1,1,.14,1.58.19,2.7c.13,2.23.22,5.21.22,8.19s-.08,6-.2,8.19c-.05,1.12-.14,2-.19,2.7S44.5,27,44.5,27Z"/><path class="cls-6" d="M47.17,3.17l1.32,1c.83.63,2,1.52,3.41,2.64s3,2.44,4.68,3.91c.83.75,1.7,1.51,2.55,2.32s1.72,1.62,2.51,2.55c.4.47.8.89,1.18,1.41l1,1.47c.58,1,1.18,2.06,1.67,3.06,1,2,1.87,3.89,2.61,5.52s1.27,3,1.67,4l.59,1.53-2.77-5.25c-.81-1.58-1.81-3.41-2.88-5.35C64.17,20.91,63.56,20,63,19l-1-1.46c-.32-.43-.75-.86-1.12-1.3-.74-.89-1.64-1.68-2.43-2.52L56,11.33c-1.63-1.51-3.13-2.94-4.46-4.13Z"/></g></svg>