<svg id="Ebene_11" data-name="Ebene 11" xmlns="http://www.w3.org/2000/svg" xmlns:xlink="http://www.w3.org/1999/xlink" viewBox="0 0 1280 800"><defs><style>.cls-1{fill:#252a35;}.cls-2{fill:url(#linear-gradient);}.cls-3{mask:url(#mask);}.cls-4{fill:#e2f0f3;}.cls-5{fill:#fff;}.cls-6{fill:#7694a1;}.cls-7{fill:#a9bec4;}.cls-8{fill:#6d8893;}.cls-9{fill:#607980;}.cls-10{fill:#d1e0e2;}.cls-11{fill:#7a8a8e;}.cls-12{fill:#6b8f99;}.cls-13{fill:#628189;}.cls-14{fill:#405d64;stroke:#252a35;stroke-miterlimit:10;stroke-width:2px;}.cls-15{fill:#bfcccc;}.cls-16{fill:#67757b;}.cls-17{fill:#729a9e;}.cls-18{fill:#5e6a70;}.cls-19{fill:#717f82;}.cls-20{fill:#59767b;}</style><linearGradient id="linear-gradient" y1="400" x2="1280" y2="400" gradientUnits="userSpaceOnUse"><stop offset="0"/><stop offset="0" stop-color="#090909"/><stop offset="0.03" stop-color="#373737"/><stop offset="0.05" stop-color="#626262"/><stop offset="0.07" stop-color="#888"/><stop offset="0.1" stop-color="#a8a8a8"/><stop offset="0.13" stop-color="#c4c4c4"/><stop offset="0.17" stop-color="#dadada"/><stop offset="0.21" stop-color="#ebebeb"/><stop offset="0.26" stop-color="#f6f6f6"/><stop offset="0.33" stop-color="#fdfdfd"/><stop offset="0.53" stop-color="#fff"/><stop offset="0.63" stop-color="#fcfcfc"/><stop offset="0.7" stop-color="#f4f4f4"/><stop offset="0.75" stop-color="#e6e6e6"/><stop offset="0.8" stop-color="#d1d1d1"/><stop offset="0.84" stop-color="#b7b7b7"/><stop offset="0.88" stop-color="#979797"/><stop offset="0.92" stop-color="#707070"/><stop offset="0.96" stop-color="#444"/><stop offset="0.99" stop-color="#131313"/><stop offset="1"/></linearGradient><mask id="mask" x="-104" y="-34" width="1608" height="1055.4" maskUnits="userSpaceOnUse"><path class="cls-1" d="M619.17,348l.21,1c.14.66.33,1.63.54,2.88s.48,2.75.72,4.49.59,3.7.71,5.87a68.92,68.92,0,0,1,.38,7c0,2.47,0,5.07.11,7.73a36.31,36.31,0,0,0,.36,4c.07.31.1.66.19.95l.12.45c0,.14.1.25.15.38a.76.76,0,0,0,.15.27s.08.12,0,.07l.2.17.2.17.16.1a3.46,3.46,0,0,0,.34.21A14.1,14.1,0,0,0,627.5,385a30,30,0,0,0,4.13.55,19.35,19.35,0,0,0,4.1-.14,28.44,28.44,0,0,0,4-.8,15.71,15.71,0,0,0,1.88-.65,6.61,6.61,0,0,0,1.6-.88,1.5,1.5,0,0,0,.3-.26l.13-.13,0,0,0,0,0-.05.07-.11.28-.43a2.53,2.53,0,0,0,.16-.37c0-.12.11-.22.15-.36l.13-.44a6.55,6.55,0,0,0,.2-.91,41.31,41.31,0,0,0,.21-7.58c0-1.23-.08-2.45-.05-3.63,0-.59,0-1.18.11-1.77,0-.3.07-.58.14-.88l.19-.79c1-4.2,1.92-7.68,2.53-10.13s1-3.83,1-3.83-.21,1.42-.62,3.91-1,6-1.78,10.27l-.15.8c0,.23,0,.51-.08.77,0,.53,0,1.09,0,1.65,0,1.14.12,2.33.21,3.56a37.89,37.89,0,0,1,0,7.94,8.21,8.21,0,0,1-.21,1.08l-.14.55c-.05.19-.15.39-.23.59a5.59,5.59,0,0,1-.26.57l-.27.44-.07.11,0,.05-.07.1,0,0-.22.24a2.89,2.89,0,0,1-.47.43,11.77,11.77,0,0,1-4.12,1.94,30.3,30.3,0,0,1-4.32.9,21.17,21.17,0,0,1-4.49.18,31.9,31.9,0,0,1-4.4-.62,15.85,15.85,0,0,1-4.3-1.49,6,6,0,0,1-1-.72l-.2-.17-.08-.08,0,0-.06-.08-.12-.16a2.31,2.31,0,0,1-.36-.64c-.08-.2-.16-.41-.22-.6l-.14-.57c-.1-.38-.13-.74-.2-1.1a37.91,37.91,0,0,1-.28-4.2c-.06-2.73.06-5.34.15-7.81s0-4.77,0-6.91-.22-4.11-.31-5.86-.24-3.27-.36-4.52l-.26-2.91Z"/><rect class="cls-2" width="1280" height="800"/></mask></defs><title>Hintergrund</title><g id="Himmel"><g class="cls-3"><rect class="cls-4" x="-104" y="-34" width="1608" height="922"/><path class="cls-5" d="M178.73,70.18c9-2.25,32.5-.62,41.71,0,6.15.44,20,19.11,20,19.11s23.29-2.83,34.34,0C291.81,93.7,301.91,102,301.91,102c23-8.87,79.44,6.33,79.63,12.77.21,6.79-15.56,13.3-22,14.36-68.71,11.39-109.23,1.26-109.23,1.26s-41.09,10.82-60.54,10.13c-13.09-.46-31.29-7.8-33.34-7.8s-28-12-23.92-12.48c1.57-.17-67.86,3.27-73.44,3-11.25-.62-20.18-10.46-21.25-12.5-.74-1.4-3.61-21.94,38.13-18.75,4.76.36,45,1.29,46.24,1.29C125.65,93.19,163.23,74.05,178.73,70.18Z"/><path class="cls-5" d="M1125.58,32.21c7.65-3.82,31.46-7.73,34.18-8.37s25.12-17.68,35.44-20c9.5-2.1,29.94.27,39.12,3.22,6.66,2.14,23,14.17,23,14.17s33.09-8.43,44.48-7.33c9.19.88,20,3.25,24.79,9.9,8.92,12.41,16.39,27.72,4.06,37.87-14.91,12.29-70.8,2.7-70.8,2.7s-19.21,1.13-25.55,1.93c-9,1.15-26.64,6.59-35.79,6.44-11.57-.2-44.85-9.66-44.85-9.66s-23.17.47-30.73-.64c-7.77-1.14-22.52-5.15-23.53-11.72C1098.7,46.06,1121.4,34.29,1125.58,32.21Z"/><path class="cls-5" d="M591.34,212.8c11.44-3.74,44.76-5.45,56.75-3.32,9.78,1.74,46.46,14.17,46.46,14.17s43.68-8.29,56.41-6.71c10,1.24,32.54,2.11,41.71,4.36,10.06,2.47,33.94,4.15,35,10.1,1.64,9.62-45.91,14.85-64.35,16.9-13.33,1.48-51.38.25-51.38.25s-38.08,6.69-51,8.35c-7.85,1-66.37,2.38-74.74-4.9-2.8-2.44-36.47,3.95-68.37,5.1-23.59.85-48.26-2.56-48.13-7.25.24-8.86,19.62-18.39,41.6-21.16,28.65-3.62,61.68.86,62.13-1.15C574.68,221.7,580.12,216.47,591.34,212.8Z"/><path class="cls-5" d="M122.08,234.46c9.53-2.57,34.48-.72,44.26,0,6.52.51,21.18,21.89,21.18,21.89s24.71-3.24,36.43,0c18.11,5,28.83,14.46,28.83,14.46,24.45-10.17,84.29,7.25,84.5,14.63.22,7.77-16.51,15.23-23.31,16.45-72.9,13-115.9,1.44-115.9,1.44s-43.59,12.39-64.23,11.6c-13.88-.53-33.2-8.94-35.37-8.94S68.8,292.25,73.08,291.75c1.67-.2-72,3.74-77.92,3.39-11.94-.72-21.41-12-22.55-14.32-.78-1.61-3.83-25.13,40.45-21.48,5.05.42,47.79,1.48,49.06,1.47C65.76,260.81,105.63,238.89,122.08,234.46Z"/><path class="cls-5" d="M928.18,168.5c6.93-2.95,28.48-6,30.94-6.47s22.74-13.65,32.08-15.42c8.6-1.62,27.1.21,35.42,2.49,6,1.65,20.83,10.94,20.83,10.94s30-6.51,40.27-5.66c8.32.68,18.12,2.51,22.45,7.65,8.07,9.59,14.83,21.42,3.68,29.25-13.49,9.49-64.09,2.08-64.09,2.08s-17.39.87-23.13,1.49c-8.19.89-24.12,5.09-32.4,5-10.47-.15-40.6-7.46-40.6-7.46s-21,.36-27.82-.5c-7-.88-20.39-4-21.29-9.06C903.86,179.2,924.4,170.11,928.18,168.5Z"/><path class="cls-5" d="M1012.75,298.14c-23.8,0-50.53,21.41-50.53,21.41S882.92,306.27,881.58,339c-.54,13.21,51.82,10.54,51.82,10.54,23.68,24.94,79.35,6,79.35,6,30.65,17.88,68.1-7.56,68.1-7.56,44.58,4.18,68.26-4.67,68.71-11.34,1.46-21.62-76.79-16.63-76.79-16.63S1048.42,298.14,1012.75,298.14Z"/><path class="cls-5" d="M460.36,368c7.36-2.94,28.89-4,36.67-2.15,6.35,1.52,30.19,12.05,30.19,12.05s28.16-6.34,36.42-4.92c6.46,1.11,21.07,2,27,4,6.53,2.12,22,3.74,22.7,8.6,1.16,7.88-29.54,11.67-41.44,13.16-8.61,1.08-33.22-.31-33.22-.31s-24.56,5.08-32.91,6.32c-5.06.75-42.9,1.28-48.39-4.75-1.84-2-23.55,2.86-44.16,3.48-15.25.46-31.23-2.58-31.2-6.4.07-7.24,12.51-14.83,26.69-16.87,18.49-2.67,39.9,1.32,40.17-.32C449.67,375.12,453.14,370.89,460.36,368Z"/><path class="cls-5" d="M678.22,19.31c12,0,25.41,12.39,25.41,12.39S743.49,24,744.17,43c.27,7.65-26.05,6.1-26.05,6.1-11.91,14.44-39.89,3.5-39.89,3.5C662.81,62.91,644,48.19,644,48.19c-22.41,2.42-34.32-2.7-34.54-6.56C608.7,29.11,648,32,648,32S660.29,19.31,678.22,19.31Z"/><path class="cls-6" d="M-14.78,419.63C14.05,387.5,115.15,393,155.84,393.22c63.2.36,185.86,47.09,249,43.89,94.92-4.82,157-52.71,173.31-52.06,30.37,1.2,80.11,3.67,110.51,3.84C711.33,389,838,452.49,926.8,454.31c43.28.89,123.2-48,166.49-47.59,63.93.62,209.89,21.28,244.49,75.07,46.78,72.72,49.32,285.27-12.55,345.65-247,241-1146.31,269.91-1380,16C-126.83,765.14-85.83,498.84-14.78,419.63Z"/><path class="cls-7" d="M0,432.42l63.86-21.73,70.64-8.05s84.34,5.13,82.5,4.37-42.75-14.25-146-8.5C51.78,399.57,8.49,409-1.37,417-4.37,419.46,0,432.42,0,432.42Z"/><path class="cls-7" d="M-.67,446s84.93-28.43,114.46-31c17.06-1.47,68.21,6.31,68.21,6.31l94.4,17.46L187.5,429S121,426.5,99,428.5C55.77,432.42.67,456,.67,456Z"/><path class="cls-7" d="M295.82,448s48-1,64-1.64c16.88-.63,50.92-.08,67.5-3.33,19.11-3.75,55-12,73.42-18.44,14.6-5.08,59.67-26.41,59.67-26.41S532.44,420.54,506,430c-25.41,9.08-64.85,20.36-101.64,25.28-20.75,2.78-56.44,3.35-83.7-2.12C314.44,451.9,295.82,448,295.82,448Z"/><path class="cls-7" d="M0,467s62.83-23.27,84.79-26.64c7.54-1.16,22.93-.87,30.5,0,9,1,35.2,8.24,35.2,8.24L97,450l-29.26,6L-.67,483.5Z"/><path class="cls-7" d="M168,447s28-2.08,37.27-1.64c17.15.81,51.14,6.36,68,9.51,14.47,2.7,42.79,11.08,57.31,13.43,16.4,2.66,49.57,5.95,66.19,6.06,15,.1,37.13-3.71,49.54-4.42,13.38-.77,53.6.83,53.6.83S464.46,481,390,487.4c-17.38,1.5-69.34-7.88-69.34-7.88L168,449.91Z"/><path class="cls-7" d="M489.67,502s-50,.33-56.33,1c-2.24.24-46.83,3.67-56,2.4-5.5-.76-70-13.37-75.5-11.71s-58.26-2.86-58.26-2.86L336,515.75,393,518Z"/><path class="cls-7" d="M188.27,480.22s-42-16.55-50.4-16.35c-3.42.08-39.78,1.28-52.87,3.33-25.75,4.05-85,30.91-85,30.91l-.67,10.57S55.77,481,103,475.25c9.16-1.11,36.88-1.57,36.88-1.57Z"/><path class="cls-7" d="M0,522.86c10.15-12.7,45.27-19.09,61.33-21.58,13.27-2.06,53.71,3.14,53.71,3.14C70.25,506-3.33,551.18-3.33,551.18S-4.49,528.42,0,522.86Z"/><path class="cls-7" d="M150.49,507.5s55.81,0,74.3,1.86c28.34,2.86,83.79,17.49,112.17,20,17.39,1.54,52.4,1,69.83,0,15-.88,45-3.39,59.5-7,14.18-3.52,47.45-11.74,60.67-17.94,69.3-32.51,78.14-27.92,78.14-27.92s-22.21,19.58-37.36,27.92c-6.58,3.62-25.49,8.92-81.74,27.92-26.59,9-84.52,16.31-112.47,16-49.3-.61-194-35.3-194-35.3Z"/><path class="cls-7" d="M110,534.33s-41.68,3.76-54.87,8C44.63,545.75,16,562.75,16,562.75L-8.67,574l7.32,21L28.5,572l53-28.5Z"/><path class="cls-7" d="M125.46,534.22s22.29-4.46,29.83-4.86c7.25-.38,21.79.73,29,1.61s21.43,3.78,28.5,5.39c7.58,1.72,22.44,6.38,30,8,12,2.56,48,7.69,48.46,8.59s47.06,8.09,62,13.41c6.42,2.29,24.14,12.67,24.14,12.67L261,558.26Z"/><path class="cls-7" d="M390,579.5c3-.87,26.29-16.81,28.29-15.47s43.13-9.5,57-14.33c12.52-4.37,36.41-16.16,49-20.33C535.35,525.7,573,519.21,573,519.21S529.75,545,490.69,558.45C456.44,570.24,390,579.5,390,579.5Z"/><path class="cls-7" d="M-.67,624.5s54.42-44.45,74.88-55.64c11.86-6.49,37-18.82,50.55-19.17,9.33-.24,26.72,8.37,35.54,11.42,13.42,4.63,53.25,19.67,53.25,19.67l-63-8.9-32-.88-37,10s-23.27,11.73-30.83,16c-19.42,11-54,39.5-54,39.5Z"/><path class="cls-7" d="M253.7,589.74s88.42,9.83,93.51,10,48.55,1.87,64.58,0c10.89-1.27,42.71-10,42.71-10l81.43-19.89s-73.93,36.81-123.52,40c-21.94,1.4-42.16,7.34-87.89-3.44C306.82,602.2,253.7,589.74,253.7,589.74Z"/><path class="cls-7" d="M559.26,554.59c2.64,1.59,69.06-42.69,94.91-50.18,14.2-4.12,42-6.68,56.64-5,7.41.83,21.87,4.68,29.08,6.58,12.53,3.31,34.45,5.48,42.11,15.94,2,2.73,7.5,12.64,7.5,12.64L743,515.9s-51.86-8.74-68.63-4.9C637.25,519.5,559.26,554.59,559.26,554.59Z"/><path class="cls-7" d="M807.66,540l57.84,2.5s30.25.3,34,0c2.49-.2,62-18.5,65-18s17.18-2.59,17.18-2.59S927.56,552,907.5,555.52c-18.87,3.3-57.73-1.65-76.37-6C825,548,807.66,540,807.66,540Z"/><path class="cls-7" d="M1081.25,492.5a130.66,130.66,0,0,1,21.75-.23c12.07.73,36.24,3,48,5.84,14.22,3.39,41.29,14.79,55,19.89,19.9,7.4,79.34,30.3,79.34,30.3l-3.3,11.26s-70.95-29.15-95-37.66c-21.11-7.45-85.49-26.57-85.49-26.57Z"/><path class="cls-7" d="M802.61,508.7S853,517.87,870,518c9.57.07,38-4.65,38-4.65L961.15,501l-79.27,27.77Z"/><path class="cls-7" d="M821.71,456s8.69-3.81,11.79-4c4.72-.25,15.5,3.47,18.5,4s13.26,2,29.88,3,36.62,2.89,36.62,2.89l15.33-3S889.2,469.71,874,469.72C852,469.75,821.71,456,821.71,456Z"/><path class="cls-7" d="M1004.28,438.8s33.44-11.08,45.07-11.8c10.23-.63,30.47,4.2,40.65,5.42,9.49,1.14,28.67,2,38,4.08,15,3.34,43.67,14.53,58,20,9.48,3.62,37.43,15.72,37.43,15.72L1109.58,441.3l-60.23-8.88Z"/><path class="cls-7" d="M1007.62,476s19-16.9,26.88-19.49c13.54-4.46,42.87-2.34,57-.51,10.54,1.37,30.83,8.11,41,11.2,15.26,4.63,45.85,13.9,60.5,20.2,11.27,4.85,43.3,23.12,43.3,23.12S1124.11,469.84,1085,463.86c-8.8-1.34-33.28-.14-35.63,0S1007.62,476,1007.62,476Z"/><path class="cls-7" d="M1065,418.67s26.05-7.27,35-7.78c7.92-.45,30,3.17,31.5,3.89s51.69,10.26,68.5,15.31c14.56,4.37,56.71,21.95,56.71,21.95L1119,420.62Z"/><path class="cls-7" d="M967.13,561.23l41.23-22.51S1040,518,1052,514.89c8.12-2.07,25.16-.79,33.5,0a261.08,261.08,0,0,1,36.46,7c10.86,3.19,31.78,12,42,16.81,16,7.42,62.18,33.09,62.18,33.09S1141,537.5,1093.5,530.5c-6.44-1-26-1.73-26-1.73s-17.29.92-23,1.73C1017.25,534.33,967.13,561.23,967.13,561.23Z"/><path class="cls-7" d="M910.2,589.59s-19.46-8.13-26.2-10.09c-16.29-4.74-64.5-13-66.5-13.5s-64.7-29.69-88-31.67c-6.16-.52-24.34,4.38-24.34,4.38s41.42,6.09,54.8,10.4c18.32,5.91,71,32,71,32l38.57,13.51Z"/><path class="cls-7" d="M674.38,541.34s-35.44-.2-46.85,2.52c-15.88,3.79-44.66,20.13-59.77,26.31S521.76,586,507.17,593c-10.68,5.13-40.78,24.14-40.78,24.14S545,594,591,571.81C611,562.15,674.38,541.34,674.38,541.34Z"/><path class="cls-7" d="M358.52,625.26s-73-17.74-97.73-21.41c-7.73-1.15-26.2-2.84-31-4.14-2.63-.71-39-4-52-4.36-11.37-.28-35.72-5.81-45.5,0-1.1.65-2.46,4.5-2.46,4.5S182,600,229.38,608C261.5,613.38,358.52,625.26,358.52,625.26Z"/><path class="cls-7" d="M110,601.36s-8.84-5.54-12.21-6c-12.06-1.64-37.09,3.28-47.83,9-8.39,4.47-20.28,20-26.67,27.08-4.63,5.11-17.68,21.17-17.68,21.17s28.26-25.81,49.5-35.45C80.25,605.75,110,601.36,110,601.36Z"/><path class="cls-7" d="M9.23,678.38S49,633.64,66,623.62c7.51-4.43,24.71-9,33.33-10.26,13-2,39.38-.34,52.5,0,10.39.27,31.18,1,41.5,2.16a451.29,451.29,0,0,1,45,8.1C252,627.13,292,641.56,292,641.56s-105.79-16.35-141.38-17.2c-15.82-.38-47.75.86-63.12,4.64-9.61,2.36-28.44,9.3-36.83,14.56C39.2,650.75,24,660,9.23,678.38Z"/><path class="cls-7" d="M316.81,645s23.84-10.35,32.29-12c29.85-5.8,91.72,2.32,121.58-3.42,33.6-6.45,94.92-40.51,128.5-47.08,10-2,40.72-1.45,40.72-1.45L524.54,626.64s-63.79,18.71-113,20.05c-14,.38-41.75,1.45-56.13,1.43C353.39,648.12,316.81,645,316.81,645Z"/><path class="cls-7" d="M664,571.81s19.23-17.71,27.34-20.32c8.52-2.75,26.93-.74,35.8.51,13.48,1.9,40.72,7.58,52.55,14.32,10.93,6.23,36.14,35,36.14,35L748,571.81l-54.27-4.34Z"/><path class="cls-7" d="M853,611.13s21.81-1.49,28.88-3.16c9.07-2.14,33.49-10.95,35.62-11,2.5,0,90.12-37.44,90.12-37.44s27.69-14.71,37.88-16.22c11.07-1.64,34.21.56,44.5,5,4,1.72,9.5,10.2,9.5,10.2l-52.25-3.91-53.34,17.21-43.62,22.86-55.61,20.12Z"/><path class="cls-7" d="M1132.5,566.45s15.74-4,21-3.7c8.14.45,24.25,3.72,32,6.25,18.15,5.92,51.76,24.53,69.17,32.36,11,5,44.33,25.2,44.33,25.2l-29.48-11.76S1183.29,580.5,1132.5,566.45Z"/><path class="cls-7" d="M446.5,657.43s51-9.67,67.68-14.28c18.26-5.05,53.41-19.53,71.63-24.69,26.24-7.43,106.46-23.8,106.46-23.8l-83.58,34s-51.94,26.36-89,28.64C501.42,658.4,446.5,657.43,446.5,657.43Z"/><path class="cls-7" d="M794.16,614.79S850.24,628.15,868,628.5c25.25.5,57.5-6.71,59.5-6.86s49-11.83,49-11.83-55.16,22.44-74.35,27.36c-20.25,5.19-57.72-2.51-57.72-2.51Z"/><path class="cls-7" d="M1065,578.19l48.86,5.81s47.6,9.73,50.14,10.67c18.25,6.69,108,47.71,108,47.71s-97.3-34.4-136-44.87C1118.24,592.7,1065,578.19,1065,578.19Z"/><path class="cls-7" d="M915.37,657s74-43.16,100.63-53c8-3,24.81-7.28,33.35-7.5,27.16-.71,107.14,18.29,107.14,18.29s-61.49-11.29-108-4.51c-11.81,1.72-33.84,11.68-45,15.77-17.48,6.37-51.83,20.85-69.59,26.39C929.29,653.85,915.37,657,915.37,657Z"/><path class="cls-7" d="M858,660l-91-34.74s-48.8-20.13-65.82-18.52c-9.18.87-24.46,13-33,16.46-17.51,7.12-55.91,13.12-72,23-9.58,5.91-31.52,32.14-31.52,32.14l140.5-57.88Z"/><path class="cls-7" d="M545.43,681.07c-1.46.23-130.93-9.57-130.93-9.57H352l196.65,9Z"/><path class="cls-7" d="M322.39,669.68s-33.52-20.88-48.71-23.44C257,643.43,211,647,211,647Z"/><path class="cls-7" d="M118,641.27c-1.47.08-19.06-7.81-25.78-7.62-8.87.25-25.46,8.24-33.19,12.6-6.44,3.63-18.39,12.7-23.31,18.22-5.5,6.17-17.21,28.22-17.21,28.22s35.37-33.12,49.74-40.09C79.7,647,118,641.27,118,641.27Z"/><path class="cls-7" d="M45.53,695.53S88,654.59,106.29,649.08c8.49-2.56,26.55,1.76,35.4,2.39,10.25.73,31.24-.16,41,3.06,6,2,25.32,17,25.32,17h-6.5S141.25,660,110,663.3C70.5,667.47,45.53,695.53,45.53,695.53Z"/><path class="cls-7" d="M73.74,706.06s8-18,12.94-22.12,18.07-7.93,24.5-9.08c10.58-1.9,32.61-2.75,43,0,10.1,2.67,36.32,20.68,36.32,20.68S134,686,115,687.09C85.25,688.77,73.74,706.06,73.74,706.06Z"/><path class="cls-7" d="M91.5,715s35.64-11.69,48-12.46c18.93-1.17,58.12,1.62,75.21,9.84,5.24,2.52,16.77,16.13,16.77,16.13s-39-13.11-85-14.24C133.07,713.92,91.5,715,91.5,715Z"/><path class="cls-7" d="M224.56,708.94s31.34-33.3,45.27-38.41c11.93-4.38,50.83,0,50.83,0s-18.16,1-56.5,16.12C253.6,690.85,224.56,708.94,224.56,708.94Z"/><path class="cls-7" d="M236.15,728.49s17.32-30.82,27-36.49c18-10.49,62.06-20.44,82-14.45,3.36,1,10.19,9.64,10.19,9.64s-31.62-4.44-77,11.5C255.94,706.58,236.15,728.49,236.15,728.49Z"/><path class="cls-7" d="M432.44,697.46s53.34-7.33,71.25-8.31c20.69-1.13,82.87.59,82.87.59L533.5,703.9Z"/><path class="cls-7" d="M654.17,662.24s40.91-26.55,56.64-28.59c11.37-1.48,33.81,6.49,44.87,9.51,12.85,3.51,37.69,13.32,50.5,17,13.09,3.75,40.41,7.41,53,12.61,6.15,2.54,22.69,13.91,22.69,13.91L853,684.56l-91.2-27.13-56.63-7.66Z"/><path class="cls-7" d="M927.5,678.38l98.86-36S1068,628,1082.5,626.74c16.26-1.46,63.5,5.92,65,6.34s71,8.66,73,9.29S1265,659.66,1265,659.66L1099.5,637.18,1062,641.5Z"/><path class="cls-7" d="M978.21,685.81s59.46-32.08,81.25-36.78c13.44-2.9,41.3-1.22,55,0,15.69,1.4,46.73,7.29,62,11.12,12.67,3.18,40.28,13.72,40.28,13.72s-96.09-10-128.25-9.87c-13,.07-51.69,4.5-51.69,4.5Z"/><polygon class="cls-7" points="933.83 698.29 881.88 700.31 807.66 689.75 756.75 685.36 881.88 710.08 933.83 698.29"/><path class="cls-7" d="M729.5,681.08S699.67,667.9,689,668c-14.24.09-41.46,11.4-53.95,18.25-9.07,5-32.26,25.9-32.26,25.9l9.17,1.67s31.68-15.58,42.23-19.68C700,676.29,729.5,681.08,729.5,681.08Z"/><path class="cls-7" d="M658.21,724.24s-8-6.32-7.58-9.27c1-6.6,16.1-12.27,22.35-14.6,12.53-4.65,39.62-7.51,53-7.08,9,.29,27.16,3.57,35.5,7.08,7.82,3.29,28,16,28,16s-44.73-7.87-60-8.45c-11.5-.44-40.85,5.76-40.85,5.76Z"/><path class="cls-7" d="M836.81,726.73s35.43-4.09,47.15-6c35-5.76,139-28.07,139-28.07l-95.5,33.18L885.32,733Z"/><path class="cls-7" d="M1055.52,688.2s20.71-12,28.45-13.34c28.29-5,106.42,15.07,106.42,15.07s-74.43-3-101.89-2.46C1080.25,687.64,1055.52,688.2,1055.52,688.2Z"/><path class="cls-7" d="M706.09,733.37c2.44-9.18,27.89-6.28,37.37-6.9,12.4-.8,47,2.5,49.5,4.5s48.49,11.22,64.84,14c16.82,2.86,67.51,10,67.51,10L952,749.5s-26.94,12.81-36.63,12.76c-54-.26-107.7-12.25-107.7-12.25s-40.34-7.86-53.66-11c-19-4.5-37.75,2.5-37.75,2.5S705.15,736.89,706.09,733.37Z"/><path class="cls-7" d="M987.84,740.53s26.76-29.7,38.63-35.12c9.73-4.44,31.82-4.41,42.5-5,13.59-.8,41.15-2.95,54.44,0,8.1,1.8,30.1,14,30.1,14s-36-8.16-88.5,3c-15.59,3.32-59.84,17.07-59.84,17.07Z"/><path class="cls-7" d="M790.86,770.13s38.24-2.64,50.9-1.27c17,1.83,66.24,16.22,66.24,16.22s-65.75,1.88-80.2,0C824.72,784.67,790.86,770.13,790.86,770.13Z"/><path class="cls-7" d="M978.21,772.39s50.14-24.89,67.6-31.41c16.38-6.12,63.77-17.36,67.65-17.79,3.08-.34,30-3.5,30-3.5,4.15,9.81-46.85,24.82-46.85,24.82L995.17,770.13Z"/><path class="cls-7" d="M898,799.34s94.82-21,127-24.27c17-1.73,68.16-1,68.16-1l-120,21.28L943.31,800Z"/><path class="cls-7" d="M1132.5,760s23.07-23.36,31.31-30.56c9.34-8.15,38.45-28.35,40.16-29.07,31.28-13.18,68.08-22,68.08-22l-61.55,43.83-54,29.44Z"/><path class="cls-7" d="M1089,799.34s41.67-22.24,56-28.81c12.13-5.58,47.21-19.2,49.86-19.13s37.18-9.65,37.18-9.65l-35.4,24.93-64.1,25.73L1102.2,803Z"/><path class="cls-7" d="M1188.24,800.5s34.63-35.89,48.06-45.57c7.76-5.6,33.77-18,33.77-18l-42.16,41.7Z"/><path class="cls-7" d="M1240.15,799s5.77-16,8.1-19c1.59-2,29.15-21.47,29.15-21.47l-24.56,31.62Z"/><path class="cls-7" d="M292,721.12s37.81-23.69,52.18-26.36c12.8-2.38,39.07,2.56,51.82,5.21,18.63,3.87,72.5,23.17,72.5,23.17L376.31,711.8l-45-2.85Z"/><path class="cls-7" d="M295.25,754.93s19.93-27.38,29.93-31.73c9.05-3.94,38-.27,39.5,0s60,19.82,60,19.82-65.55-11.9-87-7.79C322.39,738.15,295,753.81,295,753.81Z"/><path class="cls-7" d="M350.52,758.34s21-14.47,28.66-15.75c9-1.5,32,5.73,35.51,8.8s3.84,10,3.84,10l-43.13-6.51Z"/><polygon class="cls-7" points="347.92 770.13 385.51 768.36 412.72 769.24 370.63 776.67 347.92 770.13"/><path class="cls-7" d="M1.85,742.6c26.27-25,108.78-17.27,144.55-11.4,5.79,1,21.6,9.24,21.6,9.24s-84.22,6.58-112.17,10c-36.33,4.48-59.17,11-59.17,11S-1.69,746,1.85,742.6Z"/><path class="cls-7" d="M.67,786.67,145.22,762H173.5s-21-6.18-28.28-7.07c-8.74-1.08-26.44-.7-35.22,0-24,1.91-71.2,11.74-95,15.2-4.57.66-18.33,2.39-18.33,2.39Z"/><path class="cls-7" d="M57.81,800c2.69,0,54-23,73.22-24.93,12-1.24,37.37.61,47.94,6.47,3.19,1.77,9.3,11.21,9.3,11.21l-43-2.47-56.72,6Z"/><path class="cls-7" d="M298,790.15h2s17.17-3.94,23-3.53c10.83.76,40,12.06,41.53,12.72s-26.83,6.77-26.83,6.77Z"/><path class="cls-7" d="M454,788s68.5-42.56,93.47-51c8.53-2.89,26.56-6.16,35.56-5.8,11.95.47,35,7.81,46.44,11.4,9.6,3,28.13,11,37.55,14.57,10.8,4.08,33.82,9.44,43.34,16,6,4.1,19.14,21.76,19.14,21.76S649,762.08,621.5,753c-11.21-3.7-34.57-9.48-46.37-9-12.61.5-48.63,13.52-48.63,13.52l-74.21,32.65Z"/><path class="cls-7" d="M527,794.9s19.69-22.52,28.75-25.92c7.41-2.78,30.54.52,31.65,0s31.39,3.92,41.1,7.78c10.29,4.09,25.76,22.57,25.76,22.57l-61.23-18-26.39-.15Z"/><path class="cls-7" d="M613.39,465s-10.31-9.56-11.14-13c-.7-2.89,6.83-11.6,6.92-14.65.11-4-4.71-15.08-4.71-15.08s7.37,8.56,7.37,17.53c0,2.74-3.15,10.51-3.15,10.51Z"/><path class="cls-7" d="M633.91,470.06s9.36,5.84,11.15,8.52c1.42,2.12,1,9.85.13,12.25-1.15,3.13-2.64,6.8-5.29,8.82-2.8,2.13-13.25,4.77-13.25,4.77L638.2,485.9Z"/><path class="cls-7" d="M708.83,442.83c-8.1-5.48-18.82-4.16-22.93-7C674.18,427.73,674.55,422,674.55,422s5.55,6.75,13.78,9.49c4,1.34,9.18.73,12.67,2.17,19.83,8.18,17.7,27.89,17.7,27.89S713.87,446.24,708.83,442.83Z"/><path class="cls-7" d="M635.43,437.35a42.91,42.91,0,0,1,4.71,19.31c-.08,4-8,13.84-8,13.84s4.69-10.44,4.17-17.18"/><path class="cls-7" d="M705.95,486.27s-17.23-9.81-19.28-14.61c-1.95-4.54-.67-14.33-7-21-3.7-3.87-16.48-2.33-20.29-6.83-4.67-5.5-5.81-15-5.81-15,1.15,4.33-2,12.33,1.57,17.46,5,7.1,16.34,5.71,19.28,9.77,9.43,13,2.37,19.47,5,20.57C702.06,486.16,705.95,486.27,705.95,486.27Z"/><path class="cls-7" d="M694,409s17.6,3.93,23.09,6.32c2.62,1.14,7.93,3.78,9.74,6s2.71,8.44,4,11.09c2.23,4.5,9.33,14.67,9.33,14.67l-8.78-5.31-8.79-18.1-4.56-4.16-7.37-3.77L700,411.28Z"/><path class="cls-7" d="M707.09,396.15s9,3.34,11.68,5.11c2.33,1.56,5.83,7.78,8.09,9.44,2.88,2.13,9.4,3.53,12.64,5.06,4.16,2,17,7,17,7l-20.42-3.33L724,413.09l-13.86-15.38Z"/><path class="cls-7" d="M520.33,461.56S544.64,449,549.17,440.5c1.55-2.9,1.94-10.43,3.13-13.5,2.23-5.74,16.61-18.19,16.61-18.19s-9.71,13.63-11.21,18.92c-.87,3.06,1.38,10-.24,12.74C552,449.64,520.33,461.56,520.33,461.56Z"/><path class="cls-7" d="M544.62,476.5s20.18-15,26.6-20.83c3.2-2.9,10-8.61,11.88-13,1.95-4.71,2-22,2-22s4.57,21.69,1.43,27.94C580.9,459.82,544.62,476.5,544.62,476.5Z"/><path class="cls-7" d="M768,463.25s75.7,23.5,76.35,24,36.91,3.91,37.53,3.58,39.37-7.08,39.37-7.08S894.7,501.88,854.34,500C821.71,498.5,768,463.25,768,463.25Z"/><path class="cls-8" d="M0,432.42s25.56-4.74,34-6.7c10.31-2.4,30.51-9,40.91-11,12.5-2.4,37.83-5.76,50.55-5.94,16.57-.23,49.51,4.62,66,5.94,13,1,48.81,2.85,59.95,0s-12.39-5.19-12.39-5.19l-91.56-6.93-60.36,4.11-68.67,17Z"/><path class="cls-8" d="M-.67,461.55S42.13,445,55.77,441.3c17.46-4.8,68-13.57,68-13.57l-49.55,4.69-34,8.81L.67,456Z"/><path class="cls-8" d="M48.67,463.67s55.69-7.47,74.37-7.16c25.59.43,76.25,9.14,101.52,13.22,14.7,2.37,43.68,9.84,58.5,11.26,11.06,1.05,44.42,0,44.42,0L178.88,452c-2.78-.54-61.57-4.64-81.88-2C84.55,451.61,48.67,463.67,48.67,463.67Z"/><path class="cls-8" d="M118,428.28s29,4.89,32.53,5.85c13.38,3.68,41.69,3.18,55.48,4.67,17.88,1.93,68.82,10,70.42,11.26S351,462,373.26,461.55c25.79-.52,70.93-2.88,95.24-11.49,20.28-7.18,73.53-37,73.53-37s-75.65,38.78-172.36,42.26C338.67,456.43,261.58,440,249,436.5c-7.45-2.1-93.25-9.5-93.25-9.5Z"/><polygon class="cls-8" points="0 514.89 38.36 492.27 -0.67 508.68 0 514.89"/><path class="cls-8" d="M57.81,485.61s25.28,1.12,33.69.66c7.94-.43,23.59-4.3,31.54-4.09,9.78.27,28.79,5.69,38.46,7.15,13,1.95,39.09,4,52,6,10.1,1.53,30.32,4.84,40.16,7.58,42.11,11.73,82.3,12.83,82.3,12.83s-98.81-25.26-106.07-26.42c-4-.64-69.52-14.16-92.07-15.3-11-.56-33.16.91-44.07,2.58C84.63,478,57.81,485.61,57.81,485.61Z"/><path class="cls-8" d="M384.26,522.45s51.51-1.51,69.32-4.24c14.25-2.18,49.86-13,63-18.93,23.93-10.83,50-32.11,50-32.11s-55.48,29.55-87.34,38.07c-13.87,3.71-55.67,14.1-55.67,14.1l-21.65,2.47Z"/><path class="cls-8" d="M5.62,545.93s51.52-20.67,69.3-24c12-2.27,36.6-3.81,48.86-3.91,15.25-.12,84.23,1.59,84.23,1.59s-47.72-10.88-57.51-12.09-39.73-4.41-43.69-3.08S50.67,521,50.67,521Z"/><path class="cls-8" d="M.67,601.36s103-69.13,80.83-57.86c-7.76,4-78.17,42.54-82.17,51.17C-1.38,596.21.67,601.36.67,601.36Z"/><path class="cls-8" d="M161.5,538.32s55.67,20.77,74.65,26.37c16.89,5,51.11,13.61,68.51,16.28,16.11,2.46,50.7,5,65,5,28.32,0,43.05-7.2,43.05-7.2s-64.05-4.13-68.05-4.13S231.5,552,231.5,552Z"/><path class="cls-8" d="M466.39,566.31s45.78-7.75,60.58-12.15c12.81-3.81,100.55-53.49,109.6-63.32,4.66-5.07-2.14-12.24-2.14-12.24S554.86,534.29,511.7,550.1C500.4,554.24,466.39,566.31,466.39,566.31Z"/><polygon class="cls-8" points="0 645.4 21.26 617.16 -0.67 634.67 0 645.4"/><path class="cls-8" d="M78.23,582.65S102.06,581.34,110,581c8.8-.42,26.41-1.78,35.22-1.46,14.45.52,43.07,5.07,57.45,6.54s57.46,5.24,57.46,5.24l-102-18.85L118.5,571Z"/><path class="cls-8" d="M569.88,554.15s62.78-20.63,84.35-24.87c14.06-2.77,42.69-6,57-5.83,11.47.15,34,5.22,45.5,5.83,6,.32,23.92-.51,23.92-.51l-66.77-18.26L635.43,521Z"/><path class="cls-8" d="M807.68,542.8S841,559.27,853,562.18c13.93,3.38,42.95,5.68,57.2,4.13,13.21-1.44,40.16-7.37,50.95-15.13,7.25-5.22,20.53-29.27,20.53-29.27s-47.26,30.46-76.43,34.69C865.27,562.4,807.68,542.8,807.68,542.8Z"/><path class="cls-8" d="M936.26,479.47s41.42-5,54.41-9.74c14.62-5.31,54-30.92,54-30.92l-16.51-3.38-61,25.45Z"/><path class="cls-8" d="M837.5,465s29.59,10.53,44.38,11.28c13.41.68,49.1-3.51,61.43-8.82,7.74-3.34,26-21.48,26-21.48s-20.72,8-27.84,10c-13.79,3.9-45.24,13.21-59.57,13.77C868.51,470.29,837.5,465,837.5,465Z"/><path class="cls-8" d="M1196.67,417.48s43.88,9.52,57.84,14.79c6.69,2.53,30.83,11.39,30.83,11.39s-31.12-2.32-39.41-4.87C1233.1,434.85,1196.67,417.48,1196.67,417.48Z"/><polygon class="cls-8" points="1143.74 427 1223.43 442.9 1279 458.2 1279 471.91 1240.15 461.92 1143.74 427"/><path class="cls-8" d="M1132.5,450.06s23.46,16.07,32.17,19.67c12.44,5.13,48.16,11.46,52.08,13.53s53.33,7.58,53.33,7.58-3.32-4.89-5.1-5.46c-38.81-12.32-85.49-27-114.72-33C1145.88,451.44,1132.5,450.06,1132.5,450.06Z"/><path class="cls-8" d="M823.49,491.77c-5.32,2.5,18.26,17.73,41.84,18.75,25.3,1.09,55.91-21.76,55.91-21.76S893,500.4,866.75,500.9C848.68,501.24,827,490.12,823.49,491.77Z"/><path class="cls-8" d="M894.68,527s50.39-6.95,66.47-12.12c15.32-4.92,43.17-21.71,58.19-27.49,12.51-4.81,38-14.22,51.33-15.49,14.68-1.4,58.67,6.06,58.67,6.06s-47.64-17.49-64.34-18c-7.44-.21-29.07,6.34-29.07,6.34l-74.78,35Z"/><path class="cls-8" d="M1030.17,498.11s13.24,4.52,17.84,5.15c9.41,1.29,28.58-1.58,38-.35,27.37,3.59,79.44,23.58,106.42,29.42,10.86,2.35,43.88,6.92,43.88,6.92S1127.23,497.87,1089,492c-9.8-1.5-39.65.25-39.65.25Z"/><path class="cls-8" d="M1055.52,528.77l47.15,15.33,67.83,15.46,45.25,8.16s-84.18-28.18-87.59-29.41C1096.65,527,1055.52,528.77,1055.52,528.77Z"/><path class="cls-8" d="M986.9,551.33s-13.66,16.83-19.77,20.47S936.26,579,936.26,579Z"/><polygon class="cls-8" points="1254.26 548.25 1279 575.73 1282.04 559.56 1254.26 548.25"/><polygon class="cls-8" points="1258.77 586.04 1279 601.36 1279 594.67 1258.77 586.04"/><path class="cls-8" d="M980.12,579s41-19.63,55.8-22.43c13-2.47,39.87-1,53.07.38,6.71.68,26.48,5.2,26.48,5.2s-26.48,4.13-44.81,4.13c-4.11,0-33.35-1.62-44.31,0C1014.5,568.05,980.12,579,980.12,579Z"/><path class="cls-8" d="M888,596.48s-32.5,3.12-42.71,0C833,592.72,791.55,561,802.53,567.72,845,593.7,888,596.48,888,596.48Z"/><path class="cls-8" d="M683.63,539.25l-76.88,27.9s29.79-2.47,40.89-7.59C659.25,554.21,683.63,539.25,683.63,539.25Z"/><path class="cls-8" d="M460,601.36s-30.38,15.86-41.48,18c-16.34,3.11-52.1,6.14-66.51-2.17-1.68-1-24.32-11.11-22.48-10.5C378,622.54,460,601.36,460,601.36Z"/><path class="cls-8" d="M39.21,626.24s-14.34,22.38-20.73,28.42c-4,3.78-18.47,12-18.47,12l-.82-9.2S27.5,631.28,39.21,626.24Z"/><path class="cls-8" d="M211,608s35.91,10.24,48,13.76c10.76,3.13,41.65,11.73,43.66,11.73,16.38,0,35-9.64,35-9.64Z"/><path class="cls-8" d="M443.4,624s17.32.94,23,0a87.8,87.8,0,0,0,34.33-13.76Z"/><path class="cls-8" d="M1135.63,569.85s35.63,16.34,47.66,21.43c17.57,7.44,67.23,26.72,71,28.05s24.74,0,24.74,0-58.42-23.25-82.33-32C1162.23,574.85,1135.63,569.85,1135.63,569.85Z"/><path class="cls-8" d="M1014.4,591.28s29.86-11,40.33-11.78c8.05-.57,24.22,2.31,32,4.6,4.92,1.46,32.3,4.77,32.3,9.9,0,2.78-46.93-1.12-58-1.29C1049.33,592.53,1014.4,591.28,1014.4,591.28Z"/><path class="cls-8" d="M1240.15,631.26s14.23,6.77,18.63,9.62C1264.2,644.39,1279,657,1279,657l3-11Z"/><path class="cls-8" d="M1095.56,609.24l-49.27,1.11s-71.24,26.29-77,29.84c-28,17.25-87.41,20.66-87.41,20.66s12.79,10.1,23.71,10.1c14.91,0,52.21-16.1,64.76-21.56S1099.56,607.21,1095.56,609.24Z"/><path class="cls-8" d="M672.35,630.16c-3,1.1-18.13,21.68-25.35,25.79-2.2,1.25-26.08,8.46-31.47,9.82-8.78,2.2-40.53,8.3-40.53,8.3Z"/><path class="cls-8" d="M443.4,682s-23.88,5.93-32,5.44c-13.38-.8-51.4-15.22-51.4-15.22Z"/><path class="cls-8" d="M295.83,642.52S312,657.68,318.89,659.9c9.18,3,28.95-.15,38.56-.83,10.18-.72,40.54-4.88,40.54-4.88Z"/><path class="cls-8" d="M452.29,657.82S478.75,668.5,488.08,670c15.45,2.57,47.78,4.9,62.66,0C563.16,666,592.81,639,592.81,639s-31,14.34-42.07,16.57C526.61,660.42,452.29,657.82,452.29,657.82Z"/><path class="cls-8" d="M681.74,597.31s65.48,8.54,86.29,15.4c12.68,4.18,47.95,20.66,48.18,20.75,16,6.58,60.76,8.91,60.76,8.91s-93.65-31.12-125-41.17C708,587.09,681.74,597.31,681.74,597.31Z"/><path class="cls-8" d="M105.11,624.4l32.76,5.76s90.22,7.63,73.13,1.12C188.07,622.54,105.11,624.4,105.11,624.4Z"/><path class="cls-8" d="M21.91,664.55l-16.29,31s-9.12,9.36-8.95,6.58C-2.42,687.47,21.91,664.55,21.91,664.55Z"/><path class="cls-8" d="M7.06,707.62s34.72-25.23,45.05-35.08C57,667.88,69.66,652,69.66,652s-27.82,17.88-36,25.21C26.16,684,7.06,707.62,7.06,707.62Z"/><path class="cls-8" d="M31,712.81s23.28-7,30.71-12.2C70.69,694.25,89,668,89,668,55.77,675.74,31,712.81,31,712.81Z"/><path class="cls-8" d="M173.5,665.72c-10.75-1.61,32.48,15.79,39.65,17.87,8.3,2.4,34.39.21,34.39.21S192.67,668.59,173.5,665.72Z"/><path class="cls-8" d="M73.74,706.06l74-17.29s-43.12-2.07-56.27,3C86.17,693.78,73.74,706.06,73.74,706.06Z"/><path class="cls-8" d="M251.45,733c8.85-2.32,24.09-18.83,31.61-24,7.28-5,29.66-19.37,29.66-19.37s-32,5.5-48.39,15.42c-12.88,7.8-28.18,23.49-28.18,23.49S247.22,734.09,251.45,733Z"/><path class="cls-8" d="M438.85,698.29c-12.53-1,41.42,18.37,53.91,19.68,14.13,1.48,42.54-4.16,56.29-7.72,10.78-2.79,39.27-19.38,39.27-19.38C522.55,713.16,457,699.69,438.85,698.29Z"/><path class="cls-8" d="M670,657.42s42.1,4.34,55.91,7.12c16,3.23,47.35,13.18,63.55,15.29,13.45,1.75,54.22,1.24,54.22,1.24L726,647.43,690.15,651Z"/><path class="cls-8" d="M907.34,685.81c5.2-1.07,38-3.83,44.66-3.82s51.23-21.86,55.62-21.93,28.31-12.64,28.31-12.64-90.64,22.37-92.61,24.47S907.34,685.81,907.34,685.81Z"/><path class="cls-8" d="M1180.06,648.12c5,.67,38.13,13.69,43.37,14.12s27.23,1.44,27.23,1.44l10.43-4.55Z"/><path class="cls-8" d="M278.4,744.83,295.25,733s26.46-19.82,23.58-20.17S292,721.12,292,721.12l-19.39,19.41Z"/><path class="cls-8" d="M376.31,711.8s26.7,14.45,36.41,17c12.54,3.32,38.77,3.64,51.74,4.16,10.71.43,41.54-2.31,41.54-2.31l-87.48-14.14C408,714.83,376.31,711.8,376.31,711.8Z"/><path class="cls-8" d="M478.35,741.75s72.55-29.26,98.24-31.08c20.63-1.46,81.62,13.57,81.62,13.57s-61.24-6.72-81.62-5C551.48,721.25,478.35,741.75,478.35,741.75Z"/><path class="cls-8" d="M312.72,758.53,337.67,746l7.44-11.31-26.05,5.8s-26,14.34-24.07,13.28S312.72,758.53,312.72,758.53Z"/><polygon class="cls-8" points="424.67 743.02 452.99 754.26 466.38 748.62 424.67 743.02"/><polygon class="cls-8" points="336 765.72 364.56 763.03 401.7 758.9 360.1 754.93 336 765.72"/><path class="cls-8" d="M672.35,728.32s34.28-6.94,44.8-11.79c3.41-1.58,12.35-8.59,12.35-8.59l-47.76,5.84L661,723.14Z"/><path class="cls-8" d="M836.81,728.32s42.85,12.21,88.5-3c22.75-7.6,90.72-31.16,90.72-31.16s-18,16-28.2,18.67c-4.27,1.14-77.72,28.53-97.86,30.56-19.7,2-50-14.42-53.16-15Z"/><path class="cls-8" d="M1055.52,688.2s49.84,3.18,66.44,4.49c14,1.1,55.79,5,55.79,5s16.35-7.56,12.65-7.8C1099.5,684,1055.52,688.2,1055.52,688.2Z"/><path class="cls-8" d="M749.22,684s10.74,8.61,30.13,14.83c3.82,1.23,36.47,12.39,49.8,14,26.32,3.25,25-.73,65.52-2.82l-85.49-14.55Z"/><path class="cls-8" d="M1190.39,689.92l-54.76,44.8s-25.7,21.73-36.13,25.27c-16.43,5.57-69.34,3-69.34,3L1012,765.89s63.12-15.36,84.23-21.27C1132.09,734.58,1190.39,689.92,1190.39,689.92Z"/><polygon class="cls-8" points="832.33 786.95 858 797.88 893.14 785.91 832.33 786.95"/><path class="cls-8" d="M1089,777.18s-17.41,12.24-24,14.71c-10,3.74-31.39,6.25-42,7.11-17.69,1.44-77.09,0-77.09,0Z"/><path class="cls-8" d="M1175.47,743c18.51-3.37,54.79-16.06,70.46-26.49,7.93-5.28,20.68-19.94,26.12-27.76,2.55-3.67,8-16,8-16l-72.68,51.49-35,18.78A22.53,22.53,0,0,0,1175.47,743Z"/><path class="cls-8" d="M1115.48,798.37l72.76-27.6s-13.54,16.28-19.72,19.38C1156.53,796.17,1115.48,798.37,1115.48,798.37Z"/><path class="cls-8" d="M1272,734.5a26.69,26.69,0,0,1-1.78,2.4S1248.23,778,1236,787c-10,7.33-59.38,17.92-47.76,13.55C1245.92,778.76,1248.67,757.93,1272,734.5Z"/><path class="cls-8" d="M1280,760s-2.41,25.82-8,31.89c-5.69,6.24-31.9,11.13-31.9,11.13Z"/><path class="cls-8" d="M685.76,731.17s41.9,27.83,44.41,29.46,48.56,20.29,64,21.37c9.89.69,22-1.7,22-1.7Z"/><polygon class="cls-8" points="455.69 789.64 556.66 760 636.54 758.53 567.55 743.36 454 788 455.69 789.64"/><path class="cls-8" d="M225.76,726.73s62.67,44,87,50.46c16.46,4.36,73.46-.51,68.1-.51C334,776.67,225.76,726.73,225.76,726.73Z"/><path class="cls-8" d="M381.17,778.6s23.5,2.2,25.5,1.7c31-7.78,59.71-31.68,59.71-31.68Z"/><path class="cls-8" d="M206,721.12s-35.94.32-47.93.26c-29.41-.14-117.64-1.76-117.64-1.76s90.83-6.46,121.08-4.91C172.72,715.29,206,721.12,206,721.12Z"/><path class="cls-8" d="M55.83,750.45S155.38,736.8,188,743c17.92,3.42,65.75,29.37,65.75,29.37s-53.24-18-70.7-20.47C150.93,747.32,55.83,750.45,55.83,750.45Z"/><polygon class="cls-8" points="283.06 784.9 295.83 803 327.48 806.11 283.06 784.9"/><polygon class="cls-8" points="-0.67 803.02 66.67 772.39 0.67 786.67 -0.67 803.02"/><path class="cls-8" d="M208,770.46,236.15,803s26.14,1.71,22.86-3C244.18,778.6,208,770.46,208,770.46Z"/><path class="cls-8" d="M565.56,400s-1.07,7.52,0,8.81c4.14,5,23.57,8,24.76,8.07s27.89-14.25,27.89-14.25Z"/><path class="cls-8" d="M650.48,404.85c1.17.49,18.28,7.7,24.79,8.2,6.86.53,23.82-3.88,27-5.21s.86-7.21.86-7.21l-36.06,3.88Z"/><path class="cls-8" d="M628.23,416c0,.89-2.18,4.73-1.43,6.1,1.07,2,6.28,3.65,8.43,3,2.76-.81,7-9.12,7-9.12l-12.27.5S628.23,415.71,628.23,416Z"/><path class="cls-8" d="M686.67,436.67s10,5.93,13.33,7.33c8.5,3.54,8.94,10.6,10.67,15.17,2.33,6.17,5.67,13.17,16.19,16.5,5,1.6,20.71,4.33,20.71,4.33L720,461.56l-7.3-14-3.87-5.75L696.66,438l-10-1.31"/><path class="cls-8" d="M384.26,489.25s72.23,2.81,95.74-1.69c11.87-2.27,34.45-11.62,45.25-17.06,10.39-5.23,34.87-14.37,39.1-25.21,1.43-3.66-3.69-11.29-4-15.21-.17-2.37,1.06-9.46,1.06-9.46l-4,9.46s.53,9.17-1,11.7c-5.88,10-29.12,19.31-40,23.21-52.25,18.75-130.75,22.56-130.75,22.56Z"/><path class="cls-8" d="M564.35,467.17s24.59-12.14,27.3-16.67c1.94-3.23.79-11.4,0-15.08s-6.37-14.08-6.37-14.08S591,440.89,587,447.54c-2.45,4.07-22.61,19.63-22.61,19.63"/><path class="cls-8" d="M592.72,490.12s22.63-8.53,26.45-15.12c2.22-3.82,1-13.36,0-17.67-.5-2.22-4.42-6-3.92-8.2s3.7-6.47,3.92-8.63c.59-6-12.42-15.3-12.42-15.3s7.44,10.69,3.43,20.1a17,17,0,0,0-1.5,5.16c.11,4.22,6.35,11.83,5.5,16C612.59,474.26,592.72,490.12,592.72,490.12Z"/><path class="cls-8" d="M639.9,457.33h0l-5.47,15s11.07-6.92,12.57-10.78c1.4-3.58,0-11.89-1.81-15.26-1.4-2.57-9-7.47-9-7.47S641,448.56,639.9,457.33Z"/><path class="cls-8" d="M731.79,418.67s11.68,8.79,15.77,11.42c4.37,2.81,13.28,8.3,18.1,10.25,10.84,4.38,56,16.41,45.28,11.69-1.9-.84-42.48-23.66-57.45-28.65C747.86,421.5,731.79,418.67,731.79,418.67Z"/><path class="cls-8" d="M704,413.44s13.79,5.23,17.26,8.57c4.1,4,7.06,15.78,10.87,20,4.46,5,16.33,11.59,22,15.14,6.47,4.07,67.62,35.83,67.62,35.83s-41.78-12.17-49.52-16.72c-6-3.53-42.58-28.68-46.44-34.49-2.53-3.81-2.88-13.75-5.62-17.41C717.2,420.48,704,413.44,704,413.44Z"/><path class="cls-8" d="M652.5,435.88s.06,16.86,2.63,19.7,12.88,3.28,15.38,6c4.28,4.62,1.51,16.53,6.13,20.82,5.87,5.46,31.25,10.63,31.25,10.63S683.14,481.82,678,474.75c-2.71-3.73-.58-14.63-3.62-18.09-2.49-2.83-10.45-4.34-13.88-5.91C652.5,447.09,652.5,435.88,652.5,435.88Z"/><path class="cls-9" d="M-3.33,482.67,3,479.87c4.16-1.8,10.26-4.47,18.1-7.68s17.37-7.08,28.42-11.26c5.53-2.08,11.43-4.25,17.73-6.37,3.16-1,6.4-2.08,9.77-3A100.59,100.59,0,0,1,87.6,449a300.25,300.25,0,0,1,47-3.23c8.37,0,17,.38,25.72,1s17.68,1.53,26.72,2.65c18.08,2.28,36.65,5.48,55.34,9.38s37.57,8.3,56.4,12.71c9.41,2.22,18.82,4.41,28.2,6.41s18.76,3.83,28.08,5.11c4.66.63,9.3,1.14,13.91,1.42,2.31.12,4.58.2,6.89.18l7,0c9.26-.1,18.45-.43,27.45-1A466,466,0,0,0,462,477.66c8.14-1.44,16-3.1,23.55-5s14.77-3.91,21.61-6.18A180.89,180.89,0,0,0,543,450.59c1.25-.76,2.48-1.5,3.64-2.29l1.75-1.15,1.68-1.19c1.12-.77,2.17-1.6,3.21-2.4l.77-.6c.2-.15.49-.41.72-.61a9.36,9.36,0,0,0,1.15-1.26,6.33,6.33,0,0,0,1.25-3,12.94,12.94,0,0,0,0-3.35,21.14,21.14,0,0,1-.18-6.88,10.14,10.14,0,0,1,1.16-3.08c.55-.94,1.09-1.67,1.61-2.48l2.93-4.41,4.67-6.93,3.89-5.77-3.54,6-4.25,7.19-2.73,4.54c-.47.8-1,1.66-1.46,2.48a8.78,8.78,0,0,0-.9,2.72,19.86,19.86,0,0,0,.47,6.4,14.63,14.63,0,0,1,.2,3.8,8.27,8.27,0,0,1-1.45,3.92,11.19,11.19,0,0,1-1.39,1.65c-.25.23-.44.43-.75.69l-.77.64c-1,.86-2.08,1.74-3.21,2.57l-1.68,1.28L548,450.29c-1.17.85-2.4,1.64-3.65,2.46-10,6.5-22.23,12.23-36,17.15-6.88,2.46-14.16,4.72-21.76,6.77s-15.55,3.83-23.76,5.42a436.81,436.81,0,0,1-52.12,6.74q-13.65,1-27.75,1.27l-7,.09c-2.38,0-4.82,0-7.23-.11-4.82-.23-9.62-.71-14.39-1.36-9.56-1.28-19-3.1-28.52-5.08s-18.92-4.15-28.35-6.33c-18.85-4.41-37.63-8.94-56.23-12.84s-37-7.33-54.85-9.77a473.2,473.2,0,0,0-51.81-4.33c-8.26-.18-16.3-.08-24.06.3s-15.24,1-22.38,1.9a97.75,97.75,0,0,0-10.22,2.16c-3.33.85-6.57,1.8-9.73,2.75-6.31,1.89-12.27,3.81-17.85,5.69-11.16,3.76-20.82,7.26-28.76,10.19L3.17,480.19Z"/><path class="cls-9" d="M-8.67,512.67s2.21-1.28,6.45-3.51S8.26,503.68,16.4,500s18.12-8.07,29.84-12.39a323,323,0,0,1,40.25-12.12,238.37,238.37,0,0,1,23.8-4.2c2.08-.27,4.19-.42,6.31-.63s4.28-.28,6.44-.42,4.36-.12,6.57-.18l6.59.08c9,.26,18,1.05,27.28,2.19s18.58,2.72,28,4.49c18.92,3.57,38.26,8,57.79,12.79s39.33,9.67,59.14,14.14c9.91,2.23,19.83,4.3,29.75,6a277,277,0,0,0,29.62,3.67l3.67.23,3.65.1,1.82.05h5.56l3.72,0,3.66-.1c2.43-.06,4.86-.12,7.3-.26,9.73-.44,19.33-1.22,28.73-2.39a387.42,387.42,0,0,0,53.63-10.3,349.6,349.6,0,0,0,46.33-15.88c7-3,13.56-6.12,19.71-9.28s11.84-6.47,17.07-9.75,10-6.56,14.23-9.82c1.08-.79,2.1-1.61,3.09-2.42s2-1.57,2.91-2.39l2.71-2.35.29-.26a2.06,2.06,0,0,0,.24-.27,3.15,3.15,0,0,0,.35-.57,7.11,7.11,0,0,0,.5-1.44,26.43,26.43,0,0,0,.48-6.12c0-2-.17-3.82-.34-5.53-.33-3.44-.77-6.35-1.15-8.71-.78-4.72-1.34-7.21-1.34-7.21s.7,2.46,1.74,7.13c.52,2.34,1.12,5.23,1.65,8.68.26,1.72.5,3.58.66,5.59a25.94,25.94,0,0,1-.18,6.5,8.65,8.65,0,0,1-.53,1.79,4.72,4.72,0,0,1-.52.92,3.92,3.92,0,0,1-.33.4l-.35.34-2.62,2.53c-.88.88-1.86,1.69-2.81,2.57s-2,1.76-3,2.62a166.05,166.05,0,0,1-13.93,10.67,250.83,250.83,0,0,1-36.53,20.85c-7,3.29-14.38,6.44-22.16,9.4s-15.93,5.75-24.41,8.25S464,511.66,455,513.64s-18.43,3.69-28,5-19.36,2.28-29.29,2.88c-2.48.18-5,.28-7.5.38l-3.78.16-3.74.08-3.74.07-1.93,0-1.93,0-3.86,0c-1.28,0-2.56-.12-3.85-.19a285.72,285.72,0,0,1-30.58-3.62c-10.13-1.69-20.2-3.74-30.22-5.93s-20-4.61-29.85-7L247.25,498c-19.49-4.8-38.61-9.58-57.25-13.4-9.32-1.9-18.51-3.55-27.53-4.88s-17.89-2.37-26.44-2.84l-6.46-.25c-2.12,0-4.22,0-6.3,0s-4.16.11-6.22.24-4.1.24-6.12.45a232.49,232.49,0,0,0-23.35,3.25C80.12,482,73,483.7,66.32,485.45s-13,3.59-18.94,5.45c-11.8,3.77-22,7.48-30.26,10.74C.52,508.18-8.67,512.67-8.67,512.67Z"/><path class="cls-9" d="M-3.33,551.18s2.21-1.64,6.49-4.51,10.61-7,18.94-11.88c4.16-2.43,8.81-5.06,13.94-7.81s10.78-5.54,16.91-8.37,12.75-5.66,19.89-8.29a199.88,199.88,0,0,1,23.07-6.9q3.09-.69,6.29-1.29c2.14-.34,4.3-.76,6.51-1,1.13-.13,2.16-.29,3.39-.41s2.11-.21,3.29-.27c2.34-.15,4.6-.23,6.9-.24a233.14,233.14,0,0,1,28,1.77c9.5,1.13,19.17,2.63,29,4.35s19.79,3.7,29.9,5.77l30.69,6.52c10.34,2.25,20.79,4.54,31.32,6.76,21.05,4.48,42.45,8.75,63.89,12s42.93,5.42,63.77,4.08c10.51-.62,21-1.89,31.34-3.37s20.55-3.29,30.56-5.25,19.82-4.09,29.38-6.35S509,521.82,518,519.31c18-5,34.91-10.49,49.55-17.18a77.62,77.62,0,0,0,10.18-5.56c.77-.52,1.48-1,2.2-1.6l2.24-1.84,4.41-3.61c5.78-4.75,11.22-9.29,16.06-13.77a94.1,94.1,0,0,0,6.69-6.71c.48-.57,1-1.12,1.41-1.69l.66-.85a5.87,5.87,0,0,0,.49-.75,4.37,4.37,0,0,0,.38-3,15.16,15.16,0,0,0-1.31-3.6l-1.82-3.65a17.52,17.52,0,0,1-1.42-3.92,7.27,7.27,0,0,1,.28-4.23,8.26,8.26,0,0,1,.46-.92l.5-.78.47-.73c.15-.24.25-.47.37-.7a11.84,11.84,0,0,0,1.06-2.91,14.41,14.41,0,0,0,.1-5.72,25.79,25.79,0,0,0-3.39-8.62,38.72,38.72,0,0,0-3.36-4.78c-.84-1-1.32-1.51-1.32-1.51s.51.46,1.42,1.43a39.12,39.12,0,0,1,3.7,4.59,26.18,26.18,0,0,1,4,8.69,15.65,15.65,0,0,1,.24,6.21,13.33,13.33,0,0,1-1,3.35,14.07,14.07,0,0,1-.82,1.59l-.11.19-.07.13,0,.09-.17.34a6.54,6.54,0,0,0-.26.71c-.56,1.93.37,4.11,1.68,6.29l2.14,3.46a18.18,18.18,0,0,1,2,4.22,8,8,0,0,1-.31,5.6,8.15,8.15,0,0,1-.65,1.21l-.7,1c-.46.68-1,1.29-1.48,1.94a96.27,96.27,0,0,1-6.7,7.31c-4.81,4.78-10.14,9.55-15.78,14.52l-4.28,3.76-2.17,1.92c-.77.69-1.59,1.38-2.42,2a83.53,83.53,0,0,1-10.58,6.75,218.27,218.27,0,0,1-23.69,10.88c-8.33,3.34-17,6.48-26.05,9.49-18.05,6-37.36,11.35-57.58,16s-41.35,8.57-63.42,10.36l-4.18.29c-1.46.1-2.7.15-4.16.22-2.8.11-5.61.15-8.41.15-5.6,0-11.19-.21-16.76-.56-11.14-.69-22.22-2-33.2-3.6s-21.89-3.5-32.69-5.61-21.51-4.34-32.08-6.71-21-4.77-31.34-7.17l-30.46-7.12c-10-2.32-19.81-4.53-29.43-6.52s-19-3.83-28.22-5.25a232.66,232.66,0,0,0-26.69-2.84c-2.14-.08-4.28-.11-6.29-.09-1,0-2.15.06-3.21.08s-2,.13-3,.2c-2.05.1-4.08.39-6.1.6s-4,.56-6,.89A192.1,192.1,0,0,0,75.06,517c-7.09,2.1-13.75,4.39-20,6.74s-11.94,4.76-17.22,7-10.1,4.49-14.42,6.55c-8.63,4.15-15.34,7.59-19.87,10S-3.33,551.18-3.33,551.18Z"/><path class="cls-9" d="M1289.33,562.75s-4.89-2.12-14.12-6-22.81-9.35-40.19-16.12-38.59-14.74-63.2-23c-12.31-4.12-25.47-8.32-39.47-12.27A434.08,434.08,0,0,0,1087.83,495a157.24,157.24,0,0,0-24.07-2.41h-1.53c-.44,0-1,0-1.52,0-1.07,0-2,.13-3,.19-2,.22-4.07.47-6.1.87a96.57,96.57,0,0,0-12.17,3.17,196.68,196.68,0,0,0-24,9.91c-8,3.81-15.95,8-24,12.38-16.09,8.7-32.41,18.15-49.91,26.5A187.74,187.74,0,0,1,914,556.49a89.3,89.3,0,0,1-14.91,3.08,62.09,62.09,0,0,1-7.78.37c-2.54-.08-5-.13-7.52-.26a287.74,287.74,0,0,1-30.37-2.88,234.06,234.06,0,0,1-30.29-6.63,259.66,259.66,0,0,1-29.48-10.68c-9.64-4.1-19.08-8.62-28.66-12.67a169.1,169.1,0,0,0-29.46-9.77,142.3,142.3,0,0,0-30.91-3.33,209.17,209.17,0,0,0-31.35,2.46,225.27,225.27,0,0,0-30.74,6.91c-20.21,6-39.48,14.88-58.27,24.58S547,567.79,528,577a389.12,389.12,0,0,1-58.28,23.31,342.16,342.16,0,0,1-60,12.45q-15,1.74-29.83,2.31A124.14,124.14,0,0,1,365,615c-4.93-.34-9.79-.89-14.6-1.56-19.23-2.75-37.61-7.12-55.44-11.4-35.64-8.69-69.12-17.52-100.54-23.07a405.09,405.09,0,0,0-45.34-5.69c-14.46-.87-28.31-.69-41,1.24-12.68,2.17-24.11,6.5-34.29,11.1a254.32,254.32,0,0,0-27.12,14.59,382.47,382.47,0,0,0-35.46,24.76c-7.85,6.18-11.83,9.74-11.83,9.74s3.9-3.64,11.62-10c3.87-3.17,8.69-7,14.52-11.34S38.11,604.18,46,599.18a255.59,255.59,0,0,1,27-15.1c10.2-4.8,21.66-9.37,34.6-11.8,13-2.17,26.92-2.56,41.56-1.91A394.22,394.22,0,0,1,195,575.56c15.82,2.64,32.18,6,49,9.85s34.15,8.1,52,12.27S332.12,606,351,608.55c4.72.62,9.48,1.12,14.26,1.41a124.55,124.55,0,0,0,14.38,0q14.62-.66,29.42-2.42a336.77,336.77,0,0,0,59-12.53,393.24,393.24,0,0,0,57.36-23.21c18.77-9.18,37.16-19.58,56.09-29.39s38.54-18.9,59.25-25.08a223,223,0,0,1,31.6-7.1,214.9,214.9,0,0,1,32.22-2.47,148.22,148.22,0,0,1,32.17,3.53,175,175,0,0,1,30.43,10.14c9.75,4.14,19.17,8.67,28.66,12.73a257,257,0,0,0,28.8,10.61,228.49,228.49,0,0,0,29.54,6.64,282.59,282.59,0,0,0,29.77,3c2.44.14,5,.2,7.43.3a57,57,0,0,0,7.1-.31,84.21,84.21,0,0,0,14.05-2.83,186.8,186.8,0,0,0,26.81-10.34c17.32-8.07,33.7-17.35,49.92-25.94s32.24-16.78,48.95-22.05a100,100,0,0,1,12.67-3.13c2.13-.39,4.28-.64,6.43-.84,1.09-.06,2.22-.16,3.24-.16.54,0,1,0,1.61,0l1.59,0a160.38,160.38,0,0,1,24.57,2.71,413.4,413.4,0,0,1,44.7,11c14,4.17,27.13,8.57,39.4,12.87,24.54,8.64,45.64,16.94,62.94,23.94s30.75,12.85,39.91,16.85S1289.33,562.75,1289.33,562.75Z"/><path class="cls-9" d="M1294.67,534.33l-7.1-2.88c-4.63-1.87-11.45-4.55-20.13-8s-19.24-7.48-31.4-12-25.94-9.48-41-14.71-31.52-10.63-49-15.82-36.13-10.24-55.65-13.65c-4.88-.83-9.8-1.58-14.77-2.08-1.24-.13-2.49-.25-3.73-.34s-2.49-.18-3.74-.24c-2.47-.14-5-.14-7.41-.09l-1.93.11-1.78.18c-1.2.15-2.43.32-3.65.55-2.44.45-4.89,1-7.32,1.71a144.59,144.59,0,0,0-14.51,5c-19.2,7.82-38,17.93-56.9,27.7s-38,19.67-58.29,26.42a114.82,114.82,0,0,1-15.57,4,55,55,0,0,1-16.32.64c-2.66-.39-5.09-.74-7.67-1.19s-5.1-.87-7.6-1.38c-5-1-10-2.11-14.87-3.27a396.34,396.34,0,0,1-55.07-18,454.56,454.56,0,0,1-46.81-22.26c-7-3.87-13.66-7.77-19.87-11.63-3.11-1.93-6.1-3.86-9-5.77L721.37,466l-1.06-.72-.52-.36a6.26,6.26,0,0,1-.6-.48,7.62,7.62,0,0,1-1.06-1.18,12.49,12.49,0,0,1-.77-1.15,25.73,25.73,0,0,1-1.22-2.29c-1.43-3-2.48-6-3.61-8.79-.56-1.39-1.13-2.74-1.77-4a13.2,13.2,0,0,0-1-1.7,5.67,5.67,0,0,0-.55-.66c-.09-.09-.19-.16-.25-.22l-.43-.31a31.77,31.77,0,0,0-6.78-3.85,28.86,28.86,0,0,0-6.9-1.76,46.29,46.29,0,0,1-6.61-1.16,14.91,14.91,0,0,1-5.31-2.86,38.37,38.37,0,0,1-6.34-6.78,12.32,12.32,0,0,1-2.36-5.21,4.4,4.4,0,0,1,0-1.47,1.94,1.94,0,0,1,.16-.47,1.92,1.92,0,0,0-.13.47,4.33,4.33,0,0,0,.06,1.44,12,12,0,0,0,2.63,4.93,40.74,40.74,0,0,0,6.59,6.25,13.69,13.69,0,0,0,5,2.39,45.48,45.48,0,0,0,6.46.8,30.74,30.74,0,0,1,7.41,1.52,34,34,0,0,1,7.44,3.75l.44.29a7.09,7.09,0,0,1,.56.46,8,8,0,0,1,.85,1,15.41,15.41,0,0,1,1.26,2c.74,1.35,1.35,2.74,2,4.15,1.22,2.81,2.34,5.75,3.73,8.56a22.58,22.58,0,0,0,1.13,2,9.34,9.34,0,0,0,.63.9,5.48,5.48,0,0,0,.61.67,1.28,1.28,0,0,0,.2.17l.13.09.05,0,.53.34,1.07.68,2.16,1.37c2.91,1.82,5.93,3.66,9.06,5.5q9.38,5.52,20,11A472.76,472.76,0,0,0,801,502.58c8.5,3.27,17.3,6.43,26.41,9.32s18.51,5.5,28.16,7.76c4.83,1.09,9.71,2.16,14.66,3.06,2.47.47,4.95.89,7.43,1.31s5.1.79,7.52,1.14a49.31,49.31,0,0,0,14.56-.65,109.16,109.16,0,0,0,14.74-3.84,262.78,262.78,0,0,0,28.93-11.92c9.54-4.49,19-9.29,28.49-14.15s18.93-9.79,28.48-14.52,19.17-9.29,29.08-13.14a150,150,0,0,1,15.13-5.07c2.57-.71,5.19-1.29,7.83-1.75,1.33-.24,2.65-.41,4-.57l2.07-.18,1.93-.09c2.78,0,5.32,0,8,.16,1.3.07,2.6.16,3.89.28s2.58.24,3.86.38c5.12.58,10.16,1.36,15.11,2.29,19.81,3.76,38.45,9.14,56,14.59s33.86,11.31,48.88,16.83,28.64,11,40.69,15.82,22.5,9.24,31.08,12.89,15.27,6.64,19.84,8.67Z"/><path class="cls-9" d="M701,394.93a6.66,6.66,0,0,1,.75-.06,12.07,12.07,0,0,1,2.21.2,30.74,30.74,0,0,1,3.49.84c.34.09.71.22,1.06.34a10.23,10.23,0,0,1,1.12.54,13.67,13.67,0,0,1,2.15,1.56c2.81,2.47,5.36,6.11,8.73,9.68a38.43,38.43,0,0,0,5.81,5.09,33.33,33.33,0,0,0,3.52,2.14,22.64,22.64,0,0,0,4,1.29c5.93,1.58,12.45,3.07,19.33,5,.87.25,1.74.5,2.63.78.46.15.9.29,1.41.49l.4.17.44.21.6.31,4.9,2.53,5,2.6,5.1,2.56,5.18,2.6,5.32,2.55q5.35,2.58,10.84,5.13l5.51,2.57,5.58,2.5c3.72,1.69,7.49,3.3,11.26,4.91,7.51,3.29,15.1,6.41,22.6,9.42.86.32,1.89.74,2.77,1s1.8.63,2.74.92c1.84.61,3.71,1.13,5.58,1.6a95.64,95.64,0,0,0,11.24,2.1,130.7,130.7,0,0,0,21.79.83,179.81,179.81,0,0,0,19.6-2,226.64,226.64,0,0,0,28.93-6.65c3.44-1,6.14-1.91,8-2.54s2.79-1,2.79-1-.91.48-2.66,1.3-4.33,2-7.69,3.36-7.47,2.92-12.28,4.45-10.3,3.13-16.4,4.45a150.48,150.48,0,0,1-19.95,3.1,119.24,119.24,0,0,1-22.68,0,91.16,91.16,0,0,1-23.83-5.51c-7.58-3-15.26-6-22.86-9.29-3.79-1.66-7.58-3.31-11.32-5.05L798,449.4l-5.53-2.64L787,444.13l-5.36-2.74-5.29-2.71-5.18-2.77-5.09-2.73-4.9-2.78-4.79-2.74-.59-.34-.17-.09-.22-.1c-.33-.14-.73-.3-1.12-.44-.8-.29-1.63-.57-2.46-.85-6.67-2.15-13.11-4-19-6l-2.21-.76c-.38-.14-.72-.27-1.14-.44-.24-.1-.47-.21-.61-.28l-.13-.07-.06,0-.12-.08-.25-.15a30.93,30.93,0,0,1-3.71-2.6,40.89,40.89,0,0,1-5.79-5.88c-3.25-4-5.41-7.8-7.84-10.33a12.65,12.65,0,0,0-1.84-1.62,10.86,10.86,0,0,0-.92-.58c-.35-.17-.65-.31-1-.44a30.24,30.24,0,0,0-3.32-1.19,12,12,0,0,0-2.14-.43A6.67,6.67,0,0,0,701,394.93Z"/><path class="cls-9" d="M3.33,686.67s.65-1.15,2.09-3.26a110.15,110.15,0,0,1,6.87-9A136.64,136.64,0,0,1,25,661.36a141.91,141.91,0,0,1,19.67-14.92,148.67,148.67,0,0,1,27.48-13.59,161.07,161.07,0,0,1,35.09-8.67,178.27,178.27,0,0,1,19.94-1.49c6.82-.23,13.94-.07,21.15.17,14.46.54,29.6,1.94,45.35,3.64,31.5,3.46,65.45,8.38,101.36,13.24s73.83,9.56,113.18,12.64c19.67,1.52,39.71,2.59,60,2.92s40.86-.08,61.38-1.57a89.2,89.2,0,0,0,14.88-2.66c4.94-1.27,9.84-2.83,14.72-4.54,9.75-3.44,19.36-7.48,28.92-11.72,19.13-8.5,38-17.88,57.35-26.54,9.67-4.32,19.46-8.46,29.58-11.93A129.74,129.74,0,0,1,690.59,592l1-.2,1-.18,1.95-.33c1.37-.18,2.77-.4,4.11-.51,2.71-.3,5.43-.41,8.14-.45a129.59,129.59,0,0,1,31.83,4.12,281.61,281.61,0,0,1,30.12,9.46c19.61,7.21,38.47,15.51,57.53,22.22a228.38,228.38,0,0,0,28.78,8.29,108.83,108.83,0,0,0,29,2.46,161.85,161.85,0,0,0,28.52-4.62,240.73,240.73,0,0,0,27.16-8.72c17.63-6.77,34.27-15,50.52-23.08,8.13-4,16.17-8,24.27-11.6a162.59,162.59,0,0,1,24.71-9.1,66.19,66.19,0,0,1,12.88-2.14c1.09-.06,2.17-.1,3.28-.08l1.56,0,1.62.09c2.17.12,4.23.35,6.31.6,8.28,1.07,16.23,2.74,24,4.52,15.47,3.6,30.09,7.75,43.93,11.86s26.87,8.32,39.09,12.33c24.44,8,45.6,15.45,63,21.64s31,11.26,40.25,14.72l14.18,5.36-14.3-5c-9.34-3.26-23.05-8-40.53-13.89s-38.76-12.95-63.3-20.56c-12.27-3.8-25.36-7.74-39.22-11.66s-28.48-7.89-43.87-11.27c-7.69-1.67-15.59-3.22-23.65-4.16-2-.22-4.05-.42-6-.5l-1.49-.07h-1.56c-1,0-2,0-3,.1a63.61,63.61,0,0,0-12.08,2.14,158.46,158.46,0,0,0-24,9.05c-8,3.62-15.93,7.64-24,11.71-16.18,8.16-32.87,16.63-50.75,23.66s-37,12.53-57.13,14A114.13,114.13,0,0,1,854,639.74a233.36,233.36,0,0,1-29.53-8.33c-19.39-6.69-38.3-15-57.68-22.07a275.94,275.94,0,0,0-29.51-9.22,123.73,123.73,0,0,0-30.38-3.9c-2.54,0-5.08.15-7.6.43-1.28.11-2.48.31-3.71.46l-1.94.34-.91.16-.93.19A124.17,124.17,0,0,0,677,602c-9.82,3.37-19.46,7.5-29.06,11.75-19.19,8.57-38.11,17.92-57.41,26.46-9.65,4.26-19.39,8.34-29.37,11.85-5,1.75-10,3.35-15.21,4.66a94.8,94.8,0,0,1-15.81,2.8c-20.91,1.51-41.55,1.78-62,1.36s-40.55-1.61-60.31-3.24c-39.51-3.24-77.47-8.37-113.37-13.5s-69.76-10.47-101.14-14.28c-15.68-1.89-30.75-3.42-45.1-4.21-7.2-.35-14.13-.63-21-.51a174.55,174.55,0,0,0-19.73,1.17,159.18,159.18,0,0,0-34.81,8A147.37,147.37,0,0,0,45.25,647.4a143.19,143.19,0,0,0-32.72,27.25,110,110,0,0,0-7,8.81C4,685.54,3.33,686.67,3.33,686.67Z"/><path class="cls-9" d="M320.66,646.89l11.44.39c7.46.18,18.4.39,32.32.27s30.82-.69,50.12-2.34c9.65-.81,19.9-1.91,30.65-3.41s22-3.33,33.68-5.72a500.72,500.72,0,0,0,73.79-21c12.79-4.71,25.73-10.06,38.86-15.83S618,587.3,631.79,581.49s28.24-11.24,43.6-14.37c3.83-.78,7.71-1.44,11.64-1.87,2-.26,3.93-.38,5.91-.56s4-.24,6-.24,4,0,6,0,3.92.19,5.9.29c1,.06,1.94.09,2.93.17l3,.26c2,.19,4,.3,5.95.57A184.66,184.66,0,0,1,769.19,577c15.07,5.71,29.16,13.39,43.56,19.75a194.35,194.35,0,0,0,22,8.26,158,158,0,0,0,22.8,5.09A182.12,182.12,0,0,0,880.81,612c1.94.09,3.89,0,5.84,0h2.92c.46,0,1,0,1.41,0l1.47-.06a72,72,0,0,0,11.2-1.43,115.9,115.9,0,0,0,21.71-7c7-3,13.92-6.34,20.69-9.87,13.54-7.07,26.76-14.62,40.27-21.22s27.29-12.33,41.46-15.91a141.49,141.49,0,0,1,21.33-3.75q5.34-.49,10.64-.56c3.52-.05,7.08.1,10.48.32a269.82,269.82,0,0,1,39.69,6.24c12.62,2.85,24.65,6.16,36.13,9.57,22.94,6.83,43.6,14.2,61.78,21s33.87,13.19,46.73,18.55,22.87,9.8,29.69,12.83,10.42,4.73,10.42,4.73-3.65-1.58-10.55-4.43-17-6.94-30-12-28.78-11.08-47.06-17.52c-9.14-3.22-18.91-6.54-29.25-9.87s-21.25-6.73-32.72-9.95-23.48-6.32-36-9a269.27,269.27,0,0,0-39.06-5.69c-3.43-.17-6.75-.28-10.17-.2s-6.82.3-10.24.65a136.49,136.49,0,0,0-20.56,3.85c-13.67,3.62-27.12,9.23-40.37,15.84s-26.38,14.19-40,21.43c-6.83,3.61-13.8,7.13-21.06,10.21a121.6,121.6,0,0,1-22.78,7.36,77.77,77.77,0,0,1-12.14,1.57l-1.47.06c-.59,0-1,0-1.54,0l-3,0c-2,0-4,.05-6,0a187.84,187.84,0,0,1-24-1.93A164,164,0,0,1,833,610.74a192.42,192.42,0,0,1-22.69-8.49c-14.7-6.54-28.64-14.17-43.25-19.74a178.78,178.78,0,0,0-45.12-11c-1.92-.27-3.83-.37-5.74-.56l-2.86-.25c-1-.08-1.95-.11-2.92-.17l-5.78-.31c-1.9,0-3.79-.11-5.69-.06s-3.79.12-5.67.2-3.77.26-5.65.5c-3.76.39-7.48,1-11.18,1.72-14.8,2.92-29,8.15-42.69,13.79s-27.1,11.75-40.35,17.36-26.34,10.89-39.28,15.51a486,486,0,0,1-74.65,20.21,527.25,527.25,0,0,1-64.81,8c-19.4,1.25-36.34,1.43-50.28,1.3s-24.88-.74-32.34-1.09Z"/><path class="cls-9" d="M861.34,799.34l-9.45-3.93c-6.17-2.55-15.25-6.19-26.8-10.83-23.12-9.25-56.32-22.07-96.63-36-10.08-3.46-20.62-7-31.57-10.46s-22.31-6.94-34.06-10.22-23.88-6.39-36.38-9S601.08,714,588,713.32c-3.26-.12-6.55-.21-9.8,0l-1.22,0c-.32,0-.81.06-1.21.09-.84.07-1.69.13-2.47.23-1.59.16-3.23.39-4.86.65a154.57,154.57,0,0,0-19.55,4.63c-13,3.92-25.89,9-38.81,14.24-25.84,10.63-51.66,22.71-78.49,32.76-13.44,4.94-27.14,9.44-41.41,12-3.57.63-7.17,1.12-10.81,1.4a79.86,79.86,0,0,1-11,.13A115.82,115.82,0,0,1,347,775.95c-13.83-3.54-26.91-8.66-39.64-13.91s-25.13-10.79-37.4-16c-24.5-10.36-48.57-19.54-72.32-24.49-3-.61-5.93-1.2-8.85-1.65s-5.95-1-8.85-1.31-5.8-.75-8.7-1l-4.32-.44-4.3-.35c-11.41-.91-22.49-1.28-33.13-1.35-21.29-.11-40.82.85-58.1,2.11s-32.31,2.87-44.67,4.36-22.05,2.83-28.65,3.82S-12,727.34-12,727.34s3.49-.72,10.05-1.9,16.21-2.89,28.55-4.65,27.35-3.75,44.64-5.42c8.64-.83,17.86-1.61,27.59-2.22s20-1,30.69-1.1,21.88.07,33.43.79l4.35.28,4.38.39c2.93.23,5.89.58,8.88.93s5.94.79,8.93,1.21,6,1,9.09,1.57c24.29,4.75,48.81,13.73,73.47,24,12.36,5.11,24.8,10.53,37.48,15.68,6.34,2.57,12.74,5.06,19.23,7.36s13,4.42,19.72,6.1a110.42,110.42,0,0,0,20.2,3.32,87.27,87.27,0,0,0,20.46-1.5c13.66-2.5,27.11-6.94,40.36-11.84,26.53-9.86,52.36-21.86,78.38-32.49a406.25,406.25,0,0,1,39.43-14.23,159.83,159.83,0,0,1,20.29-4.65c1.72-.26,3.43-.49,5.2-.66.89-.1,1.73-.16,2.57-.22.44,0,.79-.07,1.31-.09l1.3,0c3.47-.16,6.89,0,10.29.11a252.88,252.88,0,0,1,39.23,6c12.61,2.8,24.79,6.1,36.57,9.53,23.55,6.88,45.46,14.45,65.55,21.74s38.33,14.44,54.42,20.95,30,12.35,41.5,17.25,20.39,8.89,26.49,11.61Z"/><path class="cls-9" d="M0,760c8.11-1.72,16.24-3.34,24.39-4.91s16.31-3,24.49-4.39c16.35-2.79,32.75-5.33,49.22-7.46q12.36-1.56,24.77-2.74c8.28-.78,16.57-1.4,24.9-1.77a244.83,244.83,0,0,1,25.07,0,115.53,115.53,0,0,1,12.61,1.4l3.1.63,3.14.77c2.06.56,4.08,1.13,6.08,1.79,4,1.28,8,2.7,11.85,4.22s7.76,3.1,11.59,4.75c7.65,3.31,15.2,6.8,22.7,10.37,15,7.13,29.83,14.59,44.74,21.74,7.45,3.57,14.92,7.12,22.47,10.26s15.28,5.35,23.27,7.5c16,4.19,32.12,7.91,48.24,11.54l-1.54.07,55.36-17.25-.53.23c6-3.24,11.94-6.36,17.95-9.46s12.06-6.1,18.13-9.06c12.14-5.92,24.4-11.63,36.83-17a378.18,378.18,0,0,1,38.06-14.37,128.49,128.49,0,0,1,20-4.67c1.73-.22,3.48-.38,5.25-.45,1,0,1.7,0,2.59,0s1.79,0,2.65.1A102.63,102.63,0,0,1,587.69,743a200.85,200.85,0,0,1,19.93,4.39c6.55,1.76,13,3.72,19.46,5.8,12.86,4.17,25.54,8.83,38.1,13.78s25,10.14,37.37,15.51c6.18,2.7,12.36,5.4,18.48,8.22s12.24,5.65,18.31,8.58q-9.27-4-18.61-7.89c-6.23-2.56-12.45-5.15-18.7-7.65q-18.75-7.53-37.72-14.45-9.49-3.44-19.05-6.65t-19.19-6.17c-6.43-1.94-12.89-3.75-19.39-5.36s-13-3-19.61-4-13.14-1.51-19.51-.5a124.22,124.22,0,0,0-19.22,4.79c-6.34,2-12.62,4.37-18.84,6.84s-12.41,5.06-18.55,7.77c-12.28,5.41-24.41,11.2-36.44,17.19-6,3-12,6.07-18,9.16s-11.92,6.23-17.79,9.44l-.25.14-.27.09-55.31,17.41-.76.24-.78-.17c-8.12-1.78-16.2-3.68-24.28-5.61s-16.14-3.94-24.19-6.09-16.26-4.46-24-7.82-15.25-6.84-22.73-10.47c-14.92-7.32-29.66-14.89-44.54-22.12-7.44-3.62-14.91-7.14-22.44-10.49s-15.13-6.53-22.87-9.13c-1.93-.66-3.88-1.24-5.82-1.8l-2.88-.76-3-.65a111,111,0,0,0-12.08-1.51c-8.16-.61-16.4-.6-24.64-.42-16.49.41-33,1.79-49.46,3.5S65.54,750,49.13,752.3q-12.3,1.75-24.58,3.7C16.36,757.27,8.17,758.58,0,760Z"/><path class="cls-9" d="M295.25,754.93a53.81,53.81,0,0,1,5.56-5.31,84.41,84.41,0,0,1,7.06-5.34,79.46,79.46,0,0,1,10-5.77,68.29,68.29,0,0,1,12.95-4.82c1.19-.33,2.42-.61,3.67-.86s2.53-.45,3.83-.59a55.58,55.58,0,0,1,8-.45c1.27,0,2.67.08,4,.12s2.68.16,4,.26q4,.3,8.12.68c5.45.51,11,1.13,16.46,1.78l16.39,2.12c5.4.7,10.7,1.51,15.84,2.27s10.09,1.51,14.78,2.29,9.13,1.48,13.22,2.21l11.15,2,8.58,1.62c4.75.94,7.47,1.51,7.47,1.51l-7.59-.58-8.7-.73-11.28-1L425.48,745l-14.87-1.48-32.28-3.25c-5.49-.54-11-1.07-16.37-1.53s-10.73-.88-15.73-1a61.37,61.37,0,0,0-14.13,1.35,66.43,66.43,0,0,0-6.46,1.64c-2.07.63-4.07,1.26-6,2-3.78,1.42-7.21,2.91-10.21,4.36s-5.58,2.81-7.67,4C297.6,753.4,295.25,754.93,295.25,754.93Z"/><path class="cls-9" d="M270,744.52l1.55-2.36c1.06-1.51,2.58-3.76,4.81-6.4a78.16,78.16,0,0,1,8.72-9,75.93,75.93,0,0,1,13.36-9.36,83,83,0,0,1,18-7.3,107.29,107.29,0,0,1,21.34-3.57,156.47,156.47,0,0,1,23,.34c7.81.66,15.65,1.9,23.4,3.2,3.87.65,7.73,1.33,11.5,1.85l11.5,1.43c7.66,1,15.26,2.05,22.52,3.21s14.31,2.2,20.95,3.38,12.94,2.19,18.72,3.29,11.1,2,15.79,3,8.79,1.72,12.15,2.43,6,1.27,7.8,1.66l2.76.6-2.81-.25c-1.83-.17-4.53-.39-7.95-.74s-7.57-.75-12.33-1.27-10.12-1.11-16-1.78-12.17-1.44-18.86-2.25l-21-2.63-22.43-2.81-11.65-1.33c-4-.56-7.83-1.29-11.69-2-7.7-1.38-15.36-2.59-22.94-3.38a151.26,151.26,0,0,0-22.24-.88,106,106,0,0,0-20.54,2.6,85,85,0,0,0-17.52,6.06c-2.59,1.25-5,2.58-7.29,3.94s-4.32,2.79-6.21,4.21a86.44,86.44,0,0,0-9.25,8c-1.21,1.2-2.24,2.33-3.16,3.29l-2.23,2.54Z"/><path class="cls-9" d="M658.21,724.24s1.94-.89,5.62-2.46,9.12-3.78,16.14-6.35c3.52-1.25,7.44-2.61,11.77-3.92A144.55,144.55,0,0,1,706,707.85c1.32-.22,2.59-.5,4-.69l4-.51c2.77-.26,5.71-.55,8.64-.63a159.82,159.82,0,0,1,18.55.31,330.47,330.47,0,0,1,41.13,5.84c14.43,2.81,29.51,6.26,45.08,9.61s31.73,6.39,48.2,7.76c2.06.16,4.12.26,6.19.38s4.13.15,6.2.12l3.1,0h.7l.79,0,1.58-.09c.52,0,1.06-.06,1.58-.1l1.5-.17c1-.12,2-.19,3-.36a187.91,187.91,0,0,0,24.48-5.53C941,719,957,713.24,972.93,707.83s31.63-10.61,47.19-14.67c7.78-2,15.51-3.72,23.17-5,3.83-.63,7.64-1.12,11.42-1.49,1.89-.17,3.78-.28,5.65-.42l5.55-.21c3.66-.11,7.32-.14,10.88-.16s7.08,0,10.52,0c6.9.07,13.56.22,20,.37,12.79.31,24.5.79,34.88,1.2s19.43.85,26.87,1.23l23.4,1.26-23.43-.6c-14.91-.32-36.21-.82-61.76-1-6.39,0-13,0-19.92,0-3.44,0-6.94.1-10.49.15s-7.12.19-10.77.37c-14.56.51-29.58,3.78-44.87,8.11s-30.84,9.77-46.6,15.46c-7.89,2.84-15.85,5.7-23.87,8.52s-16.14,5.56-24.38,8c-4.11,1.25-8.28,2.36-12.47,3.41s-8.45,1.89-12.77,2.49c-1.06.19-2.2.27-3.3.41l-1.66.18-1.59.11-1.58.1-.79,0-.89,0-3.24,0c-2.16,0-4.3-.06-6.45-.09s-4.27-.2-6.4-.36c-17-1.25-33.34-4.57-49-7.94s-30.64-7.08-44.92-10.1a369.1,369.1,0,0,0-40.43-6.64,174.8,174.8,0,0,0-18.09-.82c-2.89,0-5.62.16-8.35.31l-4.06.37c-1.25.12-2.57.33-3.82.49a213.56,213.56,0,0,0-26,6.05c-7.15,2.06-12.71,3.9-16.52,5.13S658.21,724.24,658.21,724.24Z"/><path class="cls-9" d="M714.16,741.75l1.23-.39c.81-.27,2-.62,3.61-1.06a89.51,89.51,0,0,1,14.06-2.61,112.41,112.41,0,0,1,22.28,0c4.29.39,8.84,1,13.6,1.78s9.73,1.79,14.89,2.9c10.33,2.19,21.4,4.91,33.14,7.45q8.81,1.91,18.1,3.59c6.19,1.13,12.53,2.14,19,3s13.07,1.47,19.76,1.92,13.47.74,20.31.75h2.53l2.6,0c1.72-.05,3.35-.1,5.06-.22,3.4-.19,6.8-.56,10.2-1,6.8-.9,13.59-2.24,20.33-3.82,13.5-3.19,26.78-7.5,39.81-11.93s25.89-8.92,38.44-13,24.85-7.59,36.64-10.41a299,299,0,0,1,33.62-6.08,241.65,241.65,0,0,1,28.8-1.81,221.66,221.66,0,0,1,22.19,1c6.13.54,10.9,1.32,14.16,1.8l5,.85-5-.54c-3.27-.29-8.08-.71-14.2-1s-13.56-.31-22.06.08a266.51,266.51,0,0,0-28.4,2.9,330.31,330.31,0,0,0-33,7c-11.6,3-23.65,6.89-36.06,11.1s-25.14,8.93-38.21,13.5-26.5,8.95-40.3,12.28a166.31,166.31,0,0,1-42.15,5.13c-7-.06-13.88-.37-20.69-.89s-13.51-1.32-20.07-2.27-13-2.07-19.22-3.31-12.31-2.66-18.19-4.09c-11.76-2.85-22.75-5.89-32.91-8.47a267.42,267.42,0,0,0-27.95-5.78,120,120,0,0,0-21.91-1.14,98.84,98.84,0,0,0-14.08,1.7c-1.6.33-2.84.6-3.66.81Z"/><path class="cls-9" d="M827.8,785.07q15.1.63,30.22.74c10.07.08,20.15,0,30.21-.31,5-.18,10.06-.41,15.07-.77s10-.89,15-1.41c10-1.1,19.95-2.61,29.85-4.35,19.82-3.47,39.41-8.12,58.88-13.24,9.74-2.56,19.45-5.22,29.19-7.84s19.54-5.13,29.33-7.5,19.61-4.66,29.26-7.33a150.89,150.89,0,0,0,27.95-10.35,110.11,110.11,0,0,0,12.72-7.6c2-1.42,4-2.88,6-4.43l6-4.56c2-1.53,4.06-3,6.11-4.5s4.09-3,6.16-4.45c4.16-2.89,8.29-5.81,12.54-8.57,8.44-5.59,17.05-10.95,25.94-15.85a273.92,273.92,0,0,1,27.4-13.38c4.73-1.9,9.49-3.75,14.38-5.28a130.1,130.1,0,0,1,14.88-3.92,92.81,92.81,0,0,1,15.42-1.84,61.7,61.7,0,0,1,7.89.29,39.44,39.44,0,0,1,4,.62c.67.13,1.34.3,2,.48.34.11.67.19,1,.32a12.27,12.27,0,0,1,1.15.44l18.26,8-19.78-3.11q-33.49-5.27-67.16-9.74c-22.42-3-44.88-5.72-67.37-8-11.24-1.15-22.49-2.18-33.75-3s-22.52-1.44-33.74-1.59c-5.61,0-11.22,0-16.74.39-2.76.15-5.54.45-8.25.83s-5.48.84-8.22,1.38a310,310,0,0,0-32.52,8.55c-21.5,6.74-42.71,14.67-64.24,21.87-10.77,3.6-21.62,7.06-32.72,9.9-5.55,1.4-11.16,2.66-16.89,3.55-2.86.44-5.75.8-8.67,1s-6,.21-8.72.17c-23.06-.4-45.71-4.9-67.6-11.21-11-3.14-21.75-6.75-32.47-10.44s-21.38-7.46-32.12-10.78-21.59-6.22-32.56-7.39a72.54,72.54,0,0,0-16.32,0c-1.38.2-2.84.35-4.17.6s-2.67.44-4,.75c-2.71.55-5.42,1.21-8.12,1.92a315.15,315.15,0,0,0-31.89,10.78c-10.51,4.07-20.94,8.44-31.39,12.81s-20.91,8.75-31.52,12.84a256.74,256.74,0,0,1-32.58,10.56c-1.4.32-2.8.65-4.23.9l-2.13.4-2.14.33-4.2.63-4.28.51c-1.43.18-2.85.33-4.27.45l-4.27.39c-2.85.17-5.69.42-8.54.5-11.39.5-22.78.38-34.13-.19-22.71-1.1-45.27-3.77-67.71-7-11.22-1.6-22.41-3.39-33.59-5.14-5.59-.87-11.18-1.74-16.78-2.53s-11.18-1.51-16.8-1.93a205.7,205.7,0,0,0-33.77.14,168.26,168.26,0,0,0-33.2,6.19,129.62,129.62,0,0,0-30.88,13.62,107.35,107.35,0,0,0-25.67,22,107.64,107.64,0,0,1,25.33-22.49,126.8,126.8,0,0,1,30.87-14.21,169.63,169.63,0,0,1,33.39-6.7,207.48,207.48,0,0,1,34.08-.61c5.68.35,11.34,1,17,1.72s11.24,1.51,16.84,2.3c11.21,1.6,22.41,3.21,33.63,4.68,22.42,3,44.91,5.4,67.46,6.27,11.27.45,22.55.46,33.77-.15,2.81-.11,5.6-.39,8.41-.57s5.6-.49,8.36-.87l4.15-.53,4.19-.66,2.06-.33,2-.4c1.36-.25,2.71-.58,4.07-.9a252.73,252.73,0,0,0,31.92-10.61c10.49-4.13,20.89-8.57,31.3-13s20.85-8.9,31.42-13.08a316.25,316.25,0,0,1,32.38-11.11c2.78-.74,5.57-1.43,8.4-2,1.4-.32,2.88-.54,4.31-.82s2.82-.41,4.23-.63a77.68,77.68,0,0,1,17.57-.06c11.58,1.19,22.71,4.17,33.62,7.46s21.62,7.08,32.33,10.7,21.42,7.14,32.24,10.24a313.83,313.83,0,0,0,32.76,7.63,217.55,217.55,0,0,0,33.3,3.25c2.89,0,5.51,0,8.25-.17s5.46-.54,8.19-1c5.46-.86,10.92-2.08,16.34-3.46,10.85-2.79,21.58-6.22,32.28-9.82,21.39-7.22,42.63-15.16,64.37-21.91a315.71,315.71,0,0,1,33.16-8.66q4.23-.83,8.53-1.42c2.9-.39,5.76-.7,8.65-.85,5.77-.41,11.49-.42,17.21-.37,11.42.16,22.77.81,34.1,1.65s22.63,1.9,33.91,3.07c22.57,2.35,45.06,5.23,67.51,8.31s44.86,6.42,67.26,10l-1.52,4.92-.61-.23c-.24-.09-.52-.16-.78-.24-.54-.15-1.09-.3-1.66-.41a34.54,34.54,0,0,0-3.48-.55,56.66,56.66,0,0,0-7.2-.29,87.65,87.65,0,0,0-14.57,1.68,128.08,128.08,0,0,0-14.36,3.69c-4.74,1.45-9.4,3.22-14,5a269.29,269.29,0,0,0-27,13c-8.79,4.77-17.34,10-25.75,15.49-4.22,2.71-8.34,5.57-12.48,8.4-2.06,1.42-4.08,2.91-6.12,4.36s-4.08,2.9-6.09,4.43L1144,724c-2,1.48-4.08,3.05-6.18,4.49a111.16,111.16,0,0,1-13.28,7.78,154.7,154.7,0,0,1-28.76,10.35c-9.8,2.62-19.65,4.79-29.45,7.08s-19.57,4.63-29.32,7.19-19.51,5.08-29.3,7.5c-19.58,4.87-39.3,9.27-59.24,12.48-10,1.61-20,3-30,4-5,.46-10,.93-15.09,1.21s-10.09.45-15.13.55c-10.09.19-20.17.06-30.25-.22S837.86,785.68,827.8,785.07Z"/><path class="cls-9" d="M933.83,800.5l16.25-2.61,18.63-3,24.14-4.05c8.84-1.49,18.4-3.22,28.51-5s20.74-3.86,31.72-6,22.3-4.54,33.72-7.2,23-5.53,34.3-9a248.57,248.57,0,0,0,32.82-12.84c2.63-1.26,5.27-2.48,7.85-3.81l3.87-1.94,3.82-2c5.1-2.62,10.07-5.35,14.94-8.07l7.2-4.12,7-4.15c4.61-2.77,9.12-5.48,13.46-8.2,8.69-5.43,16.81-10.73,24.29-15.67s14.23-9.61,20.22-13.75,11.17-7.83,15.43-10.87l9.86-7.11,3.46-2.55-3.25,2.82c-2.13,1.83-5.25,4.51-9.31,7.83s-9,7.33-14.76,11.81-12.32,9.47-19.6,14.75-15.24,10.9-23.83,16.61-17.76,11.57-27.49,17.27c-4.87,2.84-9.84,5.69-15,8.45l-3.86,2.05-3.92,2c-2.61,1.36-5.28,2.62-8,3.92a230.51,230.51,0,0,1-33.58,13.23c-11.57,3.49-23.25,6.36-34.78,8.94s-23,4.69-34,6.68-21.79,3.66-32,5.21-19.82,2.83-28.73,4-17.08,2.12-24.33,3-13.58,1.46-18.79,2-9.31.87-12.11,1.12Z"/><path class="cls-9" d="M1099.5,803l31.41-11.85,15.15-5.83c5.37-2.08,11-4.37,16.8-6.7s11.74-4.92,17.73-7.58,12-5.5,17.76-8.69l2.16-1.19,2.11-1.24c.34-.2.74-.42,1-.6l1.06-.67,2.13-1.33c2.86-1.76,5.58-3.58,8.31-5.37,1.37-.88,2.71-1.81,4-2.74l4-2.73L1231,741c5.07-3.68,10-7.23,14.61-10.65l13-9.72,26.72-20.32s-2.33,2.43-6.57,6.51c-2.12,2-4.7,4.52-7.72,7.29s-6.43,5.9-10.23,9.22c-1.89,1.68-3.89,3.38-5.94,5.17s-4.25,3.55-6.46,5.41-4.54,3.71-6.9,5.64-4.85,3.78-7.34,5.73l-7.7,5.79c-2.65,1.91-5.29,3.86-8.07,5.73s-5.56,3.81-8.39,5.56l-2.12,1.35-1.06.67c-.42.27-.75.45-1.14.68l-2.22,1.31-2.25,1.24c-6,3.26-12.2,6.07-18.31,8.73s-12.23,5-18.15,7.18-11.71,4.16-17.2,6-10.72,3.43-15.55,4.88-9.29,2.7-13.24,3.79-7.42,2-10.27,2.7-5.11,1.24-6.64,1.61Z"/><path class="cls-9" d="M515,800l1.42-.81c.94-.51,2.3-1.3,4.06-2.22s3.9-2.07,6.4-3.28,5.3-2.61,8.41-4,6.5-2.9,10.14-4.38,7.52-3,11.61-4.32l3.12-1c1-.33,2.14-.6,3.23-.9l1.64-.44,1.7-.37a29.26,29.26,0,0,1,3.51-.61l1.83-.22H574c1.14,0,2.22,0,3.41,0,2.38.22,4.88.36,7.12.73l3.44.51c1.14.19,2.26.42,3.39.63l3.37.65,3.31.75,3.28.74,3.22.82c2.14.54,4.25,1.08,6.3,1.68,4.12,1.13,8.07,2.35,11.8,3.52l5.42,1.77,5,1.74c6.43,2.29,11.74,4.35,15.42,5.87s5.76,2.47,5.76,2.47l-1.6-.34c-1-.24-2.58-.54-4.51-1l-7-1.59-9-2.08c-6.62-1.55-14.32-3.36-22.57-5.21q-3.09-.7-6.28-1.38t-6.44-1.33l-3.26-.66-3.28-.58c-1.09-.19-2.19-.41-3.29-.58l-3.29-.47c-2.23-.39-4.27-.5-6.38-.73a15.35,15.35,0,0,0-1.65-.06l-1.69,0-.84,0h-.67l-1.5.15A86.36,86.36,0,0,0,558.62,786c-4,1.12-7.93,2.3-11.62,3.47s-7.18,2.3-10.4,3.37L521,798.06Z"/><path class="cls-9" d="M259,800l-.42-.65c-.28-.43-.72-1-1.34-1.81a36.37,36.37,0,0,0-6.21-5.78,75.86,75.86,0,0,0-11.26-6.82,158,158,0,0,0-15.73-6.74C218.16,776,211.67,774,204.75,772q-5.2-1.46-10.72-2.77c-3.67-.84-7.44-1.74-11.23-2.37-7.52-1.25-15.63-1.33-23.82-1.26s-16.58.68-24.93,1.44-16.72,1.61-24.94,2.64S92.81,771.76,85,772.93s-15.37,2.28-22.52,3.42l-20.17,3.26-30.18,5.1-11.46,2,2.92-.84c1.91-.53,4.7-1.35,8.28-2.29s7.92-2.1,12.93-3.32,10.66-2.61,16.85-4,12.9-2.88,20-4.29,14.66-2.91,22.49-4.23,15.92-2.69,24.2-3.78,16.7-2.11,25.16-2.88,17-1.19,25.39-1.26c4.21,0,8.39.05,12.54.34a101.74,101.74,0,0,1,12.29,1.5,196.6,196.6,0,0,1,22.3,6,205.92,205.92,0,0,1,19.29,7.3,131.44,131.44,0,0,1,15.55,7.92,68.82,68.82,0,0,1,10.91,7.91,33.65,33.65,0,0,1,5.71,6.51c.54.84.91,1.51,1.15,2Z"/><path class="cls-9" d="M210,803l-.07-.42a3.86,3.86,0,0,0-.46-1.11A8.18,8.18,0,0,0,206,798.7a34.16,34.16,0,0,0-6.75-2.28c-2.68-.68-5.77-1.25-9.16-1.75s-7.08-1-11-1.35q-2.94-.3-6-.55l-3.13-.25-1.54-.11-1.62-.07c-4.13-.15-8.54,0-13,.3s-9,.66-13.61,1.07-9.14.86-13.64,1.34l-13.23,1.38c-8.59.9-16.61,1.73-23.51,2.39-3.45.33-6.61.61-9.42.85s-5.26.45-7.28.6c-4,.31-6.36.44-6.36.44s2.23-.67,6.16-1.68c2-.51,4.35-1.11,7.11-1.74s5.86-1.35,9.25-2.05c6.8-1.42,14.77-2.9,23.35-4.22,4.29-.66,8.74-1.27,13.27-1.83s9.15-1,13.78-1.41,9.28-.66,13.89-.77a107.45,107.45,0,0,1,13.66.42c4.4.51,8.51,1.17,12.48,1.87s7.65,1.5,11,2.37a89.78,89.78,0,0,1,9.16,2.85,33.21,33.21,0,0,1,6.67,3.32,8.58,8.58,0,0,1,3.26,3.53,3.86,3.86,0,0,1,.27,1.24Z"/><path class="cls-9" d="M-1.84,592.42s2.11-2,6.23-5.45,10.24-8.53,18.36-14.53a340.84,340.84,0,0,1,30.33-20.26c12.17-7.15,26.39-14.69,43.34-20a118.41,118.41,0,0,1,13.25-3.29c2.3-.41,4.64-.79,7-1l.9-.1.22,0,.3,0,.43,0c.58,0,1.12-.09,1.74-.12,1.27-.05,2.55-.1,3.74-.09,4.87,0,9.69.35,14.56.78s9.76,1,14.71,1.67c9.89,1.31,20,2.91,30.24,4.68s20.7,3.78,31.3,5.84c21.19,4.16,43,8.73,65.13,13.35s44.6,9.34,67,13.13c5.6.94,11.2,1.8,16.74,2.45,2.76.32,5.53.61,8.21.77,1.34.08,2.67.13,3.95.15l4.19,0c2.85,0,5.75,0,8.55-.09l8.39-.24c2.8-.09,5.61-.27,8.41-.4s5.59-.32,8.38-.53c5.58-.35,11.11-.92,16.63-1.42s11-1.2,16.41-2c10.85-1.49,21.53-3.27,32-5.41A455.79,455.79,0,0,0,538,544.09a345.27,345.27,0,0,0,50.24-22,208.81,208.81,0,0,0,38.14-25.9l3.73-3.4,3.46-3.42.74-.74c-.12.14-.08.14-.09.16s0,0,0,0a2.11,2.11,0,0,0,.06-1.07,22.89,22.89,0,0,0-1-4,39.25,39.25,0,0,1-2.2-9.06,12.38,12.38,0,0,1,.59-5l.11-.3.07-.18,0-.11.19-.45.39-.9c.31-.64.59-1.29.92-1.87a27.73,27.73,0,0,1,2.07-3.33c.73-1,1.41-1.88,1.88-2.7a10.1,10.1,0,0,0,1.06-2.57,21.77,21.77,0,0,0,.47-2.75,24,24,0,0,0,.17-2.66c0-.86,0-1.69-.14-2.48a30.91,30.91,0,0,0-.72-4.33,38.41,38.41,0,0,0-1.89-5.79c-.53-1.29-.87-1.93-.87-1.93s.45.57,1.21,1.75a35.54,35.54,0,0,1,2.89,5.53A29.14,29.14,0,0,1,641,449c.22.83.37,1.73.53,2.66a27.27,27.27,0,0,1,.23,3,18.07,18.07,0,0,1-.22,3.28,13.56,13.56,0,0,1-1.08,3.55c-.55,1.17-1.22,2.19-1.78,3.17a26.69,26.69,0,0,0-1.54,3.06c-.25.54-.43,1.07-.65,1.61l-.31.92-.16.47,0,.12c0,.05,0,0,0,.05l0,.17a7.84,7.84,0,0,0,0,3.1,35.4,35.4,0,0,0,2.66,7.63,28.12,28.12,0,0,1,1.68,4.89,8.42,8.42,0,0,1,0,3.67,6.11,6.11,0,0,1-.39,1.14,5.73,5.73,0,0,1-.72,1.19l-.11.14-.18.21-.21.23-.42.46c-1.14,1.23-2.29,2.5-3.49,3.75L631,501.19a216.38,216.38,0,0,1-38.51,28.36c-7.54,4.46-15.63,8.66-24.13,12.71s-17.48,7.85-26.83,11.41-19.07,6.91-29.13,9.92-20.46,5.66-31.1,8.05-21.57,4.36-32.66,6.05c-5.55.87-11.15,1.55-16.79,2.26s-11.32,1.22-17,1.63c-2.85.24-5.71.47-8.59.61s-5.74.37-8.63.48l-8.71.32c-2.9.1-5.73.1-8.6.16l-4.4.06c-1.58,0-3.12-.07-4.64-.15-3-.17-6-.47-8.93-.8-5.87-.67-11.63-1.54-17.37-2.48-11.47-1.87-22.81-4.11-34.07-6.39s-22.43-4.66-33.5-7.1l-64.85-14.33q-15.76-3.47-31-6.57c-10.11-2.09-20-4-29.67-5.63-4.82-.8-9.58-1.53-14.26-2.12s-9.28-1.06-13.7-1.21c-1.13-.05-2.17-.07-3.2-.08-.53,0-1.14,0-1.7,0h-.76l-.81,0c-2.16.11-4.31.35-6.44.63a110.57,110.57,0,0,0-12.49,2.49,171.46,171.46,0,0,0-22.92,7.82c-7.17,2.93-13.85,6.1-20,9.26S43.67,563,38.44,566s-10,5.92-14.2,8.61c-8.46,5.4-15,9.83-19.39,13S-1.84,592.42-1.84,592.42Z"/><path class="cls-9" d="M1026.36,427.87l2.71-1.49c.89-.46,2-1,3.37-1.61s2.91-1.24,4.72-1.81a87.3,87.3,0,0,1,13.23-3.44,144.92,144.92,0,0,1,17.61-2.14c6.48-.43,13.53-.58,21-.37s15.26.64,23.32,1.45,16.37,1.75,24.77,3.05,16.9,2.74,25.37,4.35,16.88,3.49,25.15,5.37,16.35,4,24.16,6,15.32,4.15,22.42,6.22,13.79,4.11,19.94,6.06,11.77,3.81,16.73,5.5,9.27,3.22,12.81,4.5,6.3,2.35,8.18,3.06l2.88,1.12-11.42-3-13.11-3.44-17-4.39-20.15-5c-7.15-1.77-14.72-3.55-22.53-5.41s-15.93-3.6-24.16-5.44-16.62-3.53-25-5.14-16.81-3.18-25.12-4.52-16.49-2.59-24.44-3.53-15.64-1.75-23-2.23-14.24-.72-20.62-.67-12.24.39-17.39,1a99.32,99.32,0,0,0-13.23,2.32c-.91.2-1.76.44-2.56.69l-2.25.65c-1.36.48-2.54.87-3.48,1.23Z"/><path class="cls-9" d="M564.35,394.34s-.36.45-1.09,1.27-1.84,2-3.35,3.56a113.18,113.18,0,0,1-14.14,12.08,119.52,119.52,0,0,1-11.19,7.2,154.49,154.49,0,0,1-14,7q-7.66,3.43-16.42,6.86c-5.85,2.25-12.05,4.48-18.58,6.63s-13.38,4.26-20.52,6.26-14.59,3.84-22.29,5.55S427,454,418.86,455.32s-16.61,2.36-25.21,3.1-17.39,1.11-26.31,1c-4.46,0-8.95-.25-13.45-.56s-9-.89-13.52-1.52c-18-2.59-35.85-6.59-53.7-10.48S251,439,233.42,436.09c-8.81-1.42-17.58-2.56-26.24-3.19l-26-1.87c-17.06-1.18-33.52-2.16-49.13-2.15a321.89,321.89,0,0,0-43.83,2.87c-6.75.92-13.18,2-19.26,3.3-3.05.58-6,1.28-8.88,1.9s-5.65,1.35-8.33,2c-10.74,2.79-20,5.74-27.53,8.31s-13.43,4.78-17.42,6.32L.67,456l6-2.68c3.92-1.73,9.69-4.23,17.15-7.13s16.62-6.17,27.32-9.38a285.92,285.92,0,0,1,36.56-8.51c6.8-1.12,13.92-2.07,21.33-2.74s15.08-1,23-1.21,16-.08,24.27.16,16.7.71,25.25,1.2l26,1.56q6.69.42,13.4,1.2t13.41,1.88c17.88,2.86,35.77,6.79,53.61,10.68s35.62,8,53.23,10.57c4.43.63,8.74,1.16,13.15,1.52s8.74.57,13.1.65c8.7.19,17.33-.08,25.79-.69s16.77-1.58,24.88-2.75,16-2.53,23.66-4.07,15.06-3.25,22.18-5.06,14-3.68,20.51-5.65,12.75-4,18.62-6.07,11.41-4.11,16.54-6.18A152.77,152.77,0,0,0,533.76,417a118.48,118.48,0,0,0,11.32-6.69,126.07,126.07,0,0,0,14.59-11.34c1.58-1.44,2.75-2.59,3.52-3.38S564.35,394.34,564.35,394.34Z"/><path class="cls-9" d="M-8.67,435.33s1-.58,2.77-1.61,4.5-2.51,8-4.27,7.76-3.81,12.76-6c2.49-1.1,5.18-2.17,8-3.33s5.85-2.26,9-3.36,6.48-2.22,9.93-3.34,7.06-2.1,10.8-3,7.55-1.88,11.59-2.72,7.94-1.53,12.07-2.24,8.39-1.36,12.67-1.93,8.61-1.16,13-1.53c8.76-.84,17.68-1.49,26.61-1.8l6.7-.23c2.23-.08,4.46,0,6.68-.05l6.66,0,6.61.14,6.56.15,6.49.3,6.41.32,6.3.47,6.2.46,6.07.57c4,.39,7.92.72,11.72,1.23s7.5.89,11.06,1.38l10.31,1.46c3.3.49,6.45,1,9.45,1.53s5.85.94,8.51,1.44c5.33,1,10,1.83,13.79,2.61l12,2.5-12.12-1.51c-3.85-.52-8.54-1-13.91-1.66-2.68-.35-5.55-.62-8.56-1s-6.18-.69-9.49-1l-10.32-1c-3.57-.34-7.26-.58-11.06-.88s-7.69-.55-11.68-.8l-6-.37-6.16-.26-6.26-.27L168,405.6l-6.43-.17-6.5,0h-6.55l-6.58.14c-4.4.06-8.81.25-13.22.44-8.82.36-17.61,1.06-26.25,1.94-2.16.18-4.3.47-6.44.73l-6.37.76c-4.22.53-8.33,1.22-12.41,1.81s-8.12,1.45-12.06,2.15c-1.88.34-3.84.81-5.72,1.16s-3.77.78-5.61,1.2c-7.37,1.65-14.29,3.51-20.65,5.33S21.08,424.7,16,426.43,6.41,429.69,2.76,431s-6.5,2.42-8.46,3.14S-8.67,435.33-8.67,435.33Z"/><path class="cls-9" d="M1170.5,808l5.75-2.92,6.56-3.37c2.53-1.3,5.36-2.81,8.44-4.46s6.4-3.46,9.88-5.41,7.11-4.07,10.83-6.3l5.6-3.49c1.85-1.23,3.77-2.41,5.61-3.73l2.8-1.93c.86-.61,1.85-1.36,2.77-2l2.68-2.07,2.66-2.16c3.53-2.92,6.94-6,10.24-9.12s6.47-6.28,9.5-9.39,5.91-6.17,8.61-9.11,5.24-5.74,7.56-8.35l6.32-7.16,4.83-5.58,4.2-4.9s-1.08,2.09-3.2,5.61c-1.06,1.76-2.37,3.89-3.95,6.28s-3.37,5.09-5.41,8-4.34,5.94-6.84,9.12-5.23,6.47-8.16,9.79-6.06,6.67-9.38,9.94-6.83,6.49-10.51,9.51l-2.8,2.24c-1,.72-1.92,1.48-2.89,2.17l-2.9,2-2.95,1.94c-1.94,1.31-4,2.43-5.92,3.64s-4,2.23-5.89,3.3c-3.91,2.08-7.73,4-11.41,5.68-1.84.85-3.62,1.67-5.38,2.41s-3.43,1.48-5.07,2.13c-3.26,1.35-6.3,2.46-9,3.45s-5.06,1.76-7,2.41C1172.78,807.41,1170.5,808,1170.5,808Z"/><path class="cls-9" d="M1224,803s.36,0,1-.14,1.62-.32,2.81-.61a41.51,41.51,0,0,0,4.19-1.37,46.38,46.38,0,0,0,5.13-2.36,54.9,54.9,0,0,0,5.64-3.48,63.46,63.46,0,0,0,5.75-4.59,72.14,72.14,0,0,0,5.55-5.59l.31-.34.34-.4.69-.8,1.39-1.61,1.41-1.6,1.33-1.6c.87-1.08,1.79-2.11,2.66-3.19s1.72-2.18,2.6-3.24c1.67-2.18,3.37-4.3,4.9-6.42.8-1,1.56-2.08,2.28-3.12s1.48-2,2.14-3c1.39-2,2.65-3.87,3.82-5.63s2.2-3.4,3.13-4.86l2.31-3.84,1.44-2.52.5-.91s0,.36-.16,1-.32,1.64-.65,2.87l-.56,2c-.22.73-.49,1.51-.76,2.35l-.95,2.65-1.17,2.89c-.43,1-.91,2-1.4,3.09s-1.07,2.13-1.62,3.25c-1.17,2.2-2.44,4.5-3.9,6.79s-3,4.62-4.69,6.94-3.48,4.58-5.39,6.8-3.77,4.21-5.79,6.38a58.37,58.37,0,0,1-6.43,5.67,48.67,48.67,0,0,1-6.77,4.32,42.72,42.72,0,0,1-6.61,2.82,36.43,36.43,0,0,1-5.88,1.41,28.33,28.33,0,0,1-4.61.36,21.13,21.13,0,0,1-3-.19A9.62,9.62,0,0,1,1224,803Z"/><path class="cls-9" d="M-.67,660s.77-1.09,2.41-3.09,4.17-4.9,7.7-8.45A161.94,161.94,0,0,1,44,622.21a176,176,0,0,1,28.22-12.92,188.21,188.21,0,0,1,35.51-8.83l4.91-.63,2.48-.32,2.52-.23c1.67-.14,3.35-.32,5.06-.42l5.19-.27c7-.26,14.1-.34,21.42-.09,14.65.41,30,1.72,45.95,3.38s32.52,3.86,49.63,6.24l52.93,7.54c18.16,2.52,36.83,5,55.95,6.71,9.56.85,19.23,1.5,29,1.67,2.43,0,4.88.07,7.3,0s5-.07,7.39-.18c4.89-.15,9.84-.49,14.79-.87,9.9-.82,19.84-2.11,29.8-3.77s19.91-3.78,29.86-6.21a581.41,581.41,0,0,0,59.38-18.31c19.68-7.15,39.22-15.21,58.76-23.57s39.05-17.06,59.16-24.69c5-1.9,10.11-3.69,15.27-5.32a162.64,162.64,0,0,1,15.74-4.22c2.67-.59,5.39-1,8.12-1.39,1.38-.14,2.75-.32,4.14-.39l1-.07.56,0,.5,0,2-.07a147,147,0,0,1,16.29.43,170.74,170.74,0,0,1,31.82,5.77,250.15,250.15,0,0,1,30.17,10.64c9.77,4.1,19.28,8.62,28.67,13.17s18.64,9.16,28,13.33a190.12,190.12,0,0,0,28.36,10.48c9.59,2.57,19.42,3.86,29,3s19-3.76,27.95-7.35a273.6,273.6,0,0,0,26.07-12.5c16.91-9.06,33.19-18.71,49.84-26.72s33.69-14.47,51-17.35a122.84,122.84,0,0,1,25.74-1.6c4.26.17,8.39.55,12.49,1s8.13,1.08,12.1,1.77c7.95,1.36,15.64,3,23.12,4.87s14.72,3.79,21.74,5.86c14,4.14,27.19,8.55,39.46,12.92,24.54,8.76,45.58,17.31,62.8,24.57s30.58,13.38,39.67,17.57,13.88,6.55,13.88,6.55-4.85-2.24-14-6.25-22.68-9.76-40-16.78-38.48-15.18-63.1-23.52c-12.31-4.16-25.5-8.34-39.53-12.24a410.92,410.92,0,0,0-44.62-10.11c-3.93-.63-7.91-1.18-11.93-1.6s-8.12-.75-12.19-.87a118.88,118.88,0,0,0-24.95,1.83c-16.77,2.95-33.41,9.35-49.73,17.4s-32.48,17.76-49.46,27a267.67,267.67,0,0,1-26.5,12.9c-9.24,3.75-19,6.84-29.4,7.85s-20.87-.34-30.9-3a195.34,195.34,0,0,1-29.25-10.63c-19-8.4-37.35-18.26-56.6-26.28A244.24,244.24,0,0,0,743,546.79a164.88,164.88,0,0,0-30.74-5.53,141.35,141.35,0,0,0-15.62-.39l-2,.07-.5,0-.44,0-1,.07c-1.27.06-2.54.24-3.81.37-2.55.36-5.09.76-7.64,1.32-10.18,2.17-20.2,5.64-30.13,9.32-19.85,7.49-39.36,16.19-59,24.49S553,593,533.17,600.15a562.42,562.42,0,0,1-60,18.27c-10.08,2.41-20.18,4.48-30.28,6.14s-20.2,2.9-30.26,3.68c-5,.37-10,.68-15.06.81-2.52.1-5,.11-7.46.15s-5,0-7.48-.05c-9.92-.21-19.69-1-29.32-1.89-19.25-1.88-38-4.51-56.13-7.17-36.33-5.36-70.56-11-102.32-14.72-15.88-1.83-31.13-3.3-45.66-3.86-7.26-.35-14.35-.38-21.21-.23l-5.1.19c-1.69.08-3.38.23-5.05.35l-2.48.18-2.46.27-4.86.54a180.51,180.51,0,0,0-63.46,20.47A166.21,166.21,0,0,0,9.68,648.7c-3.6,3.47-6.19,6.3-7.87,8.26S-.67,660-.67,660Z"/><path class="cls-9" d="M331.31,768.36s1.18-1,3.34-2.57,5.3-3.77,9.23-6.18c2-1.19,4.13-2.45,6.5-3.66a44.87,44.87,0,0,1,8-3.35l1.22-.31.08,0,.21,0,.13,0,.27,0,.54-.07,2.16-.28c1.54-.11,3.19-.18,4.78-.2s3.09,0,4.64.11l4.62.32c3.06.31,6.12.63,9.1,1.09,1.5.2,3,.44,4.42.69s2.89.48,4.3.77c2.81.53,5.52,1.11,8.08,1.7s5,1.19,7.17,1.78,4.23,1.18,6,1.72,3.33,1,4.6,1.46c2.54.85,4,1.42,4,1.42l-1.1-.05c-.72-.05-1.77-.09-3.1-.2-2.67-.18-6.46-.51-11-.93l-7.3-.75-8.12-.89c-5.62-.62-11.6-1.3-17.55-1.83l-4.44-.36-4.38-.23-4.1,0-2.18.15-.54,0-.27,0h-.17l.11,0h-.05l-.87.15a53,53,0,0,0-7.39,2.3c-2.4.88-4.67,1.8-6.77,2.64l-10.21,4.13c-1.23.51-2.22.87-2.89,1.14Z"/><path class="cls-9" d="M693.46,408.81s2.42.8,6.92,2.43c2.25.82,5,1.85,8.23,3.16,1.61.66,3.33,1.38,5.14,2.23a45.93,45.93,0,0,1,5.65,3l.74.5.67.53a17.32,17.32,0,0,1,1.33,1.27,18.71,18.71,0,0,1,2.24,3,56,56,0,0,1,3.4,7.07,43.06,43.06,0,0,0,3.72,7.29,19,19,0,0,0,2.68,3.19,23.24,23.24,0,0,0,3.51,2.59c10.38,6.74,22.34,14,35.73,21.27q10,5.44,21.17,10.75c7.4,3.52,15.16,6.95,23.26,10.07a202,202,0,0,0,25.36,8.07,119.19,119.19,0,0,0,13.41,2.46,67.35,67.35,0,0,0,13.63.37,137.26,137.26,0,0,0,28-5.23,167.56,167.56,0,0,0,27.15-11c17.72-8.86,34.63-20.41,53.05-29.73a195.14,195.14,0,0,1,28.63-11.84,169.41,169.41,0,0,1,30.08-6.58q7.59-.95,15.17-1.25c1.35-.06,2.51-.06,3.78-.08s2.59,0,3.85.06q3.79.12,7.52.43c10,.81,19.63,2.3,29.09,4,18.91,3.44,36.91,7.87,53.88,12.33s32.9,9.13,47.54,13.58,28,8.76,39.79,12.68,22.05,7.42,30.48,10.34,15,5.33,19.51,7l6.88,2.53-7-2.22L1267.92,487c-8.52-2.64-18.87-5.81-30.78-9.32s-25.38-7.38-40.08-11.5-30.71-8.35-47.68-12.55-35-8.21-53.7-11.47c-9.36-1.6-18.92-3-28.59-3.65q-3.62-.26-7.25-.34c-1.21,0-2.38,0-3.58,0s-2.53.06-3.66.12c-4.89.23-9.8.64-14.69,1.27a163.37,163.37,0,0,0-29,6.45,189.13,189.13,0,0,0-27.71,11.57c-18,9-34.95,20.51-53.17,29.56a163,163,0,0,1-28.17,11.14,142.81,142.81,0,0,1-29.14,5.14,72.41,72.41,0,0,1-14.72-.53,116,116,0,0,1-14-2.73,206.63,206.63,0,0,1-25.84-8.68,371,371,0,0,1-44.51-21.9c-13.33-7.61-25.19-15.17-35.4-22.32a24.09,24.09,0,0,1-3.74-3,21.26,21.26,0,0,1-2.87-3.69,44.84,44.84,0,0,1-3.59-7.78,54.67,54.67,0,0,0-3-7,17.3,17.3,0,0,0-1.95-2.86c-.37-.43-.75-.82-1.13-1.18l-.65-.55-.64-.46a45,45,0,0,0-5.38-3.14c-1.76-.89-3.43-1.7-5-2.43-3.14-1.45-5.84-2.62-8-3.54C695.84,409.72,693.46,408.81,693.46,408.81Z"/><path class="cls-9" d="M616.56,711.25s2.07-1.21,6-3.32,9.8-5.16,17.44-8.64,17-7.49,28.09-11.31,23.88-7.52,38.42-8.91c1.82-.14,3.66-.3,5.53-.33l1.4,0h1.42l2.79,0c1.87,0,3.81.13,5.74.2s3.85.24,5.8.41c7.78.66,15.76,1.79,23.92,3.14,16.3,2.73,33.3,6.41,50.81,10.36s35.57,8.07,54,11c9.2,1.4,18.58,2.55,27.7,2.12,1.18-.08,2.4-.12,3.55-.22l3.43-.34c1.14-.1,2.31-.3,3.47-.44s2.32-.31,3.48-.51c4.64-.71,9.27-1.7,13.89-2.7,18.48-4.21,36.7-9.95,54.63-15.68s35.6-11.47,53-16.22c8.71-2.35,17.35-4.47,26-5.91,4.31-.78,8.6-1.27,12.94-1.67,4.17-.3,8.45-.52,12.59-.59,16.57-.34,32.15.62,46.5,1.65s27.45,2.48,39,3.82,21.68,2.68,30,3.82,14.8,2.17,19.24,2.85l6.79,1.09-6.83-.79-19.33-2c-16.65-1.72-40.48-3.93-69.1-5.43-14.3-.7-29.83-1.19-46.15-.62-4.09.14-8.13.42-12.37.8-4.06.45-8.25,1-12.43,1.85-8.37,1.59-16.86,3.79-25.44,6.2-17.18,4.85-34.69,10.89-52.63,16.68s-36.24,11.69-55.09,16c-4.73,1-9.47,2-14.29,2.72-1.2.21-2.4.36-3.61.52s-2.4.34-3.64.45l-3.7.35c-1.22.1-2.39.14-3.58.21-10,.43-19.53-.82-28.92-2.28s-18.59-3.43-27.62-5.44-17.93-4.11-26.66-6.16c-17.47-4.08-34.3-8.11-50.4-11.09-8-1.49-15.91-2.71-23.53-3.54-1.91-.21-3.8-.36-5.67-.54s-3.69-.27-5.55-.33l-2.79-.08-.69,0h-2c-1.79,0-3.57.09-5.33.19a141.07,141.07,0,0,0-20.12,2.94c-6.35,1.34-12.31,3-17.87,4.65-11.11,3.4-20.59,7-28.31,10.25s-13.71,5.92-17.76,7.85S616.56,711.25,616.56,711.25Z"/><path class="cls-9" d="M0,715.89s.74-1.21,2.21-3.41,3.67-5.42,6.66-9.38,6.71-8.7,11.29-13.89a209.11,209.11,0,0,1,16.25-16.65A156.59,156.59,0,0,1,58.3,655.64a116.55,116.55,0,0,1,13.36-7.31,86.26,86.26,0,0,1,15.11-5.43,172.57,172.57,0,0,1,32.79-4.6c11.24-.56,22.64-.39,34,.15s22.67,1.66,33.77,2.93,22,2.9,32.45,4.62,20.58,3.6,30.11,5.54q7.15,1.45,13.88,2.9t12.91,2.93c8.27,1.91,15.82,3.79,22.49,5.53s12.47,3.32,17.24,4.66,8.49,2.46,11,3.22l3.89,1.19-4-.87-11.23-2.37-17.47-3.56-10.76-2.1L276,660.8q-6.24-1.17-13-2.35T249.05,656q-7.17-1.22-14.72-2.39c-5-.79-10.16-1.6-15.38-2.35-10.45-1.52-21.28-2.87-32.29-4.11s-22.22-2.14-33.43-2.74-22.43-.84-33.42-.36a170.93,170.93,0,0,0-31.88,3.88,99,99,0,0,0-27.38,11.41,166.2,166.2,0,0,0-22,15.72c-6.42,5.42-12,10.74-16.83,15.65s-8.8,9.36-12,13.11-5.67,6.76-7.29,8.84S0,715.89,0,715.89Z"/><path class="cls-9" d="M24,723.14s.46-.9,1.39-2.54,2.33-4.05,4.28-7,4.38-6.51,7.43-10.39A144.75,144.75,0,0,1,48,690.66a118.9,118.9,0,0,1,14.9-13,89,89,0,0,1,19.41-11,74.54,74.54,0,0,1,11.36-3.52c1.86-.45,3.9-.86,5.85-1.23s4-.7,6-1a191.13,191.13,0,0,1,24.34-1.68c8.16,0,16.3.45,24.27,1.18s15.76,1.9,23.25,3.19,14.68,2.83,21.44,4.46c3.38.81,6.66,1.63,9.83,2.47s6.2,1.72,9.1,2.58c5.82,1.69,11.11,3.4,15.77,5s8.69,3.07,12,4.33,5.86,2.33,7.61,3.06l2.67,1.14-2.78-.83-7.87-2.22c-3.39-.94-7.53-2-12.27-3.25s-10.12-2.5-16-3.86-12.25-2.68-19-4-13.92-2.51-21.33-3.63-15.11-2-22.93-2.66-15.78-1-23.73-1a185.13,185.13,0,0,0-23.59,1.41c-1.93.27-3.85.52-5.75.83s-3.71.62-5.65,1a68.62,68.62,0,0,0-10.67,3,91.43,91.43,0,0,0-18.77,9.71,132.65,132.65,0,0,0-15.09,11.85c-4.41,4-8.27,7.94-11.55,11.56s-6,6.88-8.2,9.63-3.86,5-5,6.5S24,723.14,24,723.14Z"/><path class="cls-9" d="M66.67,719.91s.11-.67.46-1.91A42.34,42.34,0,0,1,69,712.76a46.74,46.74,0,0,1,4.1-7.68,43.09,43.09,0,0,1,7.45-8.67,44.58,44.58,0,0,1,5.27-4,40.27,40.27,0,0,1,6.34-3.28c1.13-.48,2.31-.89,3.51-1.28.67-.22,1.18-.35,1.78-.53s1.22-.33,1.83-.49a71,71,0,0,1,7.59-1.48,117.4,117.4,0,0,1,16-1.13c5.43,0,10.93.24,16.4.67s10.91,1.13,16.23,2S166,688.65,171,689.66s9.82,2.16,14.36,3.32,8.81,2.32,12.72,3.49,7.49,2.28,10.63,3.32,5.87,2,8.11,2.82,4,1.5,5.17,2l1.81.74-7.31-1.54L208.08,702l-10.86-2.19-12.86-2.45c-4.56-.84-9.39-1.65-14.36-2.5s-10.15-1.55-15.39-2.27-10.58-1.31-15.91-1.76S128,690,122.79,690a134,134,0,0,0-15.3.55c-2.45.26-4.87.62-7.16,1-.57.11-1.12.2-1.72.34s-1.23.27-1.71.39c-1.09.29-2.17.58-3.21.95a40.47,40.47,0,0,0-11,5.78,46.5,46.5,0,0,0-7.78,7.39A54.63,54.63,0,0,0,70,713.28a53.45,53.45,0,0,0-2.57,4.84C66.91,719.27,66.67,719.91,66.67,719.91Z"/><path class="cls-9" d="M206,721.12l2.55-1.76c1.69-1.15,4.17-2.91,7.47-5.09,6.58-4.41,16.24-10.87,29.07-18.26,6.42-3.68,13.62-7.61,21.69-11.44,4-1.95,8.31-3.77,12.78-5.58s9.23-3.44,14.2-4.9a128.2,128.2,0,0,1,32.6-5.17c11.67-.37,23.84.83,36.45,1.86,25.27,2.17,52.55,5,81.45,7.3,14.45,1.11,29.3,2.09,44.48,2.57,7.59.24,15.25.34,23,.26s15.51-.4,23.28-1.15c3.87-.42,7.77-.86,11.59-1.59l1.44-.25,1.41-.3c1-.22,2-.42,2.92-.66,1.87-.5,3.73-1,5.63-1.55a228,228,0,0,0,22.53-8.22c14.94-6.22,29.79-13.37,44.9-20.33s30.44-13.95,46.47-19.65c2-.7,4-1.41,6.05-2.05s4.07-1.29,6.13-1.88,4.14-1.12,6.21-1.68,4.19-1,6.33-1.37a96.84,96.84,0,0,1,26-1.56A120.53,120.53,0,0,1,748,623.51c8.24,2.43,16.21,5.46,24.05,8.6,15.66,6.31,31,12.87,46.74,17.53A199.08,199.08,0,0,0,866.69,658q6,.27,12,.2t11.93-.5l3-.24,1.43-.11,1.49-.16c2-.23,4-.39,5.92-.69,3.85-.51,7.73-1.16,11.57-1.92a298.32,298.32,0,0,0,44.36-12.85c14.25-5.19,28-11,41.37-16.54s26.54-11,39.87-14.75c1.67-.47,3.35-.88,5-1.29s3.35-.78,5.05-1a83.49,83.49,0,0,1,10.09-1.19c3.26-.3,6.6-.37,9.86-.53s6.47-.15,9.66-.1c25.49.21,48.64,3.11,69,6.18s38,6.63,52.46,9.72,25.73,5.9,33.41,7.83,11.74,3.09,11.74,3.09-4.1-1-11.82-2.77-19.07-4.18-33.57-7-32.16-5.94-52.54-8.64c-10.19-1.34-21.05-2.58-32.53-3.5s-23.57-1.55-36.16-1.45c-3.15,0-6.33.15-9.53.23s-6.38.31-9.68.66l-2.47.23-1.24.11c-.34,0-.78.11-1.17.16l-2.41.33-2.41.45c-1.61.27-3.22.71-4.83,1.07s-3.23.85-4.84,1.32c-12.92,3.84-25.9,9.35-39.24,15s-27,11.65-41.39,17a295.6,295.6,0,0,1-45,13.39c-3.93.8-7.89,1.49-11.94,2.05-2,.33-4,.49-6,.74l-1.49.17-1.56.14-3,.26q-6.09.45-12.24.59t-12.35-.13a196.57,196.57,0,0,1-24.79-2.6,213.59,213.59,0,0,1-24.49-5.76c-16.16-4.74-31.73-11.38-47.27-17.61-7.78-3.1-15.59-6-23.54-8.37a116.47,116.47,0,0,0-24.21-4.59A90.86,90.86,0,0,0,697.72,626c-2,.33-4,.87-6,1.3s-4,1-6,1.61-4,1.16-5.95,1.82-3.94,1.31-5.91,2c-15.69,5.54-30.92,12.44-46,19.35s-30,14-45.21,20.21a233.48,233.48,0,0,1-23.13,8.26c-1.94.6-4,1.08-6,1.6-1,.24-2,.43-2.94.64l-1.53.32-1.51.26c-4,.74-8,1.17-12,1.58-16,1.39-31.66,1.16-46.94.55s-30.18-1.78-44.66-3c-29-2.53-56.22-5.84-81.39-8.35-12.61-1.23-24.65-2.53-36.08-2.41a125.75,125.75,0,0,0-32.07,4.46c-4.93,1.35-9.62,2.92-14.11,4.57s-8.75,3.44-12.78,5.29c-8.1,3.64-15.34,7.42-21.81,11-12.91,7.14-22.78,13.27-29.45,17.53-3.36,2.1-5.87,3.79-7.6,4.9Z"/><path class="cls-9" d="M654.17,425.25s-.13.74-.28,2.14a52.79,52.79,0,0,0-.34,6.07,34.27,34.27,0,0,0,1.1,9.2,12.42,12.42,0,0,0,.91,2.42,6.1,6.1,0,0,0,1.73,1.82,18.29,18.29,0,0,0,5.53,2.31c2.11.62,4.41,1.15,6.84,2a21,21,0,0,1,3.7,1.65,11.33,11.33,0,0,1,3.45,3,18.81,18.81,0,0,1,3.17,8.28c.47,2.86.47,5.79.93,8.14a6.33,6.33,0,0,0,.46,1.47,2.08,2.08,0,0,0,.6.78l.79.58c.29.23.56.41.83.59.52.37,1.1.73,1.68,1.1a74,74,0,0,0,7.48,4c5.24,2.43,10.72,4.7,16.3,6.73s11.23,4,16.83,5.77,11.12,3.54,16.49,5.21l15.52,4.64,13.95,4.09,11.81,3.45,9.11,2.68,7.94,2.38s-3-.33-8.22-1.13c-2.61-.39-5.77-.9-9.39-1.54s-7.69-1.4-12.12-2.29-9.22-1.93-14.27-3.09-10.36-2.48-15.83-3.93-11.1-3-16.79-4.81-11.43-3.71-17.1-5.89a158,158,0,0,1-16.7-7.29,79.34,79.34,0,0,1-7.85-4.6c-.63-.43-1.25-.86-1.9-1.35-.32-.24-.64-.47-.9-.7l-.42-.34-.49-.4a7.14,7.14,0,0,1-1.88-2.66,11.21,11.21,0,0,1-.7-2.6,39.16,39.16,0,0,1-.33-4.45c0-1.38-.1-2.69-.24-3.93a15,15,0,0,0-2.09-6.56c-1-1.63-3-2.81-5.1-3.72s-4.35-1.61-6.51-2.43a20.67,20.67,0,0,1-6.06-3.28,8.3,8.3,0,0,1-2.12-2.72,14.32,14.32,0,0,1-.85-3,35.64,35.64,0,0,1-.26-9.66,52.94,52.94,0,0,1,1-6.06C653.94,426,654.17,425.25,654.17,425.25Z"/><path class="cls-10" d="M556.5,347.75c-1.7,6.19,2.76,20.2,6.75,24.8,2.17,2.51,11.75,4.3,11.75,4.3l-3-33.53s-8.05-1-10.55,0C560,343.9,557,346,556.5,347.75Z"/><path class="cls-10" d="M709.28,349.87c1.56,5.4-2.52,17.61-6.17,21.63-2,2.19-10.74,5.25-10.74,5.25l2.7-30.74s7.36-.85,9.64,0C706.08,346.52,708.85,348.37,709.28,349.87Z"/><path class="cls-4" d="M566.55,313.07S568.94,352.13,571,365c.77,4.82,4.5,19,4.5,19l116,5s2.56-22.35,5-30.5c3.75-12.5,7.81-44.47,7.81-44.47s-36.56-22.28-74.81-23.28C606.28,290.14,566.55,313.07,566.55,313.07Z"/><path class="cls-6" d="M560.9,320.13c-.2,3.78-1.08,11.5,0,15.12.51,1.71,3.07,5.31,5.18,8.1,1.61,2.12,3,3.77,3,3.77s8.27-10.54,10.71-14.19c4.4-6.6,13.06-28.92,13.06-28.92l-10.31-3L562,309.75S561,317.52,560.9,320.13Z"/><path class="cls-6" d="M676.8,302.75s3.54,15.68,6,20.63c2.88,5.9,16.39,23.75,16.39,23.75s5-8.62,6.36-11.37a73.85,73.85,0,0,0,4.75-15c.81-4.43,1-18,1-18Z"/><path class="cls-11" d="M641.5,218c-24.25-1.25-56.56,24.65-68.86,48.63-5.59,10.89-13.39,29.12-13.39,29.12l154.59,1.69s.71-5.39-3.09-14.44c-5.6-13.34-17.38-30.55-35.25-44.25C665.37,231,654.44,218.67,641.5,218Z"/><path class="cls-1" d="M650.48,406.74l-1.18.86-1.38.94a19.83,19.83,0,0,1-1.91,1.13,14.1,14.1,0,0,1-2.47.92c-.9.26-1.85.44-2.84.62a51.7,51.7,0,0,1-6.22.6c-1.06.06-2.12,0-3.16.05s-2.07,0-3.06-.07c-2-.08-3.82-.24-5.4-.42a48.71,48.71,0,0,1-5.23-.84s2.12-.21,5.27-.35c1.58-.08,3.41-.14,5.37-.19l6.13-.16c2.08-.06,4.16-.13,6.1-.28,1-.06,1.9-.14,2.77-.26a16.65,16.65,0,0,0,2.43-.46c.68-.22,1.36-.55,1.94-.8l1.51-.69Z"/><path class="cls-12" d="M585.2,322.27c10.17.57,31.3,2.66,40.47,4.56,3.42.71-1.64,14-5,13-17-4.87-30.17-5-40.92-6.93-1.38-.24-.49-4.29,0-5.6a12,12,0,0,1,4.42-5.06A2.94,2.94,0,0,1,585.2,322.27Z"/><path class="cls-12" d="M650.94,340.9c-3.4.52-5.4-8.53-3.77-11.56,2.83-5.27,22.24-5.31,29.63-6,3.37-.31,11-1.4,13.59.73,1.62,1.32,2.57,5.37,1.28,7-2.2,2.79-13.33,1.78-21.33,3.6C665.5,335.77,657.62,339.87,650.94,340.9Z"/><path class="cls-13" d="M632,396.12s-21.38,14.44-29.05,14.54c-12.48.16-38.24-6.31-38.24-8.5,0-5,7-19.77,25-22.54,10.52-1.62,31.18,1.54,31.18,1.54s-.67,5.67,12.4,5.59c11.78-.07,11.82-5.66,11.82-5.66s16.95-3.6,29.48-.47c11.33,2.82,28.62,14.51,28.62,20,0,4.88-25.45,10.48-34.32,10C659.11,410.19,632,396.12,632,396.12Z"/><path class="cls-13" d="M628.23,416h14s-4.8,5.33-7,5.33S628.23,416,628.23,416Z"/><path class="cls-14" d="M598.69,345.36s-.84,2.64-.86,3a7.14,7.14,0,0,0,.42,2.44c.64,1,4,2,5.25,1.88,1.7-.16,4.19-2.47,4.81-4.06.28-.71-.74-5.31-.74-5.31"/><path class="cls-1" d="M586.5,345.23s.39-.1,1.07-.21,1.65-.24,2.8-.37,2.5-.19,3.93-.28c.71,0,1.46-.08,2.1-.14s1.52-.24,2.24-.38l2.24-.4c.75-.13,1.48-.27,2.2-.38,1.43-.24,2.77-.43,3.92-.59,2.31-.31,3.87-.39,3.87-.39l-1,.41c-.64.25-1.55.58-2.65,1s-2.4.78-3.8,1.17c-.7.21-1.43.39-2.17.58s-1.49.39-2.27.55-1.55.31-2.29.44a19.58,19.58,0,0,1-2.36.09c-.74,0-1.44-.07-2.11-.1l-1.88-.2c-1.16-.16-2.12-.34-2.8-.5S586.5,345.23,586.5,345.23Z"/><path class="cls-14" d="M671.5,343.36s.84,2.64.86,3a7.14,7.14,0,0,1-.42,2.44c-.64,1-4,2-5.25,1.88-1.7-.16-4.19-2.47-4.81-4.06-.28-.71.74-5.31.74-5.31"/><path class="cls-1" d="M680.5,343.23a41.76,41.76,0,0,1-5.36,1.09c-.91.12-1.81.24-2.74.28-.46,0-1,0-1.43,0a12.23,12.23,0,0,1-1.45-.17c-.48-.08-.89-.17-1.37-.28l-1.31-.32c-.87-.22-1.74-.47-2.61-.72s-1.73-.53-2.59-.81-1.72-.63-2.56-1l.3,0c-.66.3-1.34.56-2,.81.53-.51,1.07-1,1.63-1.45l.08-.07.22,0c.91.09,1.79.23,2.68.37s1.79.26,2.67.44,1.78.33,2.66.52l1.32.3c.4.08.87.2,1.28.27s.82.15,1.23.2.83.08,1.28.09l2.67.07A49.07,49.07,0,0,1,680.5,343.23Z"/><path class="cls-10" d="M596.27,365.57l.21-.06a4,4,0,0,0,.52-.27c.44-.25,1-.66,1.76-1.14l2.41-1.67a24,24,0,0,0,2.52-2l2.36-2.36c.74-.77,1.41-1.49,2-2.13.27-.33.51-.63.71-.91a6.72,6.72,0,0,0,.47-.75,3.17,3.17,0,0,0,.24-.53l.07-.2,0,.21a2.19,2.19,0,0,1,0,.63,4.21,4.21,0,0,1-.16,1,6.76,6.76,0,0,1-.42,1.19,14,14,0,0,1-1.59,2.67c-.34.45-.69.92-1.08,1.35s-.81.89-1.22,1.3a13.07,13.07,0,0,1-3,2,15.86,15.86,0,0,1-1.47.69,14.3,14.3,0,0,1-1.36.51,9.81,9.81,0,0,1-2.14.49,2.45,2.45,0,0,1-.63,0Z"/><path class="cls-10" d="M656.67,348a27,27,0,0,1,1.84,2.08c.26.32.55.65.82,1s.6.73.89,1.14.64.79.94,1.1a2.45,2.45,0,0,0,.2.21l.32.25c.21.16.42.37.63.5l1.23.88c.44.29.84.62,1.26.9s.81.58,1.18.87.73.55,1,.81a23.92,23.92,0,0,1,2.1,1.82,17.06,17.06,0,0,1-2.67-.83,24.43,24.43,0,0,1-2.58-1.17c-.46-.24-.94-.5-1.4-.78s-1-.64-1.45-1c-.24-.17-.42-.35-.64-.53l-.3-.27a3,3,0,0,1-.35-.39,11,11,0,0,1-1-1.41,20.76,20.76,0,0,1-1.25-2.57A16,16,0,0,1,656.67,348Z"/><path class="cls-10" d="M572.44,344.72s.72,17.06,2.64,27c.29,1.49,1.19,8.81,2.67,9.16,2.52.59,8.58-6.87,8.81-9.44.14-1.57-3.21-3.49-4.09-4.8C578.94,361.41,572.44,344.72,572.44,344.72Z"/><path class="cls-10" d="M689.63,342.21s.36,18.72-1.6,24.55c-.63,1.89-4.08,4.69-4.39,6.67-.27,1.71.16,6.41,1.88,6.67,1.87.28,3.44-4.57,4.12-6.33,2.23-5.83,4.94-18.52,3.84-24.66C693.13,347.16,689.63,342.21,689.63,342.21Z"/><path class="cls-10" d="M625.54,361.55s-1.36,9.44-1.3,12.61c0,2-.25,6.59,1.15,8.06,1.18,1.23,4.86,1.59,6.52,1.95a23.53,23.53,0,0,0,3.31.09s-5.17-4-6.21-5.81C626.92,374.68,625.54,361.55,625.54,361.55Z"/><path class="cls-10" d="M651.24,359.37c-.72,2.8-2.42,8.39-2.52,11.27a52,52,0,0,0,1.15,7.41s3.33-5.33,3.82-7.31c1.2-4.83,0-19.81,0-19.81S651.78,357.24,651.24,359.37Z"/><path class="cls-10" d="M617.69,361.1s1.16,12.25,0,15.31c-.5,1.32-9.31-.26-9-1.9C609.36,371,617.69,361.1,617.69,361.1Z"/><path class="cls-15" d="M699.86,348.76s4.9.09,5.84,1.26c1.22,1.51.46,5.86,0,7.74-.62,2.54-2.37,10.16-4.83,9.28-2.2-.79,2-6.81,1.91-9.14S699.86,348.76,699.86,348.76Z"/><path class="cls-15" d="M565.48,346.64c-1.8-1-4.88,1.08-5.85,2.92-1.08,2.08.41,9.54,1.31,11.7.81,2,1.78,6.31,3.75,5.5,2.32-1,0-10,0-10S567.69,347.9,565.48,346.64Z"/><path class="cls-10" d="M597.83,298.14c-3.74.24-8.5,17.88-7.33,20.53,1.31,3,22,3.74,19,.82C603.09,313.25,602.76,297.83,597.83,298.14Z"/><path class="cls-10" d="M661.83,321.33c0,1.84,16.26.38,16.42-2.58.17-3.28-3.93-13.92-3.93-13.92l-7.23-1.45S661.83,315.54,661.83,321.33Z"/><path class="cls-16" d="M559.33,320c3.67,1.5,1.46-4.23,4.17-5.5,9.48-4.44,31.45-15.67,75-14.5,15.85.43,48,5.5,68.52,15.25,3.57,1.7.64,11.34,3.67,10.08,6.24-2.58,11.7-19,9.33-25.33-7.62-20.36-58.29-30.56-80-31.75C617.38,267,562.75,275,552.67,292c-.56.95.6,3,.59,5.44C553.22,305.22,554.29,317.94,559.33,320Z"/><path class="cls-17" d="M575,313.67c1.12-3.65,14.34-6.43,13.5-4.8-2,3.91-13.81,29.92-19.86,33.46-1.34.79-.77-8.93-.81-10.49C567.67,326.54,574.44,315.5,575,313.67Z"/><path class="cls-17" d="M685.76,316s2.91,9.73,4.52,12.69,5.12,11.69,8.62,11.21c2.18-.3,3.77-6,3.31-8.16C701,326.18,685.76,316,685.76,316Z"/><path class="cls-18" d="M570,284.82c-2.89-2.36-12.18,2.59-13.87,5.92-2.18,4.29-1.13,6.71,0,13.93.24,1.53,1.59,10.35,3.13,10.17,2.82-.33,14.57-6.66,14.58-9.5,0-2.54-7.54-2-8.27-7.2C564.76,292.39,572.84,287.14,570,284.82Z"/><path class="cls-18" d="M687,282.5c1.59-3.16,16.76,4.92,21.17,8.24,2.82,2.12,8.19,6.81,8.91,10.26s-3.83,21.35-4.74,18c-1.56-5.74-11.39-9.81-14.67-11.31-4-1.82-16.25-4.08-15.92-5.63s.45-5.44,1.83-6.37c3.48-2.36,12.21,4.31,16.29,5.33,2.44.61,8.35,4.45,9.77,2.38,1.63-2.38-9.39-7.06-12.62-10.38C694.84,290.79,685.61,285.26,687,282.5Z"/><path class="cls-19" d="M638.5,222s-19.26,4.46-25.05,7.5c-4.43,2.32-12.29,8.77-15.62,12.5-4.12,4.63-15.22,15.12-18.82,20.17-1.87,2.62-8.22,12.87-5.18,11.83,6.33-2.17,28.08-8.5,33.71-8.5,2.25,0,2.25-10.67,7.79-18C621.22,239.7,638.5,222,638.5,222Z"/><path class="cls-19" d="M682.72,273c9.55,1.07,17.13,6.67,22.28,8.5,8.95,3.19-24.5-34-24.5-34S679.7,272.66,682.72,273Z"/><path class="cls-18" d="M562,299.52c-.81,1.27-.63,13.79.78,13.24,8.06-3.17,48.39-16.76,60.06-16.59,3.62.05,15.34,1,17.25-2.1,1.58-2.55-6.07-5.73-8.75-7.07-4.57-2.29-15.39-.73-20.45,0C602.27,288.24,566.68,292.19,562,299.52Z"/><path class="cls-20" d="M585.33,384.22c-2.18-.83-17.73,9.63-16.83,14.94.67,4,12.34,5.11,16.17,6.33s7.5,2.37,16.24,2.33c2.2,0,13-4.35,12.54-6.83-.74-4.29-18.86-2.68-23.13-3.5-2.73-.52-9.8,0-10.82-2.6C578.33,391.94,587.32,385,585.33,384.22Z"/><path class="cls-20" d="M654.23,400c-1.09,4.46,12.84,7.84,17.44,7.84,8.84,0,23.7-3.16,27-7,1-1.2-1.88-5.18-5.2-8.33-2.86-2.72-13.63-7.12-15.21-5.93s11.21,9.55,9.6,11.43C683.57,403,655,396.84,654.23,400Z"/><path class="cls-13" d="M649.64,331c-.72.67.27,7.15,1.05,7.74,2.9,2.2,14.31-3.62,14.31-5.52C665,331.85,651.47,329.31,649.64,331Z"/><path class="cls-13" d="M602,333c-1.94,1.3,14.25,5.48,18.61,3.62,1.53-.65,4.38-4.1,3.63-5.59C622.67,328,607.75,329.19,602,333Z"/><path class="cls-13" d="M617.64,385.26s2.64,4.07,4.05,4.72c4.91,2.26,21.12,5.38,21.62,0C643.9,383.49,617.64,385.26,617.64,385.26Z"/></g></g></svg>