<svg id="Skizze" xmlns="http://www.w3.org/2000/svg" viewBox="0 0 518 164"><defs><style>.cls-1,.cls-2{fill:#223133;}.cls-2{font-size:216px;font-family:HalisGR-Book, Halis GR;letter-spacing:-0.07em;}.cls-3,.cls-4,.cls-5{font-size:114px;font-family:HalisGR-Regular, Halis GR;}.cls-3{letter-spacing:-0.01em;}.cls-4{letter-spacing:-0.04em;}.cls-5{letter-spacing:-0.07em;}.cls-6{fill:#9eb1b2;}</style></defs><title>Logo</title><rect class="cls-1" x="143" y="94" width="188" height="6"/><text class="cls-2" transform="translate(-17.67 156.92)">H<tspan class="cls-3" x="149.68" y="-72">E</tspan><tspan class="cls-4" x="219.22" y="-72">L</tspan><tspan class="cls-5" x="275.08" y="-72">G</tspan><tspan x="348.84" y="0">E</tspan></text><path class="cls-6" d="M200.82,136.76v17.74h26.27v3.29H196.48v-46h30.61v3.29H200.82v18.4h20.55v3.29Z"/><path class="cls-6" d="M237.3,157.65V111.6h16.2c18.41,0,23.85,13.36,23.85,23,0,9.87-5.45,23.09-23.85,23.09Zm16.2-3.29c16.89,0,19.65-14.67,19.65-19.8s-2.76-19.74-19.65-19.74H241.64v39.54Z"/><path class="cls-6" d="M287.91,157.65h-4.35V111.79h4.35Z"/><path class="cls-6" d="M322.35,144.64H302.26l-5.47,13H292l19.82-46h.87l19.76,46h-4.61Zm-18.82-3h17.55l-8.74-20.78Z"/><polygon class="cls-6" points="180.94 112 180.39 112 164.32 147.34 148.26 112 147.85 112 143 112 143 158 147 158 147 121.59 163.91 158 164.81 158 181 121.55 181 158 185 158 185 112 180.94 112"/><path class="cls-1" d="M486.74,31.69c-1.75-3.21-1.79-6.88-.11-10.94-3.16.47-11.08,2.79-16.7,14.24a22.8,22.8,0,0,0,37.56,7.61C503,41.86,490.82,39.18,486.74,31.69Z"/><path class="cls-1" d="M498.76,11.67l1.83.41-1.15,1.48c-4.07,5.22-5.36,9.44-3.86,12.51,2.52,5.17,13,6.56,17.56,6.71a22.8,22.8,0,1,0-44.21-11.16C480.76,7.81,498.56,11.63,498.76,11.67Z"/><path class="cls-1" d="M488.23,30.88c4.06,7.46,17.82,9.81,20.61,10.21a22.79,22.79,0,0,0,3.5-5.94c-4.33-.21-15.67-1.4-18.91-8-1.76-3.61-.78-8.12,2.95-13.43-5.07-.62-19.2-.94-28,12.66,0,.11,0,.22,0,.33a22.8,22.8,0,0,0,.82,6C476.68,19,487.52,18.95,488,18.93l1.35,0-.6,1.21C486.75,24.22,486.58,27.83,488.23,30.88Z"/></svg>