<?xml version="1.0" encoding="utf-8"?>
<!-- Generator: Adobe Illustrator 21.1.0, SVG Export Plug-In . SVG Version: 6.00 Build 0)  -->
<svg version="1.1" id="Skizze" xmlns="http://www.w3.org/2000/svg" xmlns:xlink="http://www.w3.org/1999/xlink" x="0px" y="0px"
	 viewBox="0 0 518 164" style="enable-background:new 0 0 518 164;" xml:space="preserve">
<style type="text/css">
	.st0{fill:#223133;}
	.st1{enable-background:new    ;}
	.st2{fill:#9EB1B2;}
</style>
<title>Logo</title>
<rect x="143" y="94" class="st0" width="188" height="6"/>
<g class="st1">
	<path class="st0" d="M22.3,156.9H3.9V5.7h18.4v68.9H107V5.7h18.6v151.2H107V90.2H22.3V156.9z"/>
</g>
<g class="st1">
	<path class="st0" d="M155,50.7v23.9h40.8v10.3h-52.4V5.1h52.4v10.3H155v25.1H187v10.3H155z"/>
</g>
<g class="st1">
	<path class="st0" d="M224.7,74.7h30.4v10.3h-42.2V5.1h11.7V74.7z"/>
</g>
<g class="st1">
	<path class="st0" d="M303.8,56.4V46.2h28.5v28.6c-6.8,6.8-15.8,11.2-28.6,11.2c-30.4,0-39.4-23.9-39.4-41c0-16.6,9-40.9,39.4-40.9
		c13.5,0,20.9,3.8,27.7,11.3l-7.3,7.5c-4-4.3-12-8.4-20.4-8.4c-24.1,0-27.6,22.9-27.6,30.6s3.5,30.4,27.6,30.4
		c6.4,0,12.4-1.8,16.9-5.1V56.4H303.8z"/>
</g>
<g class="st1">
	<path class="st0" d="M371.1,90.2v51.2h79.5v15.6h-97.8V5.7h97.8v15.6h-79.5v53.4h62.2v15.6H371.1z"/>
</g>
<path class="st2" d="M200.8,136.8v17.7h26.3v3.3h-30.6v-46h30.6v3.3h-26.3v18.4h20.6v3.3L200.8,136.8z"/>
<path class="st2" d="M237.3,157.6v-46h16.2c18.4,0,23.9,13.4,23.9,23c0,9.9-5.5,23.1-23.9,23.1L237.3,157.6z M253.5,154.4
	c16.9,0,19.6-14.7,19.6-19.8s-2.8-19.7-19.6-19.7h-11.9v39.5H253.5z"/>
<path class="st2" d="M287.9,157.6h-4.4v-45.9h4.4V157.6z"/>
<path class="st2" d="M322.4,144.6h-20.1l-5.5,13H292l19.8-46h0.9l19.8,46h-4.6L322.4,144.6z M303.5,141.6h17.5l-8.7-20.8
	L303.5,141.6z"/>
<polygon class="st2" points="180.9,112 180.4,112 164.3,147.3 148.3,112 147.9,112 143,112 143,158 147,158 147,121.6 163.9,158 
	164.8,158 181,121.6 181,158 185,158 185,112 "/>
<path class="st0" d="M486.7,31.7c-1.8-3.2-1.8-6.9-0.1-10.9c-3.2,0.5-11.1,2.8-16.7,14.2c4.6,11.7,17.8,17.5,29.5,12.9
	c3-1.2,5.8-3,8-5.3C503,41.9,490.8,39.2,486.7,31.7z"/>
<path class="st0" d="M498.8,11.7l1.8,0.4l-1.1,1.5c-4.1,5.2-5.4,9.4-3.9,12.5c2.5,5.2,13,6.6,17.6,6.7c3.2-12.2-4-24.7-16.2-27.9
	c-12.2-3.2-24.7,4-27.9,16.2c0,0.2-0.1,0.3-0.1,0.5C480.8,7.8,498.6,11.6,498.8,11.7z"/>
<path class="st0" d="M488.2,30.9c4.1,7.5,17.8,9.8,20.6,10.2c1.5-1.8,2.6-3.8,3.5-5.9c-4.3-0.2-15.7-1.4-18.9-8
	c-1.8-3.6-0.8-8.1,3-13.4c-5.1-0.6-19.2-0.9-28,12.7c0,0.1,0,0.2,0,0.3c0,2,0.3,4,0.8,6C476.7,19,487.5,19,488,18.9h1.4l-0.6,1.2
	C486.8,24.2,486.6,27.8,488.2,30.9z"/>
</svg>
