<svg id="Skizze" xmlns="http://www.w3.org/2000/svg" viewBox="0 0 47.06 47.06"><defs><style>.cls-1{fill:#223133;}</style></defs><title>Marke Steuerkreuz</title><path class="cls-1" d="M13.27,23.53a10.18,10.18,0,0,1,1-4.45l-1.14-.67A11.5,11.5,0,0,0,13.92,30l1-.82A10.19,10.19,0,0,1,13.27,23.53Z"/><path class="cls-1" d="M22.53,13.33V12A11.57,11.57,0,0,0,14,17l1.14.67A10.25,10.25,0,0,1,22.53,13.33Z"/><path class="cls-1" d="M24.53,33.27a9.79,9.79,0,0,0,7-4.08L26,25.93a3.43,3.43,0,0,0,.85-1.45l5.54,3.25a9.71,9.71,0,0,0-.63-9.55l-5.07,4a3.46,3.46,0,0,0-1-1.32l5.07-4a9.77,9.77,0,0,0-6.16-3.09v6.42a3.26,3.26,0,0,0-1-.11,3.26,3.26,0,0,0-1,.11V13.78a9.79,9.79,0,0,0-7,4.08l5.54,3.26a3.42,3.42,0,0,0-.85,1.45L14.7,19.31a9.71,9.71,0,0,0,.63,9.55l5.07-4a3.43,3.43,0,0,0,1,1.32l-5.07,4a9.76,9.76,0,0,0,6.17,3.09V26.85a3.27,3.27,0,0,0,1,.11,3.26,3.26,0,0,0,1-.11Zm-1-8a1.75,1.75,0,1,1,1.75-1.75A1.75,1.75,0,0,1,23.53,25.28Z"/><circle class="cls-1" cx="23.53" cy="23.53" r="1.33"/><path class="cls-1" d="M32.09,15.78A11.53,11.53,0,0,0,24.53,12v1.32a10.22,10.22,0,0,1,6.53,3.26Z"/><path class="cls-1" d="M15,31.28A11.53,11.53,0,0,0,22.53,35V33.73A10.22,10.22,0,0,1,16,30.47Z"/><path class="cls-1" d="M23.53.72a22.8,22.8,0,1,0,22.81,22.8A22.8,22.8,0,0,0,23.53.72ZM38.37,32.25a.84.84,0,0,1-1.15.3l-3.71-2.18a12.11,12.11,0,0,1-9,5.22v4.32a1,1,0,0,1-2,0V35.59a12.07,12.07,0,0,1-8-4l-3.4,2.66a.84.84,0,0,1-1-1.32l3.39-2.65a12,12,0,0,1-.79-12.16L9,16a.84.84,0,0,1,.85-1.45l3.71,2.18a12.11,12.11,0,0,1,9-5.22V7.15a1,1,0,0,1,2,0v4.32a12.07,12.07,0,0,1,8,4l3.4-2.66a.84.84,0,1,1,1,1.32l-3.39,2.65a12,12,0,0,1,.79,12.16l3.72,2.18A.84.84,0,0,1,38.37,32.25Z"/><path class="cls-1" d="M33.14,17.09l-1,.82A10.17,10.17,0,0,1,32.75,28l1.14.67a11.5,11.5,0,0,0-.75-11.55Z"/><path class="cls-1" d="M24.53,33.73V35a11.57,11.57,0,0,0,8.52-5l-1.14-.67A10.25,10.25,0,0,1,24.53,33.73Z"/></svg>