<svg id="Skizze" xmlns="http://www.w3.org/2000/svg" viewBox="0 0 47.06 47.06"><defs><style>.cls-1{fill:#223133;}</style></defs><title>Marke Welle</title><path class="cls-1" d="M19.1,28.53c-1.75-3.21-1.79-6.88-.11-10.94-3.16.47-11.08,2.79-16.7,14.24a22.8,22.8,0,0,0,37.56,7.61C35.37,38.7,23.18,36,19.1,28.53Z"/><path class="cls-1" d="M31.12,8.51,33,8.93,31.8,10.41c-4.07,5.22-5.36,9.44-3.86,12.51,2.52,5.17,13,6.56,17.56,6.71A22.8,22.8,0,1,0,1.29,18.48C13.12,4.66,30.92,8.47,31.12,8.51Z"/><path class="cls-1" d="M20.59,27.72c4.06,7.46,17.82,9.81,20.61,10.21A22.79,22.79,0,0,0,44.7,32c-4.33-.21-15.67-1.4-18.91-8C24,20.36,25,15.85,28.75,10.54,23.68,9.92,9.55,9.6.73,23.2c0,.11,0,.22,0,.33a22.8,22.8,0,0,0,.82,6C9,15.8,19.88,15.79,20.37,15.78l1.35,0L21.12,17C19.11,21.07,18.94,24.67,20.59,27.72Z"/></svg>